<?xml version="1.0" encoding="UTF-8" standalone="no"?>
<!DOCTYPE svg PUBLIC "-//W3C//DTD SVG 1.1//EN" "http://www.w3.org/Graphics/SVG/1.1/DTD/svg11.dtd">
<!-- Creator: fig2dev Version 3.2 Patchlevel 5e -->
<!-- CreationDate: Tue Jun 13 20:22:31 2017 -->
<!-- Magnification: 1.050 -->
<svg xmlns="http://www.w3.org/2000/svg" xmlns:xlink="http://www.w3.org/1999/xlink" width="3.8in" height="1.6in" viewBox="2444 1404 4560 1914">
<g style="stroke-width:.025in; fill:none">
<!-- Line -->
<!--  polyline  -->
<polyline points="2456,2370 6992,2370 " style="stroke:#000000;stroke-width:8; stroke-linejoin:round; stroke-linecap:butt; stroke-dasharray:62 31 10 31;"/>
<!-- Line -->
<!--  polyline  -->
<polyline points="4724,3307 4724,1417 " style="stroke:#000000;stroke-width:8; stroke-linejoin:round; stroke-linecap:butt; stroke-dasharray:62 31 10 31;"/>
<!-- Line -->
<!--  spline  -->
<polyline points="3346,2370 3346,2369 3345,2367 3345,2362 3344,2360 3344,2359 3343,2358 3342,2355 3340,2352 3338,2349 3336,2346 3335,2345 3335,2344 3334,2343 3331,2340 3328,2338 3327,2337 3325,2337 3324,2335 3320,2334 3316,2333 3313,2332 3311,2332 3309,2332 3308,2332 3304,2333 3300,2333 3297,2334 3296,2334 3294,2335 3292,2335 3289,2338 3286,2340 3282,2343 3281,2344 3280,2345 3279,2346 3277,2349 3275,2352 3274,2353 3274,2354 3273,2355 3272,2359 3271,2363 3271,2366 3271,2368 3271,2370 3271,2371 3271,2374 3272,2379 3272,2382 3272,2383 3273,2384 3273,2386 3275,2389 3277,2392 3279,2395 3280,2396 3281,2397 3282,2398 3286,2402 3289,2404 3290,2405 3291,2405 3292,2406 3296,2407 3300,2408 3303,2409 3307,2409 3309,2409 3310,2409 3312,2408 3317,2408 3319,2407 3320,2407 3322,2406 3324,2406 3328,2404 3331,2402 3334,2398 3335,2397 3335,2396 3336,2395 3338,2392 3340,2389 3341,2388 3342,2388 3342,2386 3344,2383 3345,2379 3346,2375 3346,2372 3346,2370 " style="stroke:#000000;stroke-width:8; stroke-linejoin:bevel; stroke-linecap:butt; fill:#000000; "/>
<!-- Line -->
<!--  spline  -->
<polyline points="6178,2370 6178,2369 6177,2367 6177,2362 6176,2360 6176,2359 6176,2358 6175,2355 6174,2352 6172,2349 6170,2346 6169,2345 6167,2344 6166,2343 6163,2340 6160,2338 6159,2337 6158,2337 6157,2335 6153,2334 6149,2333 6145,2332 6142,2332 6140,2332 6139,2332 6137,2333 6132,2333 6130,2334 6129,2334 6127,2335 6124,2335 6121,2338 6118,2340 6115,2343 6114,2344 6114,2345 6113,2346 6111,2349 6109,2352 6108,2353 6107,2354 6107,2355 6104,2359 6103,2363 6102,2366 6102,2368 6102,2370 6102,2371 6103,2374 6103,2379 6104,2382 6104,2383 6106,2384 6107,2386 6109,2389 6111,2392 6113,2395 6114,2396 6114,2397 6115,2398 6118,2402 6121,2404 6122,2405 6123,2405 6124,2406 6129,2407 6133,2408 6136,2409 6138,2409 6140,2409 6141,2409 6144,2408 6149,2408 6152,2407 6153,2407 6155,2406 6157,2406 6160,2404 6163,2402 6166,2398 6167,2397 6169,2396 6170,2395 6172,2392 6174,2389 6174,2388 6175,2388 6175,2386 6176,2383 6177,2379 6178,2375 6178,2372 6178,2370 " style="stroke:#000000;stroke-width:8; stroke-linejoin:bevel; stroke-linecap:butt; fill:#000000; "/>
<!-- Line -->
<!--  polyline  -->
<polyline points="5949,1801 5952,1800 6024,1797 6093,1801 6163,1813 6232,1830 6297,1858 6359,1891 6416,1931 6469,1979 6514,2033 6555,2091 6585,2154 6609,2220 6624,2288 6630,2359 6626,2430 6616,2498 6595,2566 6565,2630 6529,2690 6485,2746 6434,2794 6377,2837 6318,2874 6254,2902 6185,2923 6116,2938 6047,2944 5975,2943 5905,2936 5837,2920 5770,2898 5704,2872 5643,2837 5584,2798 5528,2753 5480,2703 5436,2647 5398,2587 5370,2523 5350,2455 5341,2387 5344,2317 5359,2247 5383,2182 5418,2120 5459,2062 5505,2011 5559,1963 5614,1922 5675,1885 5739,1855 5805,1829 5874,1812 5944,1801 5949,1801 " style="stroke:#00d100;stroke-width:16; stroke-linejoin:round; stroke-linecap:butt; "/>
<!-- Line -->
<!--  polyline  -->
<polyline points="3500,1801 3497,1800 3425,1797 3356,1801 3286,1813 3217,1830 3152,1858 3090,1891 3033,1931 2980,1979 2935,2033 2894,2091 2864,2154 2839,2220 2825,2288 2818,2359 2823,2430 2833,2498 2854,2566 2883,2630 2920,2690 2964,2746 3015,2794 3071,2837 3131,2874 3195,2902 3264,2923 3333,2938 3402,2944 3474,2943 3544,2936 3612,2920 3679,2898 3744,2872 3806,2837 3865,2798 3921,2753 3969,2703 4013,2647 4051,2587 4079,2523 4099,2455 4108,2387 4104,2317 4090,2247 4066,2182 4031,2120 3990,2062 3944,2011 3890,1963 3835,1922 3774,1885 3710,1855 3644,1829 3575,1812 3505,1801 3500,1801 " style="stroke:#00d100;stroke-width:16; stroke-linejoin:round; stroke-linecap:butt; "/>
<!-- Line -->
<!--  polyline  -->
<polyline points="5959,1661 5955,1661 5885,1665 5815,1672 5744,1683 5675,1700 5608,1720 5543,1745 5478,1775 5414,1805 5353,1840 5292,1878 5233,1917 5175,1959 5120,2003 5065,2048 5012,2094 4959,2140 4908,2190 4856,2239 4806,2288 4755,2339 4707,2389 4658,2438 4606,2489 4556,2538 4504,2586 4452,2635 4399,2681 4345,2727 4288,2770 4233,2813 4174,2853 4114,2891 4052,2927 3989,2959 3925,2987 3860,3014 3792,3036 3723,3054 3654,3066 3585,3076 3513,3080 3442,3078 3373,3070 3302,3058 3234,3040 3167,3016 3104,2985 3043,2950 2985,2909 2933,2861 2885,2811 2841,2754 2805,2695 2773,2630 2749,2564 2732,2496 2724,2426 2722,2355 2726,2286 2740,2216 2760,2148 2787,2082 2819,2020 2858,1962 2904,1908 2955,1859 3009,1814 3068,1776 3131,1742 3196,1715 3264,1694 3333,1676 3402,1668 3474,1662 3544,1662 3613,1669 3683,1679 3754,1695 3821,1715 3887,1739 3953,1765 4016,1797 4079,1830 4139,1866 4199,1906 4257,1947 4313,1990 4367,2034 4422,2079 4474,2128 4527,2176 4578,2224 4628,2275 4679,2324 4726,2373 4777,2424 4828,2474 4877,2523 4930,2573 4981,2621 5035,2667 5088,2713 5144,2758 5201,2801 5257,2841 5317,2879 5378,2917 5440,2950 5504,2980 5570,3006 5637,3029 5706,3048 5775,3064 5844,3074 5914,3079 5986,3079 6056,3074 6127,3063 6195,3045 6261,3023 6326,2995 6388,2960 6447,2920 6501,2876 6552,2826 6596,2771 6635,2712 6667,2649 6693,2584 6711,2517 6723,2447 6728,2375 6724,2306 6714,2236 6697,2167 6671,2101 6639,2038 6601,1979 6558,1924 6510,1872 6455,1826 6397,1786 6337,1752 6272,1721 6205,1698 6136,1681 6068,1670 5996,1662 5959,1661 " style="stroke:#d10000;stroke-width:16; stroke-linejoin:round; stroke-linecap:butt; "/>
<!-- Line -->
<!--  polyline  -->
<polyline points="5981,1520 5971,1519 5902,1513 5830,1513 5759,1516 5690,1523 5618,1531 5548,1544 5480,1558 5411,1574 5342,1592 5273,1612 5206,1631 5138,1651 5069,1669 5000,1686 4932,1700 4861,1712 4791,1718 4723,1720 4651,1718 4581,1711 4512,1699 4443,1685 4373,1668 4305,1649 4238,1629 4169,1610 4100,1591 4031,1572 3964,1556 3893,1543 3823,1530 3754,1522 3682,1516 3611,1513 3542,1513 3470,1520 3400,1528 3331,1542 3262,1560 3195,1583 3130,1609 3066,1640 3006,1676 2949,1718 2893,1762 2844,1813 2797,1865 2755,1923 2719,1984 2687,2047 2661,2113 2641,2181 2627,2249 2620,2320 2619,2390 2623,2460 2636,2531 2653,2599 2676,2665 2703,2730 2739,2792 2779,2851 2823,2906 2872,2957 2923,3004 2979,3046 3040,3085 3102,3119 3166,3148 3232,3172 3300,3192 3370,3208 3440,3218 3509,3226 3581,3228 3651,3228 3722,3223 3793,3214 3862,3205 3932,3192 4002,3175 4070,3159 4138,3141 4206,3121 4275,3102 4343,3082 4411,3065 4480,3047 4551,3035 4620,3025 4690,3021 4760,3021 4830,3025 4900,3036 4970,3048 5039,3065 5107,3083 5175,3102 5244,3122 5312,3141 5380,3159 5449,3175 5519,3192 5587,3205 5658,3214 5729,3223 5798,3228 5869,3228 5941,3226 6010,3218 6080,3208 6150,3192 6218,3171 6283,3148 6348,3118 6410,3085 6471,3046 6527,3003 6578,2956 6627,2904 6671,2850 6710,2791 6745,2729 6774,2665 6797,2598 6814,2530 6826,2459 6830,2389 6829,2319 6822,2248 6807,2179 6787,2112 6762,2046 6729,1983 6693,1922 6651,1865 6604,1812 6555,1762 6499,1717 6441,1676 6382,1640 6318,1609 6253,1582 6185,1560 6116,1542 6048,1528 5976,1520 5981,1520 " style="stroke:#0000ff;stroke-width:16; stroke-linejoin:round; stroke-linecap:butt; "/>
</g>
</svg>