<?xml version="1.0" encoding="UTF-8" standalone="no"?>
<!-- Created with Inkscape (http://www.inkscape.org/) -->
<svg xmlns:dc="http://purl.org/dc/elements/1.1/" xmlns:cc="http://creativecommons.org/ns#" xmlns:rdf="http://www.w3.org/1999/02/22-rdf-syntax-ns#" xmlns:svg="http://www.w3.org/2000/svg" xmlns="http://www.w3.org/2000/svg" xmlns:sodipodi="http://sodipodi.sourceforge.net/DTD/sodipodi-0.dtd" xmlns:inkscape="http://www.inkscape.org/namespaces/inkscape" width="1950" height="2100" id="svg2" sodipodi:version="0.32" inkscape:version="0.46" sodipodi:docname="Secciones cónicas.svg" version="1.0" inkscape:output_extension="org.inkscape.output.svg.inkscape">
  <sodipodi:namedview id="base" pagecolor="#ffffff" bordercolor="#666666" borderopacity="1.0" inkscape:pageopacity="0.0" inkscape:pageshadow="2" inkscape:zoom="0.2526238" inkscape:cx="955.72687" inkscape:cy="1030.3464" inkscape:document-units="px" inkscape:current-layer="layer1" showgrid="true" gridtolerance="9" inkscape:snap-bbox="false" inkscape:object-nodes="false" inkscape:object-paths="false" showguides="true" inkscape:guide-bbox="true" objecttolerance="1" inkscape:snap-global="false" inkscape:window-width="1280" inkscape:window-height="721" inkscape:window-x="-4" inkscape:window-y="-4"/>
  <defs id="defs4">
    <inkscape:perspective id="perspective10" inkscape:persp3d-origin="372.04724 : 350.78739 : 1" inkscape:vp_z="744.09448 : 526.18109 : 1" inkscape:vp_y="0 : 1000 : 0" inkscape:vp_x="0 : 526.18109 : 1" sodipodi:type="inkscape:persp3d"/>
    <inkscape:perspective id="perspective3555" inkscape:persp3d-origin="200 : 161.33333 : 1" inkscape:vp_z="400 : 242 : 1" inkscape:vp_y="0 : 1000 : 0" inkscape:vp_x="0 : 242 : 1" sodipodi:type="inkscape:persp3d"/>
  </defs>
  <metadata id="metadata7">
    <rdf:RDF>
      <cc:Work rdf:about="">
        <dc:format>image/svg+xml</dc:format>
        <dc:type rdf:resource="http://purl.org/dc/dcmitype/StillImage"/>
      </cc:Work>
    </rdf:RDF>
  </metadata>
  <g id="layer1" inkscape:groupmode="layer" inkscape:label="Capa 1" transform="translate(-137.90026,1374.7657)">
    <g id="g3762" transform="matrix(6.2488641,0,0,6.2488641,-696.1459,-3476.4564)">
      <path style="fill:none;fill-rule:evenodd;stroke:#000000;stroke-width:2;stroke-linecap:butt;stroke-linejoin:miter;stroke-miterlimit:4;stroke-dasharray:none;stroke-opacity:1" d="M 158.38756,606.39084 L 258.38742,361.41482 L 358.38728,606.39084" id="path3173"/>
      <path sodipodi:type="arc" style="fill:none;fill-opacity:1;fill-rule:evenodd;stroke:#000000;stroke-width:2.85897088;stroke-linecap:butt;stroke-linejoin:miter;marker:none;marker-start:none;marker-mid:none;marker-end:none;stroke-miterlimit:4;stroke-dasharray:none;stroke-dashoffset:0;stroke-opacity:1;visibility:visible;display:inline;overflow:visible;enable-background:accumulate" id="path3177" sodipodi:cx="150" sodipodi:cy="602.36218" sodipodi:rx="100" sodipodi:ry="100" d="M 250,602.36218 A 100,100 0 0 1 50.011105,603.85243" transform="matrix(1.0037556,0,0,0.4875426,107.83685,317.37894)" sodipodi:start="0" sodipodi:end="3.1266896" sodipodi:open="true"/>
      <path sodipodi:type="arc" style="fill:none;fill-opacity:1;fill-rule:evenodd;stroke:#000000;stroke-width:2.85897088;stroke-linecap:butt;stroke-linejoin:miter;marker:none;marker-start:none;marker-mid:none;marker-end:none;stroke-miterlimit:4;stroke-dasharray:8.57691242, 8.57691242;stroke-dashoffset:0;stroke-opacity:1;visibility:visible;display:inline;overflow:visible;enable-background:accumulate" id="path3179" sodipodi:cx="150" sodipodi:cy="602.36218" sodipodi:rx="100" sodipodi:ry="100" d="M 250,602.36218 A 100,100 0 0 1 50.011105,603.85243" transform="matrix(1.0037556,0,0,-0.4875426,108.20126,905.83124)" sodipodi:start="0" sodipodi:end="3.1266896" sodipodi:open="true"/>
      <path id="text3197" d="M 287.19963,406.8532 C 286.20743,406.8532 285.25626,406.65789 284.34611,406.26727 C 283.43595,405.87664 282.62931,405.31414 281.92619,404.57977 C 281.23088,403.84539 280.67619,402.94891 280.26213,401.89031 C 279.84806,400.83172 279.64103,399.63837 279.64103,398.31023 C 279.64103,396.98212 279.84416,395.77704 280.25041,394.695 C 280.65666,393.61298 281.21916,392.68134 281.93791,391.90008 C 282.64884,391.12666 283.48869,390.529 284.45744,390.10711 C 285.42618,389.68525 286.46134,389.47431 287.56291,389.4743 C 288.38321,389.47431 289.1254,389.57588 289.78947,389.77898 C 290.45352,389.98213 291.08633,390.26728 291.68791,390.63445 L 292.16838,389.83758 L 293.10588,389.83758 L 293.21135,395.76727 L 292.25041,395.76727 C 292.1254,395.18915 291.9379,394.5622 291.68791,393.88641 C 291.4379,393.21064 291.14493,392.63837 290.809,392.16961 C 290.43399,391.63837 289.98868,391.22236 289.47307,390.92156 C 288.95743,390.6208 288.36759,390.47041 287.70353,390.47039 C 286.94571,390.47041 286.24064,390.63838 285.5883,390.9743 C 284.93595,391.31025 284.3715,391.80634 283.89494,392.46258 C 283.44181,393.0954 283.08634,393.90009 282.82853,394.87664 C 282.57072,395.85321 282.44181,396.94306 282.44182,398.14617 C 282.44181,399.20868 282.57658,400.18329 282.84611,401.07 C 283.11564,401.95672 283.5004,402.73602 284.00041,403.40789 C 284.5004,404.07196 285.0922,404.59149 285.7758,404.96648 C 286.45939,405.34149 287.22306,405.52899 288.06682,405.52898 C 288.69962,405.52899 289.28165,405.42938 289.81291,405.23016 C 290.34415,405.03094 290.80509,404.76727 291.19572,404.43914 C 291.58633,404.09539 291.93008,403.70477 292.22697,403.26727 C 292.52383,402.82977 292.76602,402.35321 292.95353,401.83758 L 293.83244,402.25945 C 293.16055,403.90789 292.26993,405.08563 291.16057,405.79266 C 290.05118,406.49969 288.73087,406.8532 287.19963,406.8532 L 287.19963,406.8532 z M 300.60588,406.46648 L 295.01603,406.46648 L 295.01603,405.69305 C 295.19572,405.67742 295.38127,405.6618 295.57268,405.64617 C 295.76408,405.63055 295.9301,405.5993 296.07072,405.55242 C 296.28947,405.48211 296.45158,405.35906 296.55705,405.18328 C 296.66252,405.0075 296.71525,404.77899 296.71525,404.49773 L 296.71525,397.36102 C 296.71525,397.11103 296.65861,396.88251 296.54533,396.67547 C 296.43205,396.46845 296.27385,396.29462 296.07072,396.15398 C 295.92228,396.06025 295.70744,395.98017 295.42619,395.91375 C 295.14494,395.84735 294.88713,395.80634 294.65275,395.7907 L 294.65275,395.02898 L 298.73088,394.77117 L 298.89494,394.93523 L 298.89494,404.35711 C 298.89494,404.63055 298.94767,404.85711 299.05314,405.0368 C 299.15861,405.21649 299.32462,405.3493 299.55119,405.43523 C 299.72306,405.50555 299.89103,405.56219 300.0551,405.60516 C 300.21915,405.64813 300.40275,405.67742 300.60588,405.69305 L 300.60588,406.46648 z M 300.14885,389.35711 C 300.14884,389.654 300.08048,389.89619 299.94377,390.08367 C 299.80704,390.27119 299.60587,390.47041 299.34025,390.68133 C 298.94962,390.99384 298.43986,391.39228 297.81096,391.87664 C 297.18205,392.36103 296.50431,392.88837 295.77775,393.45867 L 295.33244,393.08367 C 296.03556,392.04462 296.5258,391.3122 296.80314,390.88641 C 297.08048,390.46064 297.37931,389.98994 297.69963,389.4743 C 297.94181,389.07588 298.17619,388.80439 298.40275,388.65984 C 298.62931,388.51533 298.89103,388.44307 299.18791,388.44305 C 299.46915,388.44307 299.69962,388.53877 299.87932,388.73016 C 300.059,388.92158 300.14884,389.13056 300.14885,389.35711 L 300.14885,389.35711 z M 310.8715,396.40008 C 310.87149,396.79853 310.77384,397.15204 310.57853,397.46063 C 310.38321,397.76923 310.08243,397.92352 309.67619,397.92352 C 309.23868,397.92352 308.9047,397.81024 308.67424,397.58367 C 308.44376,397.35712 308.32853,397.10712 308.32853,396.83367 C 308.32853,396.66181 308.3422,396.50556 308.36955,396.36492 C 308.39689,396.22431 308.42228,396.08368 308.44572,395.94305 C 308.07853,395.94306 307.64884,396.09149 307.15666,396.38836 C 306.66447,396.68524 306.2465,397.10712 305.90275,397.65398 L 305.90275,404.38055 C 305.90275,404.65399 305.95548,404.87664 306.06096,405.04852 C 306.16642,405.22039 306.33244,405.3493 306.559,405.43523 C 306.75431,405.51336 307.00626,405.57195 307.31486,405.61102 C 307.62345,405.65008 307.89103,405.67742 308.1176,405.69305 L 308.1176,406.46648 L 302.02385,406.46648 L 302.02385,405.69305 C 302.20353,405.67742 302.38908,405.6618 302.58049,405.64617 C 302.77189,405.63055 302.93791,405.5993 303.07853,405.55242 C 303.29728,405.48211 303.45939,405.35906 303.56486,405.18328 C 303.67033,405.0075 303.72306,404.77899 303.72307,404.49773 L 303.72307,397.36102 C 303.72306,397.11884 303.66642,396.88056 303.55314,396.64617 C 303.43986,396.41181 303.28166,396.22431 303.07853,396.08367 C 302.9301,395.98993 302.75431,395.92157 302.55119,395.87859 C 302.34806,395.83564 302.12932,395.80634 301.89494,395.7907 L 301.89494,395.02898 L 305.73869,394.77117 L 305.90275,394.93523 L 305.90275,396.56414 L 305.96135,396.56414 C 306.44572,395.93134 306.98478,395.45087 307.57853,395.12273 C 308.17228,394.79462 308.71525,394.63056 309.20744,394.63055 C 309.69962,394.63056 310.10001,394.79072 310.40861,395.11102 C 310.7172,395.43134 310.87149,395.86103 310.8715,396.40008 L 310.8715,396.40008 z M 317.21135,406.77117 C 315.53947,406.77117 314.23088,406.21648 313.28557,405.10711 C 312.34025,403.99774 311.8676,402.50946 311.8676,400.64227 C 311.8676,399.82977 311.99455,399.07001 312.24846,398.36297 C 312.50236,397.65595 312.8715,397.01337 313.35588,396.43523 C 313.81681,395.88056 314.39494,395.43329 315.09025,395.09344 C 315.78556,394.75361 316.54337,394.58368 317.36369,394.58367 C 318.4965,394.58368 319.41837,394.85517 320.12932,395.39813 C 320.84024,395.9411 321.19571,396.68134 321.19572,397.61883 C 321.19571,398.00946 321.10196,398.35516 320.91447,398.65594 C 320.72696,398.95673 320.41837,399.10712 319.98869,399.10711 C 319.52774,399.10712 319.17032,398.98993 318.91643,398.75555 C 318.66251,398.52118 318.53556,398.25946 318.53557,397.97039 C 318.53556,397.61884 318.58243,397.25751 318.67619,396.88641 C 318.76993,396.51532 318.82462,396.24384 318.84025,396.07195 C 318.69962,395.82978 318.49064,395.66767 318.2133,395.58563 C 317.93595,395.5036 317.63712,395.46259 317.31682,395.46258 C 316.94181,395.46259 316.58439,395.54267 316.24455,395.70281 C 315.9047,395.86298 315.57462,396.1579 315.25432,396.58758 C 314.96525,396.97821 314.73087,397.50556 314.55119,398.16961 C 314.3715,398.83368 314.28166,399.62665 314.28166,400.54852 C 314.28166,402.00165 314.60392,403.18719 315.24846,404.10516 C 315.89298,405.02313 316.73869,405.48211 317.78557,405.48211 C 318.54337,405.48211 319.17814,405.29852 319.68986,404.93133 C 320.20157,404.56414 320.67618,404.01336 321.11369,403.27898 L 321.86369,403.77117 C 321.34806,404.69305 320.66837,405.42352 319.82463,405.96258 C 318.98087,406.50164 318.10978,406.77117 317.21135,406.77117 L 317.21135,406.77117 z M 335.17619,406.25555 L 331.41447,406.51336 L 331.23869,406.3493 L 331.23869,404.88445 L 331.16838,404.88445 C 330.98087,405.07977 330.76993,405.28875 330.53557,405.51141 C 330.30118,405.73406 330.03165,405.93524 329.72697,406.11492 C 329.3754,406.32586 329.03556,406.48602 328.70744,406.59539 C 328.37931,406.70477 327.91447,406.75945 327.31291,406.75945 C 326.28947,406.75945 325.51017,406.42547 324.97502,405.7575 C 324.43986,405.08953 324.17228,404.11883 324.17228,402.84539 L 324.17228,397.31414 C 324.17228,397.0329 324.11955,396.79657 324.01408,396.60516 C 323.90861,396.41376 323.75431,396.24774 323.55119,396.10711 C 323.41056,396.01337 323.23478,395.94501 323.02385,395.90203 C 322.81291,395.85907 322.59025,395.82978 322.35588,395.81414 L 322.35588,395.05242 L 326.21135,394.77117 L 326.38713,394.93523 L 326.38713,402.96258 C 326.38712,403.79852 326.57462,404.42742 326.94963,404.8493 C 327.32462,405.27117 327.77384,405.48211 328.29728,405.48211 C 328.72697,405.48211 329.10978,405.4157 329.44572,405.28289 C 329.78165,405.15008 330.0629,404.99383 330.28947,404.81414 C 330.5004,404.65008 330.68595,404.47625 330.84611,404.29266 C 331.00626,404.10907 331.12931,403.93914 331.21525,403.78289 L 331.21525,397.23211 C 331.21524,396.97431 331.16056,396.74579 331.05119,396.54656 C 330.94181,396.34735 330.78946,396.17743 330.59416,396.0368 C 330.45353,395.94306 330.24454,395.88642 329.96721,395.86688 C 329.68986,395.84735 329.37931,395.82978 329.03557,395.81414 L 329.03557,395.05242 L 333.23088,394.77117 L 333.40666,394.93523 L 333.40666,404.11102 C 333.40665,404.37664 333.46134,404.60321 333.57072,404.7907 C 333.68009,404.9782 333.83243,405.13836 334.02775,405.27117 C 334.16837,405.35711 334.33633,405.41375 334.53166,405.44109 C 334.72696,405.46844 334.9418,405.48602 335.17619,405.49383 L 335.17619,406.25555 z M 342.03166,406.46648 L 336.39494,406.46648 L 336.39494,405.69305 C 336.57463,405.67742 336.76603,405.65984 336.96916,405.64031 C 337.17228,405.62078 337.34025,405.59149 337.47307,405.55242 C 337.69181,405.48211 337.85588,405.35906 337.96525,405.18328 C 338.07463,405.0075 338.12931,404.77899 338.12932,404.49773 L 338.12932,391.11492 C 338.12931,390.83369 338.06877,390.57002 337.94768,390.32391 C 337.82658,390.07783 337.66838,389.88447 337.47307,389.74383 C 337.33244,389.6501 337.07463,389.56416 336.69963,389.48602 C 336.32463,389.40791 336.02385,389.36103 335.79728,389.34539 L 335.79728,388.59539 L 340.14494,388.32586 L 340.309,388.50164 L 340.309,404.35711 C 340.309,404.63055 340.35978,404.85516 340.46135,405.03094 C 340.5629,405.20672 340.72697,405.34149 340.95353,405.43523 C 341.1254,405.51336 341.29533,405.57195 341.4633,405.61102 C 341.63126,405.65008 341.82072,405.67742 342.03166,405.69305 L 342.03166,406.46648 z M 354.76994,400.57195 C 354.76993,401.38446 354.64102,402.18329 354.38322,402.96844 C 354.1254,403.7536 353.75821,404.41961 353.28166,404.96648 C 352.74259,405.59149 352.11759,406.05633 351.40666,406.36102 C 350.69571,406.6657 349.89884,406.81805 349.01603,406.81805 C 348.28165,406.81805 347.58244,406.67938 346.91838,406.40203 C 346.25431,406.12469 345.66447,405.72039 345.14885,405.18914 C 344.64103,404.66571 344.23674,404.02703 343.93596,403.27313 C 343.63517,402.51922 343.48478,401.67352 343.48478,400.73602 C 343.48478,398.93134 344.01017,397.45477 345.06096,396.30633 C 346.11173,395.1579 347.48869,394.58368 349.19182,394.58367 C 350.809,394.58368 352.14298,395.12861 353.19377,396.21844 C 354.24454,397.30829 354.76993,398.75946 354.76994,400.57195 L 354.76994,400.57195 z M 352.34416,400.59539 C 352.34415,400.00946 352.28556,399.39032 352.16838,398.73797 C 352.05118,398.08563 351.8754,397.5329 351.64103,397.07977 C 351.39103,396.5954 351.0629,396.20673 350.65666,395.91375 C 350.2504,395.62079 349.75431,395.47431 349.16838,395.4743 C 348.56681,395.47431 348.05314,395.62275 347.62736,395.91961 C 347.20158,396.21649 346.85587,396.62274 346.59025,397.13836 C 346.34025,397.61493 346.16447,398.1579 346.06291,398.76727 C 345.96134,399.37665 345.91056,399.96649 345.91057,400.5368 C 345.91056,401.2868 345.97111,401.98016 346.09221,402.61688 C 346.2133,403.2536 346.40666,403.82196 346.67228,404.32195 C 346.93791,404.82195 347.27189,405.21453 347.67424,405.49969 C 348.07658,405.78484 348.57462,405.92742 349.16838,405.92742 C 350.14493,405.92742 350.91837,405.45477 351.48869,404.50945 C 352.05899,403.56414 352.34415,402.25946 352.34416,400.59539 L 352.34416,400.59539 z" style="font-size:24px;font-style:normal;font-variant:normal;font-weight:normal;font-stretch:normal;text-align:start;line-height:100%;writing-mode:lr-tb;text-anchor:start;fill:#aa0000;fill-opacity:1;stroke:none;stroke-width:1px;stroke-linecap:butt;stroke-linejoin:miter;stroke-opacity:1;font-family:Georgia;-inkscape-font-specification:Georgia"/>
      <path id="path3221" d="M 208.46687,484.7054 C 214.29391,469.17447 237.08669,448.84167 259.34361,439.31969 C 274.7793,432.71597 285.84765,432.6492 289.41301,439.13831" style="fill:#b3ff80;fill-opacity:1;fill-rule:evenodd;stroke:#000000;stroke-width:1.39570594;stroke-linecap:butt;stroke-linejoin:miter;marker:none;marker-start:none;marker-mid:none;marker-end:none;stroke-miterlimit:4;stroke-dasharray:4.18711782, 4.18711782;stroke-dashoffset:0;stroke-opacity:1;visibility:visible;display:inline;overflow:visible;enable-background:accumulate"/>
      <path id="text3223" d="M 314.41401,439.64986 L 314.09761,444.5483 L 300.29292,444.5483 L 300.29292,443.71627 C 300.52729,443.70065 300.83979,443.66744 301.23042,443.61666 C 301.62104,443.56588 301.87495,443.51315 301.99214,443.45846 C 302.24214,443.34127 302.41596,443.18893 302.51362,443.00143 C 302.61128,442.81393 302.6601,442.57565 302.66011,442.28658 L 302.66011,430.33346 C 302.6601,430.07566 302.61714,429.84715 302.5312,429.64791 C 302.44526,429.44871 302.26557,429.2866 301.99214,429.16158 C 301.7812,429.06004 301.498,428.97019 301.14253,428.89205 C 300.78706,428.81394 300.50386,428.76707 300.29292,428.75143 L 300.29292,427.9194 L 313.16011,427.9194 L 313.16011,431.92721 L 312.2812,431.92721 C 312.12494,431.33347 311.78705,430.70261 311.26753,430.03463 C 310.74799,429.36668 310.25385,429.00144 309.78511,428.93893 C 309.54291,428.90769 309.25385,428.88426 308.91792,428.86861 C 308.58197,428.85301 308.19916,428.84519 307.76948,428.84518 L 305.1562,428.84518 L 305.1562,435.45455 L 307.0312,435.45455 C 307.63276,435.45456 308.07221,435.39792 308.34956,435.28463 C 308.6269,435.17136 308.87104,434.98191 309.08198,434.71627 C 309.25385,434.48972 309.40033,434.18698 309.52144,433.80807 C 309.64252,433.42917 309.7226,433.07175 309.76167,432.7358 L 310.64058,432.7358 L 310.64058,439.23971 L 309.76167,439.23971 C 309.73041,438.86471 309.64643,438.46823 309.50972,438.05026 C 309.37299,437.63229 309.23041,437.32956 309.08198,437.14205 C 308.83979,436.83737 308.5644,436.63815 308.25581,436.5444 C 307.94721,436.45065 307.53901,436.40378 307.0312,436.40377 L 305.1562,436.40377 L 305.1562,441.39596 C 305.1562,441.89596 305.19135,442.29049 305.26167,442.57955 C 305.33198,442.86862 305.4687,443.08737 305.67183,443.2358 C 305.87495,443.38424 306.15229,443.47994 306.50386,443.52291 C 306.85541,443.56588 307.35541,443.58737 308.00386,443.58736 C 308.26166,443.58737 308.60151,443.58737 309.02339,443.58736 C 309.44525,443.58737 309.80072,443.57174 310.0898,443.54049 C 310.38666,443.50924 310.6933,443.4526 311.00972,443.37057 C 311.32611,443.28854 311.55072,443.17721 311.68355,443.03658 C 312.04291,442.66159 312.41986,442.09323 312.81441,441.33151 C 313.20892,440.56979 313.46088,440.00924 313.57026,439.64986 L 314.41401,439.64986 z M 321.24605,444.5483 L 315.60933,444.5483 L 315.60933,443.77486 C 315.78901,443.75924 315.98042,443.74166 316.18355,443.72213 C 316.38667,443.7026 316.55464,443.6733 316.68745,443.63424 C 316.9062,443.56393 317.07026,443.44088 317.17964,443.2651 C 317.28901,443.08932 317.3437,442.8608 317.3437,442.57955 L 317.3437,429.19674 C 317.3437,428.91551 317.28315,428.65183 317.16206,428.40572 C 317.04097,428.15965 316.88276,427.96629 316.68745,427.82565 C 316.54683,427.73191 316.28901,427.64598 315.91401,427.56783 C 315.53901,427.48973 315.23823,427.44285 315.01167,427.42721 L 315.01167,426.67721 L 319.35933,426.40768 L 319.52339,426.58346 L 319.52339,442.43893 C 319.52338,442.71237 319.57417,442.93698 319.67573,443.11276 C 319.77729,443.28854 319.94135,443.4233 320.16792,443.51705 C 320.33979,443.59518 320.50971,443.65377 320.67769,443.69283 C 320.84565,443.7319 321.0351,443.75924 321.24605,443.77486 L 321.24605,444.5483 z M 328.33589,444.5483 L 322.74605,444.5483 L 322.74605,443.77486 C 322.92573,443.75924 323.11128,443.74362 323.30269,443.72799 C 323.49409,443.71237 323.66011,443.68112 323.80073,443.63424 C 324.01948,443.56393 324.18159,443.44088 324.28706,443.2651 C 324.39253,443.08932 324.44526,442.8608 324.44526,442.57955 L 324.44526,435.44283 C 324.44526,435.19284 324.38862,434.96433 324.27534,434.75729 C 324.16206,434.55027 324.00386,434.37644 323.80073,434.2358 C 323.65229,434.14206 323.43745,434.06198 323.1562,433.99557 C 322.87495,433.92917 322.61714,433.88816 322.38276,433.87252 L 322.38276,433.1108 L 326.46089,432.85299 L 326.62495,433.01705 L 326.62495,442.43893 C 326.62495,442.71237 326.67768,442.93893 326.78316,443.11861 C 326.88862,443.2983 327.05463,443.43112 327.2812,443.51705 C 327.45307,443.58737 327.62104,443.64401 327.78511,443.68697 C 327.94916,443.72994 328.13276,443.75924 328.33589,443.77486 L 328.33589,444.5483 z M 326.85933,428.2944 C 326.85932,428.73972 326.71284,429.1284 326.41987,429.46041 C 326.1269,429.79246 325.76557,429.95847 325.33589,429.95846 C 324.93745,429.95847 324.59175,429.80027 324.29878,429.48385 C 324.00581,429.16746 323.85932,428.80613 323.85933,428.39986 C 323.85932,427.97019 324.00581,427.59519 324.29878,427.27486 C 324.59175,426.95457 324.93745,426.79441 325.33589,426.7944 C 325.7812,426.79441 326.14643,426.9448 326.43159,427.24557 C 326.71674,427.54637 326.85932,427.89598 326.85933,428.2944 L 326.85933,428.2944 z M 340.31245,434.36471 C 340.77338,434.91159 341.1308,435.54636 341.38472,436.26901 C 341.63861,436.99167 341.76556,437.81784 341.76558,438.74752 C 341.76556,439.66159 341.61322,440.49557 341.30855,441.24947 C 341.00385,442.00338 340.6015,442.64596 340.10151,443.17721 C 339.57807,443.71627 338.99604,444.13033 338.35542,444.4194 C 337.71479,444.70846 337.0351,444.85299 336.31636,444.85299 C 335.62104,444.85299 335.05073,444.77486 334.60542,444.61861 C 334.1601,444.46236 333.79682,444.27877 333.51558,444.06783 L 333.42183,444.06783 L 333.42183,447.53658 C 333.42182,447.81783 333.47651,448.0522 333.58589,448.23971 C 333.69526,448.4272 333.86323,448.56392 334.0898,448.64986 C 334.27729,448.72017 334.54487,448.78853 334.89253,448.85494 C 335.24018,448.92134 335.52729,448.95845 335.75386,448.96627 L 335.75386,449.75143 L 329.29683,449.75143 L 329.29683,448.96627 C 329.53901,448.95064 329.77339,448.93111 329.99995,448.90768 C 330.22651,448.88424 330.42964,448.84517 330.60933,448.79049 C 330.8437,448.71236 331.00776,448.57564 331.10151,448.38033 C 331.19526,448.18502 331.24214,447.95455 331.24214,447.68893 L 331.24214,435.39596 C 331.24214,435.16159 331.18354,434.93503 331.06636,434.71627 C 330.94917,434.49753 330.79683,434.32175 330.60933,434.18893 C 330.4687,434.09519 330.27339,434.02292 330.02339,433.97213 C 329.77339,433.92136 329.5312,433.88816 329.29683,433.87252 L 329.29683,433.1108 L 333.23433,432.85299 L 333.39839,432.99361 L 333.39839,434.2944 L 333.49214,434.31783 C 333.89838,433.84909 334.40229,433.45847 335.00386,433.14596 C 335.60541,432.83347 336.20307,432.67722 336.79683,432.67721 C 337.51557,432.67722 338.17377,432.82956 338.77144,433.13424 C 339.36908,433.43894 339.88275,433.84909 340.31245,434.36471 L 340.31245,434.36471 z M 338.4023,442.6733 C 338.71479,442.18893 338.94525,441.62643 339.0937,440.9858 C 339.24213,440.34518 339.31635,439.63034 339.31636,438.84127 C 339.31635,438.26315 339.25385,437.67331 339.12886,437.07174 C 339.00385,436.47019 338.80854,435.94675 338.54292,435.50143 C 338.27729,435.04831 337.92963,434.68112 337.49995,434.39986 C 337.07026,434.11863 336.55463,433.978 335.95308,433.97799 C 335.37495,433.978 334.88276,434.10495 334.47651,434.35885 C 334.07026,434.61277 333.7187,434.9155 333.42183,435.26705 L 333.42183,442.09908 C 333.49213,442.31002 333.60737,442.52877 333.76753,442.75533 C 333.92768,442.9819 334.10542,443.17721 334.30073,443.34127 C 334.54292,443.53658 334.80463,443.69479 335.08589,443.81588 C 335.36713,443.93697 335.71088,443.99752 336.11714,443.99752 C 336.55463,443.99752 336.97651,443.88229 337.38276,443.65182 C 337.78901,443.42135 338.12885,443.09518 338.4023,442.6733 L 338.4023,442.6733 z M 351.11714,438.88815 C 351.43744,439.1694 351.68354,439.49362 351.85542,439.8608 C 352.02729,440.22799 352.11322,440.67721 352.11323,441.20846 C 352.11322,442.27877 351.71283,443.15377 350.91206,443.83346 C 350.11127,444.51315 349.07416,444.85299 347.80073,444.85299 C 347.12885,444.85299 346.50971,444.7319 345.94331,444.48971 C 345.3769,444.24752 344.97261,444.02487 344.73042,443.82174 L 344.49605,444.58346 L 343.61714,444.58346 L 343.49995,440.56393 L 344.30855,440.56393 C 344.37104,440.86862 344.50386,441.22409 344.70698,441.63033 C 344.91011,442.03659 345.1562,442.40377 345.44526,442.7319 C 345.74995,443.07565 346.11518,443.36471 346.54097,443.59908 C 346.96674,443.83346 347.44526,443.95065 347.97651,443.95065 C 348.72651,443.95065 349.30463,443.78072 349.71089,443.44088 C 350.11713,443.10104 350.32026,442.61471 350.32026,441.9819 C 350.32026,441.65377 350.2558,441.37057 350.12691,441.13229 C 349.99799,440.89401 349.80854,440.68502 349.55855,440.50533 C 349.30073,440.32565 348.98432,440.16354 348.60933,440.01901 C 348.23432,439.87448 347.81635,439.7319 347.35542,439.59127 C 346.98823,439.4819 346.58003,439.33151 346.13081,439.1401 C 345.68159,438.9487 345.29682,438.72409 344.97651,438.46627 C 344.63276,438.19284 344.35151,437.8569 344.13276,437.45846 C 343.91401,437.06003 343.80464,436.59128 343.80464,436.05221 C 343.80464,435.10691 344.1562,434.30612 344.85933,433.64986 C 345.56245,432.99363 346.50385,432.6655 347.68355,432.66549 C 348.13667,432.6655 348.59956,432.7241 349.07222,432.84127 C 349.54487,432.95847 349.92963,433.09909 350.22651,433.26315 L 350.49605,432.65377 L 351.3398,432.65377 L 351.51558,436.36861 L 350.70698,436.36861 C 350.54291,435.5405 350.1894,434.86667 349.64644,434.34713 C 349.10346,433.82761 348.44135,433.56784 347.66011,433.56783 C 347.01948,433.56784 346.51557,433.728 346.14839,434.0483 C 345.7812,434.36862 345.59761,434.75534 345.59761,435.20846 C 345.59761,435.56003 345.65815,435.853 345.77925,436.08736 C 345.90034,436.32175 346.08198,436.52097 346.32417,436.68502 C 346.55854,436.84128 346.85346,436.98776 347.20894,437.12447 C 347.5644,437.2612 348.00385,437.4155 348.5273,437.58736 C 349.04291,437.75143 349.52924,437.94284 349.98628,438.16158 C 350.4433,438.38034 350.82026,438.62253 351.11714,438.88815 L 351.11714,438.88815 z M 364.11323,441.82955 C 363.62885,442.75143 362.98041,443.4858 362.16792,444.03268 C 361.35541,444.57955 360.42182,444.85299 359.36714,444.85299 C 358.43745,444.85299 357.62299,444.68893 356.92378,444.3608 C 356.22456,444.03268 355.64839,443.58737 355.19526,443.02486 C 354.74214,442.46237 354.40425,441.80612 354.18159,441.05611 C 353.95894,440.30612 353.84761,439.51315 353.84761,438.67721 C 353.84761,437.92722 353.96675,437.19089 354.20503,436.46822 C 354.44331,435.74558 354.79292,435.09519 355.25386,434.51705 C 355.69917,433.96238 356.2519,433.51511 356.91206,433.17526 C 357.57221,432.83542 358.31245,432.6655 359.13276,432.66549 C 359.97651,432.6655 360.69916,432.79831 361.30073,433.06393 C 361.90229,433.32956 362.39057,433.69284 362.76558,434.15377 C 363.12494,434.59128 363.39252,435.10691 363.56831,435.70065 C 363.74408,436.2944 363.83197,436.93893 363.83198,437.63424 L 363.83198,438.40768 L 356.17964,438.40768 C 356.17964,439.1655 356.2519,439.85299 356.39644,440.47018 C 356.54096,441.08737 356.76948,441.63034 357.08198,442.09908 C 357.38667,442.55221 357.7851,442.90963 358.2773,443.17135 C 358.76948,443.43307 359.35541,443.56393 360.03511,443.56393 C 360.73041,443.56393 361.33002,443.40182 361.83394,443.0776 C 362.33783,442.75338 362.82416,442.1694 363.29292,441.32565 L 364.11323,441.82955 z M 361.52339,437.4233 C 361.52338,436.98581 361.48627,436.51706 361.41206,436.01705 C 361.33783,435.51706 361.21869,435.09909 361.05464,434.76315 C 360.87494,434.40378 360.62885,434.11081 360.31636,433.88424 C 360.00385,433.65769 359.60151,433.54441 359.10933,433.5444 C 358.28901,433.54441 357.60737,433.8862 357.06441,434.56979 C 356.52143,435.25339 356.22651,436.20456 356.17964,437.4233 L 361.52339,437.4233 z" style="font-size:24px;font-style:normal;font-variant:normal;font-weight:normal;font-stretch:normal;text-align:start;line-height:100%;writing-mode:lr-tb;text-anchor:start;fill:#338000;fill-opacity:1;stroke:none;stroke-width:1px;stroke-linecap:butt;stroke-linejoin:miter;stroke-opacity:1;font-family:Georgia;-inkscape-font-specification:Georgia"/>
      <path id="rect3546" d="M 187.81943,629.05829 L 326.66821,661.7071 L 366.17328,493.70007 L 227.3245,461.05126 L 187.81943,629.05829 z" style="fill:none"/>
      <path id="path3548" style="fill:#aaaaff;stroke:#000000;stroke-width:1.426;stroke-miterlimit:4;stroke-dasharray:4.278, 4.278;stroke-dashoffset:0" d="M 231.18086,565.10732 C 240.47938,544.20353 292.21098,451.87079 300.11835,465.56676 C 311.55085,485.36843 276.53993,574.66204 248.34858,659.16005" sodipodi:nodetypes="csc"/>
      <path style="fill:#483e37;fill-opacity:1;fill-rule:evenodd;stroke:#6c5d53;stroke-width:1;stroke-linecap:butt;stroke-linejoin:miter;marker:none;marker-start:none;marker-mid:none;marker-end:none;stroke-miterlimit:4;stroke-dasharray:4, 2, 1, 2;stroke-dashoffset:0;stroke-opacity:1;visibility:visible;display:inline;overflow:visible;enable-background:accumulate" d="M 241.51364,610.42006 C 305.33021,455.56359 305.33021,455.56359 305.33021,455.56359" id="path3565"/>
      <path id="path3193" d="M 279.01198,414.57376 C 280.08399,409.00903 271.60885,404.07227 260.09426,403.55419 C 248.57968,403.03612 238.36448,407.13195 237.29248,412.69668 C 237.16661,413.35006 237.1659,413.90791 237.29011,414.56137 L 258.15223,413.63522 L 279.01198,414.57376 z" style="fill:#ff8080;fill-opacity:1;fill-rule:evenodd;stroke:#000000;stroke-width:1.5;stroke-linecap:butt;stroke-linejoin:miter;marker:none;marker-start:none;marker-mid:none;marker-end:none;stroke-miterlimit:4;stroke-dasharray:4.5, 4.5;stroke-dashoffset:0;stroke-opacity:1;visibility:visible;display:inline;overflow:visible;enable-background:accumulate"/>
      <path id="path3213" d="M 284.37632,428.11711 L 285.27073,427.54322 L 285.48059,427.85514 L 284.57495,428.41003 L 284.37632,428.11711 z" style="fill:#000000;fill-opacity:1;fill-rule:evenodd;stroke:none;stroke-width:1.5;stroke-linecap:butt;stroke-linejoin:miter;marker:none;stroke-miterlimit:4;stroke-dasharray:4.5, 1.5;stroke-dashoffset:0;stroke-opacity:1;visibility:visible;display:inline;overflow:visible;enable-background:accumulate"/>
      <path sodipodi:nodetypes="cc" id="path3590" d="M 249.46629,667.366 C 228.50853,549.73465 229.24388,550.24386 229.24388,550.24386" style="fill:#808080;fill-opacity:1;fill-rule:evenodd;stroke:#808080;stroke-width:0.86182743;stroke-linecap:butt;stroke-linejoin:miter;marker:none;marker-start:none;marker-mid:none;marker-end:none;stroke-miterlimit:4;stroke-dasharray:3.44730954, 1.72365477, 0.86182739, 1.72365477;stroke-dashoffset:0;stroke-opacity:1;visibility:visible;display:inline;overflow:visible;enable-background:accumulate"/>
      <path style="fill:#483e37;fill-opacity:1;fill-rule:evenodd;stroke:#6c5d53;stroke-width:1;stroke-linecap:butt;stroke-linejoin:miter;marker:none;marker-start:none;marker-mid:none;marker-end:none;stroke-miterlimit:4;stroke-dasharray:4, 2, 1, 2;stroke-dashoffset:0;stroke-opacity:1;visibility:visible;display:inline;overflow:visible;enable-background:accumulate" d="M 258.40019,611.42745 C 258.40019,341.42745 258.40019,341.42745 258.40019,341.42745" id="path3183"/>
      <path id="path3191" d="M 279.02614,413.40726 C 279.02614,418.99605 269.64056,423.53188 258.07618,423.53188 C 246.5118,423.53188 237.12622,418.99605 237.12622,413.40726 C 237.12622,412.06376 237.57718,410.92319 238.60216,409.67433" style="fill:#ff8080;fill-opacity:1;fill-rule:evenodd;stroke:#000000;stroke-width:1.5;stroke-linecap:butt;stroke-linejoin:miter;marker:none;marker-start:none;marker-mid:none;marker-end:none;stroke-miterlimit:4;stroke-dasharray:none;stroke-dashoffset:0;stroke-opacity:1;visibility:visible;display:inline;overflow:visible;enable-background:accumulate"/>
      <path style="fill:#483e37;fill-rule:evenodd;stroke:#6c5d53;stroke-width:1;stroke-linecap:butt;stroke-linejoin:miter;stroke-miterlimit:4;stroke-dasharray:4, 2, 1, 2;stroke-dashoffset:0;stroke-opacity:1" d="M 138.40019,611.42745 C 378.40019,611.42745 378.40019,611.42745 378.40019,611.42745" id="path3181"/>
      <path id="path3211" d="M 289.26722,438.05678 C 293.986,447.64777 279.66897,468.15947 257.30957,483.84183 C 234.95017,499.52418 212.97368,504.46789 208.2549,494.8769 C 206.84641,492.01412 207.00409,488.62875 208.76338,483.95971" style="fill:#b3ff80;fill-opacity:1;fill-rule:evenodd;stroke:#000000;stroke-width:1.38313067;stroke-linecap:butt;stroke-linejoin:miter;marker:none;marker-start:none;marker-mid:none;marker-end:none;stroke-miterlimit:4;stroke-dashoffset:0;stroke-opacity:1;visibility:visible;display:inline;overflow:visible;enable-background:accumulate"/>
      <path id="text3604" d="M 325.52977,471.51144 C 325.52975,472.37864 325.35983,473.14621 325.02,473.81417 C 324.68015,474.48215 324.20944,475.03488 323.60789,475.47237 C 323.01413,475.90988 322.36179,476.23019 321.65086,476.43331 C 320.93991,476.63644 320.18601,476.73801 319.38914,476.738 L 317.52586,476.738 L 317.52586,481.77706 C 317.52586,482.0505 317.57078,482.29074 317.66063,482.49777 C 317.75046,482.7048 317.93601,482.863 318.21727,482.97237 C 318.35789,483.02706 318.60593,483.07784 318.96141,483.12472 C 319.31687,483.17159 319.64304,483.19894 319.93992,483.20675 L 319.93992,484.03878 L 312.80321,484.03878 L 312.80321,483.20675 C 312.9907,483.19113 313.26219,483.16378 313.61766,483.12472 C 313.97312,483.08566 314.22117,483.03488 314.3618,482.97237 C 314.59617,482.87081 314.76609,482.72238 314.87156,482.52706 C 314.97703,482.33175 315.02976,482.08175 315.02977,481.77706 L 315.02977,469.77706 C 315.02976,469.50364 314.9907,469.25755 314.91258,469.03878 C 314.83445,468.82005 314.65086,468.65598 314.3618,468.54659 C 314.06492,468.44505 313.77,468.37278 313.47703,468.3298 C 313.18406,468.28684 312.93211,468.25755 312.72117,468.24191 L 312.72117,467.40987 L 320.31492,467.40987 C 321.86179,467.40989 323.11765,467.78294 324.0825,468.52902 C 325.04733,469.27512 325.52975,470.26926 325.52977,471.51144 L 325.52977,471.51144 z M 321.96727,474.34737 C 322.23288,473.97238 322.40866,473.58371 322.49461,473.18136 C 322.58054,472.77903 322.62351,472.4177 322.62352,472.09737 C 322.62351,471.65207 322.57077,471.19895 322.46531,470.738 C 322.35984,470.27708 322.17819,469.87473 321.92039,469.53097 C 321.64695,469.1638 321.28757,468.87864 320.84227,468.6755 C 320.39695,468.47239 319.84226,468.37083 319.17821,468.37081 L 317.52586,468.37081 L 317.52586,475.71847 L 318.72117,475.71847 C 319.56492,475.71848 320.25046,475.58762 320.77781,475.32589 C 321.30515,475.06418 321.70163,474.73801 321.96727,474.34737 L 321.96727,474.34737 z M 338.06883,483.82784 C 337.70163,483.96066 337.37937,484.06808 337.10203,484.15011 C 336.82468,484.23214 336.51023,484.27316 336.15867,484.27316 C 335.54929,484.27316 335.06296,484.13058 334.69969,483.84542 C 334.3364,483.56027 334.10398,483.14425 334.00242,482.59737 L 333.93211,482.59737 C 333.42429,483.15988 332.87937,483.58956 332.29735,483.88644 C 331.71531,484.18331 331.01414,484.33175 330.19383,484.33175 C 329.32664,484.33175 328.61375,484.06612 328.05516,483.53487 C 327.49656,483.00363 327.21727,482.30831 327.21727,481.44894 C 327.21727,481.00363 327.27977,480.60519 327.40477,480.25362 C 327.52977,479.90207 327.71727,479.58566 327.96727,479.30441 C 328.16258,479.07004 328.42039,478.86105 328.74071,478.67745 C 329.06101,478.49386 329.3618,478.34738 329.64305,478.238 C 329.99461,478.10519 330.7075,477.8591 331.78172,477.49972 C 332.85593,477.14035 333.58054,476.8591 333.95555,476.65597 L 333.95555,475.49581 C 333.95554,475.39426 333.93406,475.19895 333.8911,474.90987 C 333.84812,474.62082 333.75632,474.34738 333.61571,474.08956 C 333.45945,473.80051 333.23875,473.54856 332.9536,473.3337 C 332.66843,473.11887 332.26414,473.01145 331.74071,473.01144 C 331.38133,473.01145 331.04734,473.07199 330.73875,473.19308 C 330.43015,473.31418 330.21336,473.44114 330.08836,473.57394 C 330.08836,473.7302 330.12547,473.96067 330.19969,474.26534 C 330.2739,474.57004 330.31101,474.85129 330.31102,475.10909 C 330.31101,475.38254 330.18797,475.63254 329.94188,475.85909 C 329.69578,476.08566 329.35398,476.19894 328.91649,476.19894 C 328.52586,476.19894 328.23875,476.06027 328.05516,475.78292 C 327.87156,475.50559 327.77977,475.19504 327.77977,474.85128 C 327.77977,474.49192 327.90672,474.14817 328.16063,473.82003 C 328.41453,473.49192 328.74461,473.19895 329.15086,472.94112 C 329.50242,472.72239 329.9282,472.53684 330.42821,472.38448 C 330.9282,472.23215 331.41648,472.15598 331.89305,472.15597 C 332.54929,472.15598 333.12156,472.2009 333.60985,472.29073 C 334.09812,472.38059 334.54148,472.57395 334.93992,472.87081 C 335.33835,473.15989 335.64109,473.55246 335.84813,474.04855 C 336.05515,474.54465 336.15866,475.18332 336.15867,475.96456 C 336.15866,477.08176 336.14695,478.07199 336.12352,478.93527 C 336.10007,479.79855 336.08835,480.74191 336.08836,481.76534 C 336.08835,482.07003 336.14109,482.31222 336.24656,482.49191 C 336.35202,482.67159 336.51413,482.82394 336.73289,482.94894 C 336.85007,483.01925 337.03562,483.05831 337.28953,483.06612 C 337.54343,483.07394 337.80319,483.07784 338.06883,483.07784 L 338.06883,483.82784 z M 333.97899,477.64034 C 333.31492,477.83566 332.73289,478.02707 332.23289,478.21456 C 331.73289,478.40207 331.26804,478.63644 330.83836,478.91769 C 330.44773,479.18332 330.13914,479.49777 329.91258,479.86105 C 329.68601,480.22433 329.57273,480.65597 329.57274,481.15597 C 329.57273,481.80441 329.74265,482.28097 330.0825,482.58566 C 330.42234,482.89034 330.85398,483.04269 331.37742,483.04269 C 331.93211,483.04269 332.42039,482.90792 332.84227,482.63839 C 333.26414,482.36886 333.6196,482.0505 333.90867,481.68331 L 333.97899,477.64034 z M 348.06492,473.97237 C 348.06491,474.37082 347.96726,474.72434 347.77196,475.03292 C 347.57663,475.34152 347.27585,475.49582 346.86961,475.49581 C 346.4321,475.49582 346.09812,475.38254 345.86766,475.15597 C 345.63718,474.92941 345.52195,474.67942 345.52196,474.40597 C 345.52195,474.2341 345.53562,474.07785 345.56297,473.93722 C 345.59031,473.7966 345.6157,473.65598 345.63914,473.51534 C 345.27195,473.51535 344.84226,473.66379 344.35008,473.96066 C 343.85789,474.25754 343.43992,474.67942 343.09617,475.22628 L 343.09617,481.95284 C 343.09617,482.22628 343.1489,482.44894 343.25438,482.62081 C 343.35984,482.79269 343.52586,482.92159 343.75242,483.00753 C 343.94773,483.08566 344.19968,483.14425 344.50828,483.18331 C 344.81687,483.22238 345.08445,483.24972 345.31102,483.26534 L 345.31102,484.03878 L 339.21727,484.03878 L 339.21727,483.26534 C 339.39695,483.24972 339.5825,483.23409 339.77391,483.21847 C 339.96531,483.20284 340.13133,483.17159 340.27196,483.12472 C 340.4907,483.05441 340.65281,482.93136 340.75828,482.75558 C 340.86375,482.5798 340.91648,482.35128 340.91649,482.07003 L 340.91649,474.93331 C 340.91648,474.69113 340.85984,474.45285 340.74656,474.21847 C 340.63328,473.9841 340.47508,473.7966 340.27196,473.65597 C 340.12352,473.56223 339.94773,473.49387 339.74461,473.45089 C 339.54149,473.40793 339.32274,473.37864 339.08836,473.363 L 339.08836,472.60128 L 342.93211,472.34347 L 343.09617,472.50753 L 343.09617,474.13644 L 343.15477,474.13644 C 343.63914,473.50364 344.1782,473.02317 344.77196,472.69503 C 345.3657,472.36692 345.90867,472.20286 346.40086,472.20284 C 346.89304,472.20286 347.29343,472.36301 347.60203,472.68331 C 347.91062,473.00364 348.06491,473.43332 348.06492,473.97237 L 348.06492,473.97237 z M 360.00633,483.82784 C 359.63913,483.96066 359.31687,484.06808 359.03953,484.15011 C 358.76218,484.23214 358.44773,484.27316 358.09617,484.27316 C 357.48679,484.27316 357.00046,484.13058 356.63719,483.84542 C 356.2739,483.56027 356.04148,483.14425 355.93992,482.59737 L 355.86961,482.59737 C 355.36179,483.15988 354.81687,483.58956 354.23485,483.88644 C 353.65281,484.18331 352.95164,484.33175 352.13133,484.33175 C 351.26414,484.33175 350.55125,484.06612 349.99266,483.53487 C 349.43406,483.00363 349.15477,482.30831 349.15477,481.44894 C 349.15477,481.00363 349.21727,480.60519 349.34227,480.25362 C 349.46727,479.90207 349.65477,479.58566 349.90477,479.30441 C 350.10008,479.07004 350.35789,478.86105 350.67821,478.67745 C 350.99851,478.49386 351.2993,478.34738 351.58055,478.238 C 351.93211,478.10519 352.645,477.8591 353.71922,477.49972 C 354.79343,477.14035 355.51804,476.8591 355.89305,476.65597 L 355.89305,475.49581 C 355.89304,475.39426 355.87156,475.19895 355.8286,474.90987 C 355.78562,474.62082 355.69382,474.34738 355.55321,474.08956 C 355.39695,473.80051 355.17625,473.54856 354.8911,473.3337 C 354.60593,473.11887 354.20164,473.01145 353.67821,473.01144 C 353.31883,473.01145 352.98484,473.07199 352.67625,473.19308 C 352.36765,473.31418 352.15086,473.44114 352.02586,473.57394 C 352.02586,473.7302 352.06297,473.96067 352.13719,474.26534 C 352.2114,474.57004 352.24851,474.85129 352.24852,475.10909 C 352.24851,475.38254 352.12547,475.63254 351.87938,475.85909 C 351.63328,476.08566 351.29148,476.19894 350.85399,476.19894 C 350.46336,476.19894 350.17625,476.06027 349.99266,475.78292 C 349.80906,475.50559 349.71727,475.19504 349.71727,474.85128 C 349.71727,474.49192 349.84422,474.14817 350.09813,473.82003 C 350.35203,473.49192 350.68211,473.19895 351.08836,472.94112 C 351.43992,472.72239 351.8657,472.53684 352.36571,472.38448 C 352.8657,472.23215 353.35398,472.15598 353.83055,472.15597 C 354.48679,472.15598 355.05906,472.2009 355.54735,472.29073 C 356.03562,472.38059 356.47898,472.57395 356.87742,472.87081 C 357.27585,473.15989 357.57859,473.55246 357.78563,474.04855 C 357.99265,474.54465 358.09616,475.18332 358.09617,475.96456 C 358.09616,477.08176 358.08445,478.07199 358.06102,478.93527 C 358.03757,479.79855 358.02585,480.74191 358.02586,481.76534 C 358.02585,482.07003 358.07859,482.31222 358.18406,482.49191 C 358.28952,482.67159 358.45163,482.82394 358.67039,482.94894 C 358.78757,483.01925 358.97312,483.05831 359.22703,483.06612 C 359.48093,483.07394 359.74069,483.07784 360.00633,483.07784 L 360.00633,483.82784 z M 355.91649,477.64034 C 355.25242,477.83566 354.67039,478.02707 354.17039,478.21456 C 353.67039,478.40207 353.20554,478.63644 352.77586,478.91769 C 352.38523,479.18332 352.07664,479.49777 351.85008,479.86105 C 351.62351,480.22433 351.51023,480.65597 351.51024,481.15597 C 351.51023,481.80441 351.68015,482.28097 352.02,482.58566 C 352.35984,482.89034 352.79148,483.04269 353.31492,483.04269 C 353.86961,483.04269 354.35789,482.90792 354.77977,482.63839 C 355.20164,482.36886 355.5571,482.0505 355.84617,481.68331 L 355.91649,477.64034 z M 356.88914,466.92941 C 356.88913,467.2263 356.82077,467.46848 356.68406,467.65597 C 356.54734,467.84348 356.34617,468.0427 356.08055,468.25362 C 355.68992,468.56614 355.18015,468.96458 354.55125,469.44894 C 353.92234,469.93333 353.24461,470.46067 352.51805,471.03097 L 352.07274,470.65597 C 352.77586,469.61692 353.26609,468.8845 353.54344,468.4587 C 353.82078,468.03294 354.11961,467.56223 354.43992,467.04659 C 354.6821,466.64817 354.91648,466.37669 355.14305,466.23214 C 355.3696,466.08763 355.63132,466.01536 355.92821,466.01534 C 356.20945,466.01536 356.43992,466.11106 356.61961,466.30245 C 356.79929,466.49388 356.88913,466.70286 356.88914,466.92941 L 356.88914,466.92941 z M 372.88524,478.24972 C 372.88522,479.9841 372.33835,481.44113 371.24461,482.62081 C 370.15085,483.8005 368.88132,484.39034 367.43602,484.39034 C 366.8032,484.39034 366.18015,484.29269 365.56688,484.09737 C 364.95359,483.90206 364.37742,483.64034 363.83836,483.31222 L 362.97117,484.65987 L 362.24461,484.49581 C 362.28367,483.91769 362.31102,483.22238 362.32664,482.40987 C 362.34227,481.59738 362.35008,480.81222 362.35008,480.05441 L 362.35008,468.61691 C 362.35008,468.3513 362.28953,468.08567 362.16844,467.82003 C 362.04734,467.55442 361.89305,467.36302 361.70555,467.24581 C 361.55711,467.14427 361.30906,467.06809 360.96141,467.0173 C 360.61375,466.96653 360.33446,466.93333 360.12352,466.91769 L 360.12352,466.16769 L 364.36571,465.89816 L 364.52977,466.07394 L 364.52977,473.69112 L 364.6118,473.71456 C 365.09617,473.19895 365.62547,472.81223 366.19969,472.55441 C 366.7739,472.2966 367.33835,472.1677 367.89305,472.16769 C 369.31491,472.1677 370.50241,472.7302 371.45555,473.85519 C 372.40866,474.9802 372.88522,476.44504 372.88524,478.24972 L 372.88524,478.24972 z M 370.43602,478.33175 C 370.43601,477.75363 370.37351,477.16379 370.24852,476.56222 C 370.12351,475.96066 369.9282,475.43723 369.66258,474.99191 C 369.39695,474.53879 369.04929,474.1716 368.61961,473.89034 C 368.18992,473.6091 367.67429,473.46848 367.07274,473.46847 C 366.52586,473.46848 366.04734,473.5759 365.63719,473.79073 C 365.22703,474.00559 364.85789,474.2966 364.52977,474.66378 L 364.52977,481.39034 C 364.57664,481.57785 364.66844,481.7966 364.80516,482.04659 C 364.94187,482.29659 365.12742,482.53488 365.3618,482.76144 C 365.59617,482.98019 365.86179,483.15792 366.15867,483.29464 C 366.45554,483.43136 366.81882,483.49972 367.24852,483.49972 C 368.20163,483.49972 368.97117,483.03878 369.55711,482.11691 C 370.14304,481.19503 370.43601,479.93332 370.43602,478.33175 L 370.43602,478.33175 z M 385.86961,478.14425 C 385.8696,478.95675 385.74069,479.75558 385.48289,480.54073 C 385.22507,481.32589 384.85788,481.99191 384.38133,482.53878 C 383.84226,483.16378 383.21726,483.62862 382.50633,483.93331 C 381.79538,484.238 380.99851,484.39034 380.11571,484.39034 C 379.38132,484.39034 378.68211,484.25167 378.01805,483.97433 C 377.35398,483.69698 376.76414,483.29269 376.24852,482.76144 C 375.7407,482.238 375.33641,481.59933 375.03563,480.84542 C 374.73484,480.09152 374.58445,479.24582 374.58446,478.30831 C 374.58445,476.50363 375.10984,475.02707 376.16063,473.87862 C 377.2114,472.7302 378.58836,472.15598 380.29149,472.15597 C 381.90867,472.15598 383.24265,472.7009 384.29344,473.79073 C 385.34421,474.88059 385.8696,476.33176 385.86961,478.14425 L 385.86961,478.14425 z M 383.44383,478.16769 C 383.44382,477.58176 383.38523,476.96262 383.26805,476.31027 C 383.15085,475.65793 382.97507,475.1052 382.74071,474.65206 C 382.4907,474.1677 382.16257,473.77903 381.75633,473.48605 C 381.35007,473.19309 380.85398,473.0466 380.26805,473.04659 C 379.66648,473.0466 379.15281,473.19504 378.72703,473.49191 C 378.30125,473.78879 377.95554,474.19504 377.68992,474.71066 C 377.43992,475.18723 377.26414,475.7302 377.16258,476.33956 C 377.06101,476.94894 377.01023,477.53879 377.01024,478.10909 C 377.01023,478.8591 377.07078,479.55246 377.19188,480.18917 C 377.31297,480.82589 377.50633,481.39425 377.77196,481.89425 C 378.03758,482.39425 378.37156,482.78683 378.77391,483.07198 C 379.17625,483.35714 379.67429,483.49972 380.26805,483.49972 C 381.2446,483.49972 382.01804,483.02706 382.58836,482.08175 C 383.15866,481.13644 383.44382,479.83175 383.44383,478.16769 L 383.44383,478.16769 z M 392.95946,484.03878 L 387.32274,484.03878 L 387.32274,483.26534 C 387.50242,483.24972 387.69383,483.23214 387.89696,483.21261 C 388.10008,483.19308 388.26805,483.16378 388.40086,483.12472 C 388.61961,483.05441 388.78367,482.93136 388.89305,482.75558 C 389.00242,482.5798 389.05711,482.35128 389.05711,482.07003 L 389.05711,468.68722 C 389.05711,468.40598 388.99656,468.14231 388.87547,467.8962 C 388.75437,467.65013 388.59617,467.45677 388.40086,467.31612 C 388.26023,467.22239 388.00242,467.13645 387.62742,467.05831 C 387.25242,466.9802 386.95164,466.93333 386.72508,466.91769 L 386.72508,466.16769 L 391.07274,465.89816 L 391.2368,466.07394 L 391.2368,481.92941 C 391.23679,482.20285 391.28758,482.42745 391.38914,482.60323 C 391.4907,482.77902 391.65476,482.91378 391.88133,483.00753 C 392.0532,483.08566 392.22312,483.14425 392.3911,483.18331 C 392.55906,483.22238 392.74851,483.24972 392.95946,483.26534 L 392.95946,484.03878 z M 405.38133,483.82784 C 405.01413,483.96066 404.69187,484.06808 404.41453,484.15011 C 404.13718,484.23214 403.82273,484.27316 403.47117,484.27316 C 402.86179,484.27316 402.37546,484.13058 402.01219,483.84542 C 401.6489,483.56027 401.41648,483.14425 401.31492,482.59737 L 401.24461,482.59737 C 400.73679,483.15988 400.19187,483.58956 399.60985,483.88644 C 399.02781,484.18331 398.32664,484.33175 397.50633,484.33175 C 396.63914,484.33175 395.92625,484.06612 395.36766,483.53487 C 394.80906,483.00363 394.52977,482.30831 394.52977,481.44894 C 394.52977,481.00363 394.59227,480.60519 394.71727,480.25362 C 394.84227,479.90207 395.02977,479.58566 395.27977,479.30441 C 395.47508,479.07004 395.73289,478.86105 396.05321,478.67745 C 396.37351,478.49386 396.6743,478.34738 396.95555,478.238 C 397.30711,478.10519 398.02,477.8591 399.09422,477.49972 C 400.16843,477.14035 400.89304,476.8591 401.26805,476.65597 L 401.26805,475.49581 C 401.26804,475.39426 401.24656,475.19895 401.2036,474.90987 C 401.16062,474.62082 401.06882,474.34738 400.92821,474.08956 C 400.77195,473.80051 400.55125,473.54856 400.2661,473.3337 C 399.98093,473.11887 399.57664,473.01145 399.05321,473.01144 C 398.69383,473.01145 398.35984,473.07199 398.05125,473.19308 C 397.74265,473.31418 397.52586,473.44114 397.40086,473.57394 C 397.40086,473.7302 397.43797,473.96067 397.51219,474.26534 C 397.5864,474.57004 397.62351,474.85129 397.62352,475.10909 C 397.62351,475.38254 397.50047,475.63254 397.25438,475.85909 C 397.00828,476.08566 396.66648,476.19894 396.22899,476.19894 C 395.83836,476.19894 395.55125,476.06027 395.36766,475.78292 C 395.18406,475.50559 395.09227,475.19504 395.09227,474.85128 C 395.09227,474.49192 395.21922,474.14817 395.47313,473.82003 C 395.72703,473.49192 396.05711,473.19895 396.46336,472.94112 C 396.81492,472.72239 397.2407,472.53684 397.74071,472.38448 C 398.2407,472.23215 398.72898,472.15598 399.20555,472.15597 C 399.86179,472.15598 400.43406,472.2009 400.92235,472.29073 C 401.41062,472.38059 401.85398,472.57395 402.25242,472.87081 C 402.65085,473.15989 402.95359,473.55246 403.16063,474.04855 C 403.36765,474.54465 403.47116,475.18332 403.47117,475.96456 C 403.47116,477.08176 403.45945,478.07199 403.43602,478.93527 C 403.41257,479.79855 403.40085,480.74191 403.40086,481.76534 C 403.40085,482.07003 403.45359,482.31222 403.55906,482.49191 C 403.66452,482.67159 403.82663,482.82394 404.04539,482.94894 C 404.16257,483.01925 404.34812,483.05831 404.60203,483.06612 C 404.85593,483.07394 405.11569,483.07784 405.38133,483.07784 L 405.38133,483.82784 z M 401.29149,477.64034 C 400.62742,477.83566 400.04539,478.02707 399.54539,478.21456 C 399.04539,478.40207 398.58054,478.63644 398.15086,478.91769 C 397.76023,479.18332 397.45164,479.49777 397.22508,479.86105 C 396.99851,480.22433 396.88523,480.65597 396.88524,481.15597 C 396.88523,481.80441 397.05515,482.28097 397.395,482.58566 C 397.73484,482.89034 398.16648,483.04269 398.68992,483.04269 C 399.24461,483.04269 399.73289,482.90792 400.15477,482.63839 C 400.57664,482.36886 400.9321,482.0505 401.22117,481.68331 L 401.29149,477.64034 z" style="font-size:24px;font-style:normal;font-variant:normal;font-weight:normal;font-stretch:normal;text-align:start;line-height:100%;writing-mode:lr-tb;text-anchor:start;fill:#2c5aa0;fill-opacity:1;stroke:none;stroke-width:1px;stroke-linecap:butt;stroke-linejoin:miter;stroke-opacity:1;font-family:Georgia;-inkscape-font-specification:Georgia"/>
      <path sodipodi:nodetypes="csc" id="path3612" d="M 321.43939,648.42311 C 321.43939,648.42311 336.26134,555.05756 327.96639,532.44329 C 323.54706,520.39499 305.875,569.09492 305.875,569.09492" style="fill:#ff9955;fill-opacity:1;fill-rule:nonzero;stroke:#000000;stroke-width:1.42635667;stroke-linecap:butt;stroke-linejoin:miter;marker:none;marker-start:none;marker-mid:none;marker-end:none;stroke-miterlimit:4;stroke-dasharray:4.27907002, 4.27907002;stroke-dashoffset:0;stroke-opacity:1;visibility:visible;display:inline;overflow:visible;enable-background:accumulate"/>
      <path sodipodi:nodetypes="cs" id="path3608" d="M 321.19423,648.72007 C 321.19423,648.72007 336.01618,555.35452 327.72123,532.74025" style="fill:#ff9955;fill-opacity:1;fill-rule:nonzero;stroke:#000000;stroke-width:1.42635667px;stroke-linecap:butt;stroke-linejoin:miter;marker:none;marker-start:none;marker-mid:none;marker-end:none;stroke-miterlimit:4;stroke-dasharray:none;stroke-dashoffset:0;stroke-opacity:1;visibility:visible;display:inline;overflow:visible;enable-background:accumulate"/>
      <path id="path3610" d="M 313.161,610.56221 C 330.23162,512.15509 330.23162,512.15509 330.23162,512.15509" style="fill:#483e37;fill-opacity:1;fill-rule:evenodd;stroke:#6c5d53;stroke-width:1;stroke-linecap:butt;stroke-linejoin:miter;marker:none;marker-start:none;marker-mid:none;marker-end:none;stroke-miterlimit:4;stroke-dasharray:4, 2, 1, 2;stroke-dashoffset:0;stroke-opacity:1;visibility:visible;display:inline;overflow:visible;enable-background:accumulate"/>
      <path id="text3614" d="M 352.61152,524.20492 L 345.70918,524.20492 L 345.70918,523.37289 C 345.89667,523.35726 346.16815,523.33383 346.52363,523.30257 C 346.87909,523.27133 347.12323,523.22445 347.25606,523.16195 C 347.49042,523.0682 347.66229,522.92562 347.77168,522.73422 C 347.88104,522.54281 347.93573,522.29476 347.93574,521.99007 L 347.93574,516.07211 L 340.11934,516.07211 L 340.11934,521.86117 C 340.11933,522.13461 340.16425,522.36508 340.2541,522.55257 C 340.34394,522.74008 340.52167,522.90414 340.78731,523.04476 C 340.92011,523.11508 341.15644,523.18539 341.49629,523.2557 C 341.83613,523.32601 342.1037,523.36508 342.29902,523.37289 L 342.29902,524.20492 L 335.39668,524.20492 L 335.39668,523.37289 C 335.58418,523.35726 335.85566,523.33383 336.21113,523.30257 C 336.5666,523.27133 336.81074,523.22445 336.94356,523.16195 C 337.17793,523.0682 337.3498,522.92562 337.45918,522.73422 C 337.56855,522.54281 337.62324,522.29476 337.62324,521.99007 L 337.62324,509.99007 C 337.62324,509.74009 337.57246,509.51157 337.4709,509.30453 C 337.36933,509.09751 337.19355,508.9354 336.94356,508.8182 C 336.73262,508.71665 336.47676,508.62681 336.17598,508.54867 C 335.87519,508.47056 335.61543,508.42368 335.39668,508.40804 L 335.39668,507.57601 L 342.29902,507.57601 L 342.29902,508.40804 C 342.08027,508.41587 341.81269,508.45103 341.49629,508.51351 C 341.17988,508.57603 340.94355,508.63462 340.78731,508.68929 C 340.52167,508.78306 340.34394,508.93931 340.2541,509.15804 C 340.16425,509.37681 340.11933,509.61509 340.11934,509.87289 L 340.11934,515.02914 L 347.93574,515.02914 L 347.93574,509.99007 C 347.93573,509.74009 347.88495,509.51157 347.7834,509.30453 C 347.68182,509.09751 347.50604,508.9354 347.25606,508.8182 C 347.04511,508.71665 346.78925,508.62681 346.48848,508.54867 C 346.18768,508.47056 345.92792,508.42368 345.70918,508.40804 L 345.70918,507.57601 L 352.61152,507.57601 L 352.61152,508.40804 C 352.39276,508.41587 352.12518,508.45103 351.80879,508.51351 C 351.49237,508.57603 351.25604,508.63462 351.09981,508.68929 C 350.83416,508.78306 350.65643,508.93931 350.5666,509.15804 C 350.47674,509.37681 350.43182,509.61509 350.43184,509.87289 L 350.43184,521.86117 C 350.43182,522.13461 350.47674,522.36508 350.5666,522.55257 C 350.65643,522.74008 350.83416,522.90414 351.09981,523.04476 C 351.2326,523.11508 351.46893,523.18539 351.80879,523.2557 C 352.14862,523.32601 352.41619,523.36508 352.61152,523.37289 L 352.61152,524.20492 z M 360.25215,524.20492 L 354.66231,524.20492 L 354.66231,523.43148 C 354.84199,523.41586 355.02754,523.40023 355.21895,523.38461 C 355.41035,523.36898 355.57637,523.33773 355.71699,523.29086 C 355.93574,523.22054 356.09785,523.0975 356.20332,522.92172 C 356.30879,522.74594 356.36152,522.51742 356.36152,522.23617 L 356.36152,515.09945 C 356.36152,514.84946 356.30488,514.62094 356.1916,514.4139 C 356.07832,514.20688 355.92012,514.03305 355.71699,513.89242 C 355.56855,513.79868 355.35371,513.7186 355.07246,513.65218 C 354.79121,513.58579 354.5334,513.54477 354.29902,513.52914 L 354.29902,512.76742 L 358.37715,512.50961 L 358.54121,512.67367 L 358.54121,522.09554 C 358.54121,522.36898 358.59394,522.59555 358.69941,522.77523 C 358.80488,522.95492 358.97089,523.08773 359.19746,523.17367 C 359.36933,523.24398 359.5373,523.30062 359.70137,523.34359 C 359.86542,523.38656 360.04902,523.41586 360.25215,523.43148 L 360.25215,524.20492 z M 358.77559,507.95101 C 358.77558,508.39634 358.6291,508.78501 358.33613,509.11703 C 358.04316,509.44907 357.68183,509.61509 357.25215,509.61507 C 356.85371,509.61509 356.50801,509.45689 356.21504,509.14047 C 355.92207,508.82407 355.77558,508.46275 355.77559,508.05648 C 355.77558,507.62681 355.92207,507.25181 356.21504,506.93148 C 356.50801,506.61119 356.85371,506.45103 357.25215,506.45101 C 357.69746,506.45103 358.06269,506.60142 358.34785,506.90218 C 358.633,507.20298 358.77558,507.55259 358.77559,507.95101 L 358.77559,507.95101 z M 372.22871,514.02132 C 372.68964,514.56821 373.04706,515.20297 373.30098,515.92562 C 373.55487,516.64829 373.68182,517.47446 373.68184,518.40414 C 373.68182,519.3182 373.52948,520.15219 373.22481,520.90609 C 372.92011,521.66 372.51776,522.30258 372.01777,522.83382 C 371.49433,523.37289 370.9123,523.78695 370.27168,524.07601 C 369.63105,524.36507 368.95136,524.50961 368.23262,524.50961 C 367.5373,524.50961 366.96699,524.43148 366.52168,524.27523 C 366.07636,524.11898 365.71308,523.93539 365.43184,523.72445 L 365.33809,523.72445 L 365.33809,527.1932 C 365.33808,527.47445 365.39277,527.70882 365.50215,527.89632 C 365.61152,528.08382 365.77949,528.22054 366.00606,528.30648 C 366.19355,528.37679 366.46113,528.44515 366.80879,528.51156 C 367.15644,528.57796 367.44355,528.61507 367.67012,528.62289 L 367.67012,529.40804 L 361.21309,529.40804 L 361.21309,528.62289 C 361.45527,528.60726 361.68965,528.58773 361.91621,528.56429 C 362.14277,528.54085 362.3459,528.50179 362.52559,528.44711 C 362.75996,528.36898 362.92402,528.23226 363.01777,528.03695 C 363.11152,527.84163 363.1584,527.61117 363.1584,527.34554 L 363.1584,515.05257 C 363.1584,514.81821 363.0998,514.59165 362.98262,514.37289 C 362.86543,514.15415 362.71308,513.97837 362.52559,513.84554 C 362.38496,513.7518 362.18965,513.67954 361.93965,513.62875 C 361.68965,513.57798 361.44746,513.54477 361.21309,513.52914 L 361.21309,512.76742 L 365.15059,512.50961 L 365.31465,512.65023 L 365.31465,513.95101 L 365.4084,513.97445 C 365.81464,513.50571 366.31855,513.11509 366.92012,512.80257 C 367.52167,512.49009 368.11933,512.33384 368.71309,512.33382 C 369.43183,512.33384 370.09003,512.48618 370.6877,512.79086 C 371.28534,513.09555 371.79901,513.50571 372.22871,514.02132 L 372.22871,514.02132 z M 370.31856,522.32992 C 370.63105,521.84555 370.86151,521.28305 371.00996,520.64242 C 371.15839,520.0018 371.23261,519.28695 371.23262,518.49789 C 371.23261,517.91977 371.17011,517.32993 371.04512,516.72836 C 370.92011,516.1268 370.7248,515.60336 370.45918,515.15804 C 370.19355,514.70493 369.84589,514.33774 369.41621,514.05648 C 368.98652,513.77524 368.47089,513.63462 367.86934,513.63461 C 367.29121,513.63462 366.79902,513.76157 366.39277,514.01547 C 365.98652,514.26938 365.63496,514.57212 365.33809,514.92367 L 365.33809,521.7557 C 365.40839,521.96664 365.52363,522.18539 365.68379,522.41195 C 365.84394,522.63851 366.02168,522.83383 366.21699,522.99789 C 366.45917,523.1932 366.72089,523.3514 367.00215,523.4725 C 367.28339,523.59359 367.62714,523.65414 368.0334,523.65414 C 368.47089,523.65414 368.89277,523.5389 369.29902,523.30843 C 369.70527,523.07797 370.04511,522.75179 370.31856,522.32992 L 370.31856,522.32992 z M 385.67012,521.48617 C 385.18573,522.40805 384.5373,523.14242 383.72481,523.68929 C 382.9123,524.23617 381.9787,524.50961 380.92402,524.50961 C 379.99433,524.50961 379.17988,524.34554 378.48066,524.01742 C 377.78144,523.68929 377.20527,523.24398 376.75215,522.68148 C 376.29902,522.11898 375.96113,521.46273 375.73848,520.71273 C 375.51582,519.96274 375.40449,519.16977 375.40449,518.33382 C 375.40449,517.58383 375.52363,516.8475 375.76191,516.12484 C 376.00019,515.40219 376.3498,514.7518 376.81074,514.17367 C 377.25605,513.61899 377.80879,513.17173 378.46895,512.83187 C 379.1291,512.49204 379.86933,512.32212 380.68965,512.32211 C 381.53339,512.32212 382.25605,512.45493 382.85762,512.72054 C 383.45917,512.98618 383.94745,513.34946 384.32246,513.81039 C 384.68183,514.2479 384.9494,514.76352 385.1252,515.35726 C 385.30097,515.95102 385.38886,516.59555 385.38887,517.29086 L 385.38887,518.06429 L 377.73652,518.06429 C 377.73652,518.82211 377.80879,519.50961 377.95332,520.12679 C 378.09785,520.74398 378.32636,521.28695 378.63887,521.7557 C 378.94355,522.20883 379.34199,522.56625 379.83418,522.82797 C 380.32636,523.08969 380.9123,523.22054 381.59199,523.22054 C 382.2873,523.22054 382.88691,523.05844 383.39082,522.73422 C 383.89472,522.41 384.38105,521.82601 384.84981,520.98226 L 385.67012,521.48617 z M 383.08027,517.07992 C 383.08027,516.64243 383.04316,516.17368 382.96895,515.67367 C 382.89472,515.17368 382.77558,514.75571 382.61152,514.41976 C 382.43183,514.0604 382.18574,513.76743 381.87324,513.54086 C 381.56074,513.3143 381.15839,513.20102 380.66621,513.20101 C 379.84589,513.20102 379.16425,513.54282 378.62129,514.2264 C 378.07832,514.91001 377.7834,515.86118 377.73652,517.07992 L 383.08027,517.07992 z M 383.51387,507.09554 C 383.51386,507.39244 383.4455,507.63462 383.30879,507.82211 C 383.17206,508.00962 382.97089,508.20884 382.70527,508.41976 C 382.31464,508.73228 381.80488,509.13071 381.17598,509.61507 C 380.54707,510.09946 379.86933,510.62681 379.14277,511.19711 L 378.69746,510.82211 C 379.40058,509.78306 379.89082,509.05064 380.16816,508.62484 C 380.4455,508.19908 380.74433,507.72837 381.06465,507.21273 C 381.30683,506.81431 381.5412,506.54283 381.76777,506.39828 C 381.99433,506.25376 382.25605,506.1815 382.55293,506.18148 C 382.83417,506.1815 383.06464,506.2772 383.24434,506.46859 C 383.42402,506.66001 383.51386,506.869 383.51387,507.09554 L 383.51387,507.09554 z M 395.87715,514.13851 C 395.87714,514.53696 395.77948,514.89047 395.58418,515.19906 C 395.38886,515.50766 395.08808,515.66196 394.68184,515.66195 C 394.24433,515.66196 393.91034,515.54868 393.67988,515.32211 C 393.44941,515.09555 393.33417,514.84555 393.33418,514.57211 C 393.33417,514.40024 393.34785,514.24399 393.3752,514.10336 C 393.40253,513.96274 393.42792,513.82212 393.45137,513.68148 C 393.08417,513.68149 392.65449,513.82993 392.16231,514.12679 C 391.67011,514.42368 391.25214,514.84555 390.9084,515.39242 L 390.9084,522.11898 C 390.90839,522.39242 390.96113,522.61508 391.0666,522.78695 C 391.17207,522.95883 391.33808,523.08773 391.56465,523.17367 C 391.75996,523.25179 392.01191,523.31039 392.32051,523.34945 C 392.6291,523.38851 392.89667,523.41586 393.12324,523.43148 L 393.12324,524.20492 L 387.02949,524.20492 L 387.02949,523.43148 C 387.20918,523.41586 387.39473,523.40023 387.58613,523.38461 C 387.77754,523.36898 387.94355,523.33773 388.08418,523.29086 C 388.30293,523.22054 388.46504,523.0975 388.57051,522.92172 C 388.67597,522.74594 388.72871,522.51742 388.72871,522.23617 L 388.72871,515.09945 C 388.72871,514.85727 388.67207,514.61899 388.55879,514.38461 C 388.44551,514.15024 388.2873,513.96274 388.08418,513.82211 C 387.93574,513.72837 387.75996,513.66001 387.55684,513.61703 C 387.35371,513.57407 387.13496,513.54477 386.90059,513.52914 L 386.90059,512.76742 L 390.74434,512.50961 L 390.9084,512.67367 L 390.9084,514.30257 L 390.96699,514.30257 C 391.45136,513.66977 391.99042,513.1893 392.58418,512.86117 C 393.17792,512.53306 393.72089,512.36899 394.21309,512.36898 C 394.70527,512.36899 395.10566,512.52915 395.41426,512.84945 C 395.72284,513.16977 395.87714,513.59946 395.87715,514.13851 L 395.87715,514.13851 z M 408.60371,518.41586 C 408.6037,520.15023 408.05682,521.60726 406.96309,522.78695 C 405.86933,523.96664 404.5998,524.55648 403.15449,524.55648 C 402.52167,524.55648 401.89863,524.45882 401.28535,524.26351 C 400.67207,524.0682 400.0959,523.80648 399.55684,523.47836 L 398.68965,524.82601 L 397.96309,524.66195 C 398.00215,524.08382 398.02949,523.38851 398.04512,522.57601 C 398.06074,521.76351 398.06855,520.97836 398.06856,520.22054 L 398.06856,508.78304 C 398.06855,508.51743 398.00801,508.25181 397.88691,507.98617 C 397.76582,507.72056 397.61152,507.52915 397.42402,507.41195 C 397.27559,507.3104 397.02754,507.23423 396.67988,507.18343 C 396.33223,507.13267 396.05293,507.09947 395.84199,507.08382 L 395.84199,506.33382 L 400.08418,506.06429 L 400.24824,506.24007 L 400.24824,513.85726 L 400.33027,513.8807 C 400.81464,513.36509 401.34394,512.97837 401.91816,512.72054 C 402.49238,512.46274 403.05683,512.33384 403.61152,512.33382 C 405.03339,512.33384 406.22089,512.89634 407.17402,514.02132 C 408.12714,515.14633 408.6037,516.61118 408.60371,518.41586 L 408.60371,518.41586 z M 406.15449,518.49789 C 406.15448,517.91977 406.09198,517.32993 405.96699,516.72836 C 405.84198,516.1268 405.64667,515.60336 405.38106,515.15804 C 405.11542,514.70493 404.76777,514.33774 404.33809,514.05648 C 403.90839,513.77524 403.39277,513.63462 402.79121,513.63461 C 402.24433,513.63462 401.76582,513.74204 401.35566,513.95687 C 400.9455,514.17173 400.57636,514.46274 400.24824,514.82992 L 400.24824,521.55648 C 400.29511,521.74398 400.38691,521.96273 400.52363,522.21273 C 400.66035,522.46273 400.84589,522.70101 401.08027,522.92757 C 401.31464,523.14633 401.58027,523.32406 401.87715,523.46078 C 402.17402,523.5975 402.5373,523.66586 402.96699,523.66586 C 403.92011,523.66586 404.68964,523.20492 405.27559,522.28304 C 405.86151,521.36117 406.15448,520.09945 406.15449,518.49789 L 406.15449,518.49789 z M 421.58809,518.31039 C 421.58807,519.12289 421.45917,519.92172 421.20137,520.70687 C 420.94354,521.49203 420.57636,522.15805 420.09981,522.70492 C 419.56073,523.32992 418.93573,523.79476 418.22481,524.09945 C 417.51386,524.40414 416.71699,524.55648 415.83418,524.55648 C 415.0998,524.55648 414.40058,524.41781 413.73652,524.14047 C 413.07246,523.86312 412.48261,523.45883 411.96699,522.92757 C 411.45918,522.40414 411.05488,521.76547 410.7541,521.01156 C 410.45332,520.25766 410.30293,519.41195 410.30293,518.47445 C 410.30293,516.66977 410.82832,515.19321 411.8791,514.04476 C 412.92988,512.89634 414.30683,512.32212 416.00996,512.32211 C 417.62714,512.32212 418.96112,512.86704 420.01191,513.95687 C 421.06268,515.04672 421.58807,516.49789 421.58809,518.31039 L 421.58809,518.31039 z M 419.16231,518.33382 C 419.1623,517.74789 419.1037,517.12875 418.98652,516.4764 C 418.86933,515.82407 418.69355,515.27133 418.45918,514.8182 C 418.20917,514.33383 417.88105,513.94516 417.47481,513.65218 C 417.06855,513.35923 416.57245,513.21274 415.98652,513.21273 C 415.38496,513.21274 414.87128,513.36118 414.44551,513.65804 C 414.01972,513.95493 413.67402,514.36118 413.4084,514.87679 C 413.1584,515.35336 412.98261,515.89633 412.88106,516.5057 C 412.77949,517.11508 412.72871,517.70492 412.72871,518.27523 C 412.72871,519.02524 412.78926,519.71859 412.91035,520.35531 C 413.03144,520.99203 413.2248,521.56039 413.49043,522.06039 C 413.75605,522.56039 414.09004,522.95297 414.49238,523.23812 C 414.89472,523.52328 415.39277,523.66586 415.98652,523.66586 C 416.96308,523.66586 417.73652,523.1932 418.30684,522.24789 C 418.87714,521.30258 419.1623,519.99789 419.16231,518.33382 L 419.16231,518.33382 z M 428.67793,524.20492 L 423.04121,524.20492 L 423.04121,523.43148 C 423.2209,523.41586 423.4123,523.39828 423.61543,523.37875 C 423.81855,523.35922 423.98652,523.32992 424.11934,523.29086 C 424.33808,523.22054 424.50215,523.0975 424.61152,522.92172 C 424.7209,522.74594 424.77558,522.51742 424.77559,522.23617 L 424.77559,508.85336 C 424.77558,508.57212 424.71504,508.30845 424.59395,508.06234 C 424.47285,507.81626 424.31465,507.6229 424.11934,507.48226 C 423.97871,507.38853 423.7209,507.30259 423.3459,507.22445 C 422.9709,507.14634 422.67012,507.09947 422.44356,507.08382 L 422.44356,506.33382 L 426.79121,506.06429 L 426.95527,506.24007 L 426.95527,522.09554 C 426.95527,522.36898 427.00605,522.59359 427.10762,522.76937 C 427.20918,522.94515 427.37324,523.07992 427.59981,523.17367 C 427.77168,523.25179 427.9416,523.31039 428.10957,523.34945 C 428.27753,523.38851 428.46699,523.41586 428.67793,523.43148 L 428.67793,524.20492 z M 441.09981,523.99398 C 440.73261,524.12679 440.41034,524.23422 440.13301,524.31625 C 439.85565,524.39828 439.5412,524.43929 439.18965,524.43929 C 438.58026,524.43929 438.09394,524.29672 437.73066,524.01156 C 437.36738,523.7264 437.13495,523.31039 437.0334,522.76351 L 436.96309,522.76351 C 436.45527,523.32601 435.91035,523.7557 435.32832,524.05257 C 434.74628,524.34945 434.04511,524.49789 433.22481,524.49789 C 432.35761,524.49789 431.64473,524.23226 431.08613,523.70101 C 430.52754,523.16976 430.24824,522.47445 430.24824,521.61507 C 430.24824,521.16977 430.31074,520.77133 430.43574,520.41976 C 430.56074,520.0682 430.74824,519.7518 430.99824,519.47054 C 431.19355,519.23617 431.45137,519.02719 431.77168,518.84359 C 432.09199,518.66 432.39277,518.51352 432.67402,518.40414 C 433.02558,518.27133 433.73847,518.02524 434.8127,517.66586 C 435.88691,517.30649 436.61152,517.02524 436.98652,516.82211 L 436.98652,515.66195 C 436.98652,515.5604 436.96503,515.36508 436.92207,515.07601 C 436.87909,514.78696 436.7873,514.51352 436.64668,514.2557 C 436.49042,513.96665 436.26972,513.71469 435.98457,513.49984 C 435.69941,513.28501 435.29511,513.17759 434.77168,513.17757 C 434.4123,513.17759 434.07832,513.23813 433.76973,513.35922 C 433.46113,513.48032 433.24433,513.60727 433.11934,513.74007 C 433.11933,513.89633 433.15644,514.1268 433.23066,514.43148 C 433.30488,514.73618 433.34199,515.01743 433.34199,515.27523 C 433.34199,515.54868 433.21894,515.79868 432.97285,516.02523 C 432.72676,516.2518 432.38496,516.36508 431.94746,516.36507 C 431.55683,516.36508 431.26973,516.22641 431.08613,515.94906 C 430.90254,515.67172 430.81074,515.36118 430.81074,515.01742 C 430.81074,514.65805 430.93769,514.3143 431.1916,513.98617 C 431.44551,513.65805 431.77558,513.36509 432.18184,513.10726 C 432.5334,512.88852 432.95918,512.70298 433.45918,512.55062 C 433.95918,512.39829 434.44746,512.32212 434.92402,512.32211 C 435.58027,512.32212 436.15253,512.36704 436.64082,512.45687 C 437.12909,512.54673 437.57245,512.74009 437.9709,513.03695 C 438.36933,513.32602 438.67206,513.7186 438.8791,514.21468 C 439.08612,514.71079 439.18964,515.34946 439.18965,516.1307 C 439.18964,517.24789 439.17792,518.23813 439.15449,519.1014 C 439.13105,519.96469 439.11933,520.90805 439.11934,521.93148 C 439.11933,522.23617 439.17206,522.47836 439.27754,522.65804 C 439.383,522.83773 439.54511,522.99008 439.76387,523.11507 C 439.88104,523.18539 440.06659,523.22445 440.32051,523.23226 C 440.5744,523.24008 440.83417,523.24398 441.09981,523.24398 L 441.09981,523.99398 z M 437.00996,517.80648 C 436.34589,518.0018 435.76386,518.19321 435.26387,518.3807 C 434.76386,518.56821 434.29902,518.80258 433.86934,519.08382 C 433.47871,519.34945 433.17011,519.66391 432.94356,520.02718 C 432.71699,520.39047 432.60371,520.82211 432.60371,521.32211 C 432.60371,521.97055 432.77363,522.44711 433.11348,522.75179 C 433.45332,523.05648 433.88496,523.20883 434.4084,523.20882 C 434.96308,523.20883 435.45136,523.07406 435.87324,522.80453 C 436.29511,522.535 436.65058,522.21664 436.93965,521.84945 L 437.00996,517.80648 z" style="font-size:24px;font-style:normal;font-variant:normal;font-weight:normal;font-stretch:normal;text-align:start;line-height:100%;writing-mode:lr-tb;text-anchor:start;fill:#d45500;fill-opacity:1;stroke:none;stroke-width:1px;stroke-linecap:butt;stroke-linejoin:miter;stroke-opacity:1;font-family:Georgia;-inkscape-font-specification:Georgia"/>
      <path id="path3594" style="fill:#aaaaff;stroke:#000000;stroke-width:1.42635667px" d="M 300.32751,465.25151 C 311.76001,485.05318 276.74909,574.34679 248.55774,658.8448" sodipodi:nodetypes="cc"/>
    </g>
  </g>
</svg>