<?xml version="1.0" encoding="UTF-8" standalone="no"?>
<!-- Created with Inkscape (http://www.inkscape.org/) -->
<svg xmlns:dc="http://purl.org/dc/elements/1.1/" xmlns:cc="http://web.resource.org/cc/" xmlns:rdf="http://www.w3.org/1999/02/22-rdf-syntax-ns#" xmlns:svg="http://www.w3.org/2000/svg" xmlns="http://www.w3.org/2000/svg" xmlns:sodipodi="http://sodipodi.sourceforge.net/DTD/sodipodi-0.dtd" xmlns:inkscape="http://www.inkscape.org/namespaces/inkscape" width="475" height="575" id="svg2" sodipodi:version="0.32" inkscape:version="0.45" version="1.0" sodipodi:docbase="C:\temp" sodipodi:docname="Golden Rectangle.svg" inkscape:output_extension="org.inkscape.output.svg.inkscape" sodipodi:modified="true">
  <defs id="defs4"><marker inkscape:stockid="Arrow2Mend" orient="auto" refY="0" refX="0" id="Arrow2Mend" style="overflow:visible">
  <path id="path5260" style="font-size:12px;fill-rule:evenodd;stroke-width:0.625;stroke-linejoin:round" d="M 8.7185878,4.0337352 L -2.2072895,0.016013256 L 8.7185884,-4.0017078 C 6.97309,-1.6296469 6.9831476,1.6157441 8.7185878,4.0337352 z " transform="scale(-0.6,-0.6)"/>
</marker>

	
	
</defs>
  <sodipodi:namedview id="base" pagecolor="#ffffff" bordercolor="#666666" borderopacity="1.0" gridtolerance="50" guidetolerance="10" objecttolerance="50" inkscape:pageopacity="0.0" inkscape:pageshadow="2" inkscape:zoom="1" inkscape:cx="446.01806" inkscape:cy="228.3751" inkscape:document-units="px" inkscape:current-layer="layer1" width="475px" height="575px" showgrid="true" gridspacingx="5px" gridspacingy="5px" inkscape:object-bbox="false" inkscape:object-points="false" inkscape:grid-points="true" inkscape:grid-bbox="false" inkscape:object-nodes="false" inkscape:object-paths="false" inkscape:window-width="1280" inkscape:window-height="968" inkscape:window-x="-4" inkscape:window-y="-4"/>
  <metadata id="metadata7">
    <rdf:RDF>
      <cc:Work rdf:about="">
        <dc:format>image/svg+xml</dc:format>
        <dc:type rdf:resource="http://purl.org/dc/dcmitype/StillImage"/>
      </cc:Work>
    </rdf:RDF>
  </metadata>
  <g inkscape:label="Layer 1" inkscape:groupmode="layer" id="layer1">
    <rect style="opacity:1;fill:#ffcc00;fill-opacity:0.49803922;stroke:#000080;stroke-width:0;stroke-linecap:square;stroke-linejoin:miter;stroke-miterlimit:2.9000001;stroke-dasharray:none;stroke-opacity:1" id="rect15184" width="289.96509" height="469.25082" x="60.034897" y="25.749182"/>
    <path style="opacity:1;fill:#b3b3b3;fill-opacity:1;stroke:none;stroke-width:5.0936265;stroke-linecap:round;stroke-linejoin:miter;stroke-miterlimit:4;stroke-dasharray:none;stroke-opacity:1" d="M 350,23.78125 C 169.95137,23.781249 23.781266,169.95137 23.78125,350 C 23.78125,437.19523 58.065561,516.45038 113.875,575 L 119.4375,575 C 62.744197,516.91562 27.78125,437.52865 27.78125,350 C 27.781265,172.11562 172.11561,27.78125 350,27.78125 C 394.31728,27.781248 436.56084,36.764875 475,52.96875 L 475,48.65625 C 436.49291,32.649188 394.274,23.781248 350,23.78125 z " id="path2160"/>
    <path style="fill:none;fill-opacity:1;stroke:#000080;stroke-width:4;stroke-linecap:round;stroke-linejoin:miter;stroke-miterlimit:4;stroke-opacity:1" d="M 60,205 L 60.034897,25.749182 L 349.96507,25.749182 L 350,205" id="rect4114" sodipodi:nodetypes="cccc"/>
    <rect style="opacity:1;fill:none;fill-opacity:1;stroke:#ff0000;stroke-width:4;stroke-linecap:round;stroke-linejoin:miter;stroke-miterlimit:4;stroke-dasharray:none;stroke-opacity:1" id="rect4118" width="290" height="289.97476" x="60" y="205.02525"/>
    <g id="g6266" style="fill:#4d4d4d">
      <path d="M 78.895688,224.58592 L 59.794957,204.19623 L 87.55473,207.35413 C 81.255408,210.55999 77.779724,217.53048 78.895688,224.58592 z " style="font-size:12px;fill:#4d4d4d;fill-rule:evenodd;stroke-width:0.625;stroke-linejoin:round" id="path6272"/>
    </g>
    <path style="fill:none;fill-rule:evenodd;stroke:#4d4d4d;stroke-width:4;stroke-linecap:square;stroke-linejoin:miter;stroke-miterlimit:4;stroke-dasharray:none;stroke-opacity:1" d="M 349.96507,349.96479 L 60.034897,349.96479" id="path5294"/>
    <path style="fill:none;fill-rule:evenodd;stroke:#4d4d4d;stroke-width:4;stroke-linecap:butt;stroke-linejoin:miter;stroke-miterlimit:4;stroke-dasharray:none;stroke-opacity:1" d="M 349.96507,349.96479 L 74.437814,211.33909" id="path6282" sodipodi:nodetypes="cc"/>
    <path style="fill:none;fill-rule:evenodd;stroke:#000000;stroke-width:1.92875004;stroke-linecap:butt;stroke-linejoin:miter;stroke-miterlimit:4;stroke-dasharray:none;stroke-opacity:1" d="M 350,510 L 350,540" id="path7253"/>
    <path style="fill:none;fill-rule:evenodd;stroke:#000000;stroke-width:1.92875004;stroke-linecap:butt;stroke-linejoin:miter;stroke-miterlimit:4;stroke-dasharray:none;stroke-opacity:1" d="M 60,510 L 60,540" id="path7255"/>
    <path style="fill:none;fill-rule:evenodd;stroke:#000000;stroke-width:1.92875004;stroke-linecap:butt;stroke-linejoin:miter;stroke-miterlimit:4;stroke-dasharray:none;stroke-opacity:1" d="M 69,530 L 185,530" id="path7257" sodipodi:nodetypes="cc"/>
    <path sodipodi:nodetypes="cc" id="path8228" d="M 225,530 L 340,530" style="fill:none;fill-rule:evenodd;stroke:#000000;stroke-width:1.92875004;stroke-linecap:butt;stroke-linejoin:miter;stroke-miterlimit:4;stroke-dasharray:none;stroke-opacity:1"/>
    <text xml:space="preserve" style="font-size:12px;font-style:normal;font-weight:normal;fill:#000000;fill-opacity:1;stroke:none;stroke-width:1px;stroke-linecap:butt;stroke-linejoin:miter;stroke-opacity:1;font-family:Trebuchet MS" x="196.33398" y="542" id="text8230"><tspan sodipodi:role="line" id="tspan8232" x="196.33398" y="542" style="font-size:36px;font-family:Arial">1</tspan></text>
    <path style="fill:none;fill-rule:evenodd;stroke:#000000;stroke-width:1.92875004;stroke-linecap:butt;stroke-linejoin:miter;stroke-miterlimit:4;stroke-dasharray:none;stroke-opacity:1" d="M 370,495 L 400,495" id="path8234"/>
    <path style="fill:none;fill-rule:evenodd;stroke:#000000;stroke-width:1.92875004;stroke-linecap:butt;stroke-linejoin:miter;stroke-miterlimit:4;stroke-dasharray:none;stroke-opacity:1" d="M 390,484 L 390,465" id="path8236" sodipodi:nodetypes="cc"/>
    <path style="fill:none;fill-rule:evenodd;stroke:#000000;stroke-width:1.92875004;stroke-linecap:butt;stroke-linejoin:miter;stroke-miterlimit:4;stroke-dasharray:none;stroke-opacity:1" d="M 400,350 L 370,350" id="path8238"/>
    <path style="fill:none;fill-rule:evenodd;stroke:#000000;stroke-width:1.92875004;stroke-linecap:butt;stroke-linejoin:miter;stroke-miterlimit:4;stroke-dasharray:none;stroke-opacity:1" d="M 390,340 L 390,235" id="path8240" sodipodi:nodetypes="cc"/>
    <path style="fill:none;fill-rule:evenodd;stroke:#000000;stroke-width:1.92875004;stroke-linecap:butt;stroke-linejoin:miter;stroke-miterlimit:4;stroke-dasharray:none;stroke-opacity:1" d="M 370,26 L 400,26" id="path8242"/>
    <text xml:space="preserve" style="font-size:20px;font-family:Arial" x="380.6709" y="414.125" id="text8244"><tspan sodipodi:role="line" id="tspan8246" x="380.6709" y="414.125" style="font-size:30px;font-family:Arial">1</tspan></text>
    <text xml:space="preserve" style="font-size:20px;font-family:Arial" x="381.90186" y="450.125" id="text8252"><tspan sodipodi:role="line" id="tspan8254" x="381.90186" y="450.125" style="font-size:30px;font-family:Arial">2</tspan></text>
    <path style="fill:none;fill-rule:evenodd;stroke:#000000;stroke-width:2;stroke-linecap:butt;stroke-linejoin:miter;stroke-miterlimit:4;stroke-dasharray:none;stroke-opacity:1" d="M 379.01758,420.5 L 400.51758,420.5" id="path9225" sodipodi:nodetypes="cc"/>
    <path sodipodi:nodetypes="cc" id="path9234" d="M 390,380 L 390,359" style="fill:none;fill-rule:evenodd;stroke:#000000;stroke-width:1.92875004;stroke-linecap:butt;stroke-linejoin:miter;stroke-miterlimit:4;stroke-dasharray:none;stroke-opacity:1"/>
    <path id="path10223" d="M 410,495 L 440,495" style="fill:none;fill-rule:evenodd;stroke:#000000;stroke-width:1.92875004;stroke-linecap:butt;stroke-linejoin:miter;stroke-miterlimit:4;stroke-dasharray:none;stroke-opacity:1"/>
    <path style="fill:none;fill-rule:evenodd;stroke:#000000;stroke-width:1.92875004;stroke-linecap:butt;stroke-linejoin:miter;stroke-miterlimit:4;stroke-dasharray:none;stroke-opacity:1" d="M 410,26 L 440,26" id="path10228"/>
    <path style="fill:none;fill-rule:evenodd;stroke:#000000;stroke-width:1.92875004;stroke-linecap:butt;stroke-linejoin:miter;stroke-miterlimit:4;stroke-dasharray:none;stroke-opacity:1" d="M 430,34 L 430,230" id="path11199" sodipodi:nodetypes="cc"/>
    <path sodipodi:nodetypes="cc" id="path12170" d="M 430,290 L 430,491.5" style="fill:none;fill-rule:evenodd;stroke:#000000;stroke-width:2;stroke-linecap:butt;stroke-linejoin:miter;marker-end:none;stroke-miterlimit:4;stroke-dasharray:none;stroke-opacity:1"/>
    <path id="path14129" style="font-size:12px;fill-rule:evenodd;stroke-width:0.625;stroke-linejoin:round" d="M 434.82127,480.88894 L 430,494 L 425.17873,480.88894 C 428.02521,482.98354 431.91967,482.97147 434.82127,480.88894 z "/>
    <path d="M 394.82127,480.88894 L 390,494 L 385.17873,480.88894 C 388.02521,482.98354 391.91967,482.97147 394.82127,480.88894 z " style="font-size:12px;fill-rule:evenodd;stroke-width:0.625;stroke-linejoin:round" id="path14133"/>
    <path id="path14135" style="font-size:12px;fill-rule:evenodd;stroke-width:0.625;stroke-linejoin:round" d="M 394.82127,335.88894 L 390,349 L 385.17873,335.88894 C 388.02521,337.98354 391.91967,337.97147 394.82127,335.88894 z "/>
    <path d="M 425.17873,40.003917 L 430,26.892857 L 434.82127,40.003917 C 431.97479,37.909317 428.08033,37.921387 425.17873,40.003917 z " style="font-size:12px;fill-rule:evenodd;stroke-width:0.625;stroke-linejoin:round" id="path14137"/>
    <path id="path14139" style="font-size:12px;fill-rule:evenodd;stroke-width:0.625;stroke-linejoin:round" d="M 385.17873,40.003917 L 390,26.892857 L 394.82127,40.003917 C 391.97479,37.909317 388.08033,37.921387 385.17873,40.003917 z "/>
    <path d="M 385.17873,364 L 390,350.88894 L 394.82127,364 C 391.97479,361.9054 388.08033,361.91747 385.17873,364 z " style="font-size:12px;fill-rule:evenodd;stroke-width:0.625;stroke-linejoin:round" id="path14141"/>
    <text id="text14163" y="183.16808" x="387.5" style="font-size:20px" xml:space="preserve"><tspan style="font-size:30px;font-family:Arial" y="183.16808" x="387.5" id="tspan14165" sodipodi:role="line">5</tspan></text>
    <text id="text14167" y="219.77594" x="382.00928" style="font-size:20px;font-family:Arial" xml:space="preserve"><tspan style="font-size:30px;font-family:Arial" y="219.77594" x="382.00928" id="tspan14169" sodipodi:role="line">2</tspan></text>
    <path sodipodi:nodetypes="cc" id="path14171" d="M 375,191.52594 L 405,191.52594" style="fill:none;fill-rule:evenodd;stroke:#000000;stroke-width:2;stroke-linecap:butt;stroke-linejoin:miter;stroke-miterlimit:3.45000005;stroke-dasharray:none;stroke-opacity:1"/>
    <path style="fill:none;fill-rule:evenodd;stroke:#000000;stroke-width:2;stroke-linecap:butt;stroke-linejoin:miter;stroke-miterlimit:3.45000005;stroke-dasharray:none;stroke-opacity:1" d="M 376.94103,176.10946 L 379.72763,182.4046 L 385.30084,157.22404 L 405,157.27594" id="path14184" sodipodi:nodetypes="cccc"/>
    <path sodipodi:nodetypes="cc" id="path14194" d="M 390,140 L 390,35" style="fill:none;fill-rule:evenodd;stroke:#000000;stroke-width:1.92875004;stroke-linecap:butt;stroke-linejoin:miter;stroke-miterlimit:4;stroke-dasharray:none;stroke-opacity:1"/>
    <path id="path14196" style="font-size:12px;fill-rule:evenodd;stroke-width:0.625;stroke-linejoin:round" d="M 335.94702,525.17873 L 349.05808,530 L 335.94702,534.82127 C 338.04162,531.97479 338.02955,528.08033 335.94702,525.17873 z "/>
    <path d="M 74.11106,534.82127 L 61,530 L 74.11106,525.17873 C 72.01646,528.02521 72.02853,531.91967 74.11106,534.82127 z " style="font-size:12px;fill-rule:evenodd;stroke-width:0.625;stroke-linejoin:round" id="path14198"/>
    <path d="M 427.84322,245.64847 C 425.30838,247.15657 422.37334,249.21287 422.37334,254.37674 C 422.37334,259.76902 425.48628,262.64807 428.4212,263.33342 C 428.33225,259.35784 428.28784,255.9761 428.33225,253.09718 C 428.4212,246.97379 431.48973,244.68896 434.46931,244.68896 C 437.89339,244.68896 441.6735,248.16184 441.6735,254.10258 C 441.6735,260.68291 437.22646,264.75012 431.80099,265.57262 C 431.80099,267.67455 431.93447,270.00526 431.93447,274.9406 C 431.53439,275.85449 429.79996,276.81413 428.55468,276.85976 L 428.24343,276.58559 C 428.37691,274.98624 428.37691,271.55886 428.37691,265.75527 C 422.3288,265.48098 418.3265,261.18548 418.3265,255.2905 C 418.3265,248.98421 422.9069,245.92252 427.08722,244.14026 L 427.84322,245.64847 z M 433.58007,246.79089 C 432.20144,246.79089 431.66775,247.70478 431.71216,251.63484 C 431.71216,255.01646 431.66775,259.17482 431.80111,263.51619 C 434.86964,263.3333 438.16047,260.59152 438.16047,254.92495 C 438.16047,249.48703 435.49227,246.79077 433.62436,246.79077 L 433.58007,246.79077 L 433.58007,246.79089 z " id="path18183"/>
  </g>
</svg>