<?xml version="1.0" encoding="UTF-8" standalone="no"?>
<!-- Created with Inkscape (http://www.inkscape.org/) -->
<svg xmlns:dc="http://purl.org/dc/elements/1.1/" xmlns:cc="http://creativecommons.org/ns#" xmlns:rdf="http://www.w3.org/1999/02/22-rdf-syntax-ns#" xmlns:svg="http://www.w3.org/2000/svg" xmlns="http://www.w3.org/2000/svg" xmlns:sodipodi="http://sodipodi.sourceforge.net/DTD/sodipodi-0.dtd" xmlns:inkscape="http://www.inkscape.org/namespaces/inkscape" width="600" height="550" id="svg2" version="1.1" inkscape:version="0.48.1 " sodipodi:docname="New document 1">
  <defs id="defs4"/>
  <sodipodi:namedview id="base" pagecolor="#ffffff" bordercolor="#666666" borderopacity="1.0" inkscape:pageopacity="0.0" inkscape:pageshadow="2" inkscape:zoom="0.7" inkscape:cx="211.02525" inkscape:cy="273.54323" inkscape:document-units="px" inkscape:current-layer="layer1" showgrid="false" fit-margin-top="0" fit-margin-left="0" fit-margin-right="0" fit-margin-bottom="0" showguides="true" inkscape:guide-bbox="true" inkscape:window-width="1366" inkscape:window-height="706" inkscape:window-x="-8" inkscape:window-y="-8" inkscape:window-maximized="1"/>
  <metadata id="metadata7">
    <rdf:RDF>
      <cc:Work rdf:about="">
        <dc:format>image/svg+xml</dc:format>
        <dc:type rdf:resource="http://purl.org/dc/dcmitype/StillImage"/>
        <dc:title/>
      </cc:Work>
    </rdf:RDF>
  </metadata>
  <g inkscape:label="Layer 1" inkscape:groupmode="layer" id="layer1" transform="translate(-23.248814,-177.33157)">
    <rect style="fill:#dadaff;fill-opacity:1;stroke:#000000;stroke-width:5;stroke-miterlimit:4;stroke-dasharray:none" id="rect3770" width="311.65756" height="310.89972" x="79.791893" y="259.10062"/>
    <rect y="259.10062" x="391.4494" height="310.89972" width="191.32944" id="rect3772" style="fill:#ffdada;fill-opacity:1;stroke:#000000;stroke-width:5;stroke-miterlimit:4;stroke-dasharray:none"/>
    <g style="font-size:69.91850281px;font-style:italic;font-weight:normal;line-height:125%;letter-spacing:0px;word-spacing:0px;fill:#0000ff;fill-opacity:1;stroke:none;font-family:Times New Roman;-inkscape-font-specification:'Times New Roman, Italic'" id="text3774">
      <path d="m 251.20553,214.23061 -6.65728,23.14685 -0.75107,3.10673 c -0.0683,0.29588 -0.10245,0.54624 -0.10242,0.75107 -3e-5,0.36417 0.11377,0.68281 0.3414,0.95592 0.18205,0.20484 0.40965,0.30726 0.68279,0.30726 0.29586,0 0.68277,-0.18208 1.16076,-0.54624 0.88761,-0.66003 2.07112,-2.02563 3.55055,-4.09678 l 1.16075,0.81935 c -1.57046,2.36704 -3.18641,4.17076 -4.84786,5.41118 -1.6615,1.24041 -3.19779,1.86062 -4.60889,1.86062 -0.97869,0 -1.7127,-0.24467 -2.20202,-0.73401 -0.48936,-0.48934 -0.73403,-1.20058 -0.73401,-2.13374 -2e-5,-1.11523 0.25034,-2.58325 0.75108,-4.40405 l 0.71694,-2.56049 c -2.98157,3.89195 -5.72414,6.61176 -8.22772,8.15944 -1.79804,1.11523 -3.56193,1.67285 -5.29168,1.67285 -1.66148,0 -3.09535,-0.68849 -4.30163,-2.06546 -1.20627,-1.37698 -1.80941,-3.27174 -1.80941,-5.6843 0,-3.61881 1.08678,-7.43679 3.26036,-11.45393 2.17357,-4.01711 4.9332,-7.23194 8.27892,-9.64452 2.61738,-1.9118 5.08683,-2.86772 7.40836,-2.86775 1.38833,3e-5 2.5434,0.36419 3.4652,1.09248 0.92175,0.72834 1.62162,1.93462 2.0996,3.61882 l 1.22904,-3.89194 z m -12.1538,1.77527 c -1.45665,3e-5 -3.00433,0.68283 -4.64303,2.0484 -2.32152,1.93462 -4.38698,4.80236 -6.19639,8.60325 -1.80942,3.80092 -2.71412,7.23767 -2.71412,10.31025 0,1.54768 0.38691,2.77102 1.16076,3.67004 0.77383,0.89902 1.66146,1.34853 2.66291,1.34852 2.48082,10e-6 5.17787,-1.83217 8.09116,-5.49652 3.89192,-4.87061 5.83789,-9.86641 5.83792,-14.98741 -3e-5,-1.93457 -0.37557,-3.33431 -1.12662,-4.19921 -0.7511,-0.86485 -1.7753,-1.29729 -3.07259,-1.29732 z" style="" id="path3826"/>
    </g>
    <g style="font-size:69.91850281px;font-style:italic;font-weight:normal;line-height:125%;letter-spacing:0px;word-spacing:0px;fill:#0000ff;fill-opacity:1;stroke:none;font-family:Times New Roman;-inkscape-font-specification:'Times New Roman, Italic'" id="text3778">
      <path d="m 67.794347,398.69248 -6.65728,23.14684 -0.751077,3.10674 c -0.06831,0.29588 -0.102445,0.54624 -0.10242,0.75107 -2.5e-5,0.36417 0.113774,0.6828 0.341399,0.95592 0.182053,0.20484 0.409653,0.30726 0.682798,0.30726 0.295852,0 0.682771,-0.18208 1.160756,-0.54624 0.887609,-0.66003 2.071124,-2.02563 3.550549,-4.09679 l 1.160757,0.81936 c -1.570466,2.36704 -3.18642,4.17076 -4.847865,5.41117 -1.661501,1.24042 -3.197795,1.86063 -4.608886,1.86063 -0.978699,0 -1.712706,-0.24467 -2.202023,-0.73401 -0.489359,-0.48934 -0.734028,-1.20058 -0.734008,-2.13374 -2e-5,-1.11524 0.250339,-2.58325 0.751078,-4.40405 l 0.716937,-2.56049 c -2.981569,3.89195 -5.724137,6.61176 -8.227714,8.15943 -1.798046,1.11524 -3.561938,1.67286 -5.291684,1.67286 -1.66148,0 -3.095355,-0.68849 -4.301626,-2.06547 -1.206279,-1.37697 -1.809416,-3.27173 -1.809415,-5.68429 -10e-7,-3.61882 1.086784,-7.43679 3.26036,-11.45393 2.173566,-4.01711 4.933205,-7.23194 8.278925,-9.64452 2.617376,-1.91181 5.086826,-2.86772 7.408357,-2.86775 1.388333,3e-5 2.543399,0.36419 3.465199,1.09247 0.921752,0.72835 1.621619,1.93463 2.099603,3.61883 l 1.229036,-3.89195 z m -12.153803,1.77527 c -1.456654,3e-5 -3.004328,0.68283 -4.643025,2.04839 -2.321527,1.93462 -4.386988,4.80237 -6.196391,8.60326 -1.809422,3.80092 -2.714129,7.23767 -2.714122,10.31025 -7e-6,1.54768 0.386912,2.77102 1.160757,3.67003 0.773828,0.89903 1.661465,1.34853 2.662912,1.34853 2.480818,0 5.177867,-1.83217 8.091154,-5.49652 3.891925,-4.87061 5.837897,-9.86641 5.837922,-14.98742 -2.5e-5,-1.93456 -0.375563,-3.3343 -1.126616,-4.1992 -0.751101,-0.86485 -1.775297,-1.29729 -3.072591,-1.29732 z" style="" id="path3820"/>
    </g>
    <g style="font-size:69.91850281px;font-style:italic;font-weight:normal;line-height:125%;letter-spacing:0px;word-spacing:0px;fill:#ff0000;fill-opacity:1;stroke:none;font-family:Times New Roman;-inkscape-font-specification:'Times New Roman, Italic'" id="text3782">
      <path d="m 489.96479,196.58028 -6.72556,23.59067 c 2.18494,-2.27597 4.09108,-3.83502 5.71844,-4.67717 1.62731,-0.84208 3.32861,-1.26314 5.10391,-1.26317 2.50357,3e-5 4.55196,0.83077 6.14518,2.49221 1.59317,1.6615 2.38976,3.91473 2.38979,6.7597 -3e-5,3.66437 -1.04698,7.31164 -3.14087,10.94184 -2.09394,3.63021 -4.72271,6.45813 -7.88631,8.48376 -3.16365,2.02563 -6.28176,3.03845 -9.35433,3.03845 -3.43676,0 -6.96455,-1.28594 -10.58337,-3.85781 l 10.37853,-35.74447 c 0.79658,-2.75391 1.19488,-4.36986 1.19489,-4.84786 -10e-6,-0.59172 -0.18209,-1.03553 -0.54623,-1.33146 -0.52349,-0.40963 -1.29733,-0.61447 -2.32152,-0.61452 -0.47796,5e-5 -1.20628,0.0797 -2.18495,0.23898 l 0,-1.29731 z m -13.21214,45.88402 c 2.27599,1.2518 4.27886,1.8777 6.00863,1.87769 2.00285,1e-5 4.0797,-0.734 6.23053,-2.20202 2.15079,-1.46801 4.0171,-3.94315 5.59894,-7.42543 1.58179,-3.48225 2.37269,-6.99866 2.37272,-10.54922 -3e-5,-2.09389 -0.51781,-3.73261 -1.55336,-4.91615 -1.0356,-1.18349 -2.25895,-1.77524 -3.67004,-1.77527 -2.11669,3e-5 -4.18785,0.84783 -6.21346,2.54342 -2.02565,1.69564 -3.4709,4.05698 -4.33577,7.08403 z" style="" id="path3823"/>
    </g>
    <path id="path3798" style="fill:none;stroke:#008000;stroke-width:5;stroke-linecap:butt;stroke-linejoin:miter;stroke-miterlimit:4;stroke-opacity:1;stroke-dasharray:none" d="m 583.04406,583.71537 c 0,80.73971 -251.764,-25.51555 -251.764,70.139 0,-91.61394 -251.763996,10.60095 -251.763996,-70.139" inkscape:connector-curvature="0" sodipodi:nodetypes="ccc"/>
    <g style="font-size:69.91850281px;font-style:italic;font-weight:normal;line-height:125%;letter-spacing:0px;word-spacing:0px;fill:#008000;fill-opacity:1;stroke:none;font-family:Times New Roman;-inkscape-font-specification:'Times New Roman, Italic'" id="text3803">
      <path d="m 305.76049,672.97815 -6.65727,23.14685 -0.75108,3.10673 c -0.0683,0.29588 -0.10245,0.54624 -0.10242,0.75108 -3e-5,0.36416 0.11377,0.6828 0.3414,0.95591 0.18205,0.20485 0.40965,0.30727 0.6828,0.30726 0.29585,10e-6 0.68277,-0.18207 1.16075,-0.54623 0.88761,-0.66004 2.07113,-2.02563 3.55055,-4.09679 l 1.16076,0.81936 c -1.57047,2.36703 -3.18642,4.17076 -4.84787,5.41117 -1.6615,1.24042 -3.19779,1.86062 -4.60888,1.86062 -0.9787,0 -1.71271,-0.24467 -2.20203,-0.734 -0.48936,-0.48934 -0.73402,-1.20059 -0.734,-2.13375 -2e-5,-1.11523 0.25033,-2.58325 0.75107,-4.40404 l 0.71694,-2.5605 c -2.98157,3.89196 -5.72414,6.61177 -8.22771,8.15944 -1.79805,1.11523 -3.56194,1.67285 -5.29169,1.67285 -1.66148,0 -3.09535,-0.68848 -4.30162,-2.06546 -1.20628,-1.37697 -1.80942,-3.27174 -1.80942,-5.68429 0,-3.61882 1.08679,-7.4368 3.26036,-11.45394 2.17357,-4.0171 4.93321,-7.23194 8.27893,-9.64452 2.61737,-1.9118 5.08682,-2.86772 7.40835,-2.86775 1.38834,3e-5 2.5434,0.36419 3.4652,1.09248 0.92175,0.72835 1.62162,1.93462 2.09961,3.61883 l 1.22903,-3.89195 z m -12.1538,1.77528 c -1.45665,3e-5 -3.00433,0.68282 -4.64302,2.04839 -2.32153,1.93462 -4.38699,4.80237 -6.19639,8.60325 -1.80943,3.80093 -2.71413,7.23767 -2.71413,10.31025 0,1.54768 0.38692,2.77103 1.16076,3.67004 0.77383,0.89902 1.66147,1.34853 2.66291,1.34853 2.48082,0 5.17787,-1.83217 8.09116,-5.49653 3.89192,-4.87061 5.83789,-9.86641 5.83792,-14.98741 -3e-5,-1.93457 -0.37556,-3.3343 -1.12662,-4.19921 -0.7511,-0.86485 -1.77529,-1.29728 -3.07259,-1.29731 z" style="" id="path3813"/>
      <path d="m 331.36542,699.06103 0,-17.03581 -16.96753,0 0,-2.79947 16.96753,0 0,-16.96752 2.79947,0 0,16.96752 17.0358,0 0,2.79947 -17.0358,0 0,17.03581 z" style="" id="path3815"/>
      <path d="m 375.3376,655.32783 -6.72556,23.59066 c 2.18493,-2.27596 4.09108,-3.83502 5.71843,-4.67716 1.62731,-0.84209 3.32862,-1.26315 5.10391,-1.26318 2.50357,3e-5 4.55196,0.83077 6.14518,2.49221 1.59317,1.66151 2.38976,3.91474 2.3898,6.7597 -4e-5,3.66437 -1.04699,7.31164 -3.14087,10.94184 -2.09394,3.63021 -4.72271,6.45813 -7.88632,8.48376 -3.16365,2.02564 -6.28175,3.03845 -9.35433,3.03845 -3.43676,0 -6.96454,-1.28593 -10.58337,-3.8578 L 367.383,665.09184 c 0.79659,-2.75391 1.19488,-4.36987 1.1949,-4.84787 -2e-5,-0.59171 -0.1821,-1.03553 -0.54624,-1.33145 -0.52349,-0.40964 -1.29733,-0.61448 -2.32151,-0.61452 -0.47797,4e-5 -1.20629,0.0797 -2.18496,0.23898 l 0,-1.29732 z m -13.21214,45.88401 c 2.27598,1.2518 4.27885,1.8777 6.00862,1.8777 2.00286,0 4.0797,-0.73401 6.23053,-2.20202 2.15079,-1.46802 4.0171,-3.94316 5.59894,-7.42543 1.58179,-3.48226 2.3727,-6.99866 2.37272,-10.54923 -2e-5,-2.09389 -0.51781,-3.7326 -1.55336,-4.91614 -1.0356,-1.18349 -2.25895,-1.77525 -3.67004,-1.77528 -2.11669,3e-5 -4.18784,0.84784 -6.21346,2.54342 -2.02565,1.69564 -3.4709,4.05698 -4.33577,7.08403 z" style="" id="path3817"/>
    </g>
  </g>
</svg>