<?xml version="1.0" encoding="UTF-8" standalone="no"?>
<!-- Created with Inkscape (http://www.inkscape.org/) -->
<svg xmlns:dc="http://purl.org/dc/elements/1.1/" xmlns:cc="http://creativecommons.org/ns#" xmlns:rdf="http://www.w3.org/1999/02/22-rdf-syntax-ns#" xmlns:svg="http://www.w3.org/2000/svg" xmlns="http://www.w3.org/2000/svg" xmlns:sodipodi="http://sodipodi.sourceforge.net/DTD/sodipodi-0.dtd" xmlns:inkscape="http://www.inkscape.org/namespaces/inkscape" width="640" height="460" id="svg2" sodipodi:version="0.32" inkscape:version="0.46" version="1.0" sodipodi:docname="Euclides I-1.svg" inkscape:output_extension="org.inkscape.output.svg.inkscape">
  <defs id="defs4">
    <inkscape:perspective sodipodi:type="inkscape:persp3d" inkscape:vp_x="0 : 526.18109 : 1" inkscape:vp_y="0 : 1000 : 0" inkscape:vp_z="744.09448 : 526.18109 : 1" inkscape:persp3d-origin="372.04724 : 350.78739 : 1" id="perspective10"/>
  </defs>
  <sodipodi:namedview id="base" pagecolor="#ffffff" bordercolor="#666666" borderopacity="1.0" gridtolerance="10000" guidetolerance="10" objecttolerance="10" inkscape:pageopacity="0.0" inkscape:pageshadow="2" inkscape:zoom="0.7" inkscape:cx="471.42857" inkscape:cy="200.79829" inkscape:document-units="px" inkscape:current-layer="layer1" showgrid="true" inkscape:window-width="1280" inkscape:window-height="749" inkscape:window-x="0" inkscape:window-y="0" inkscape:snap-intersection-line-segments="true" inkscape:snap-global="false">
    <inkscape:grid type="xygrid" id="grid2383" visible="true" enabled="true" spacingx="20px" spacingy="20px"/>
  </sodipodi:namedview>
  <metadata id="metadata7">
    <rdf:RDF>
      <cc:Work rdf:about="">
        <dc:format>image/svg+xml</dc:format>
        <dc:type rdf:resource="http://purl.org/dc/dcmitype/StillImage"/>
      </cc:Work>
    </rdf:RDF>
  </metadata>
  <g inkscape:label="Layer 1" inkscape:groupmode="layer" id="layer1">
    <g id="g2399" transform="translate(2.8571428,-532.85714)">
      <path id="path2433" d="M 220,768 L 420,768" style="fill:none;fill-rule:evenodd;stroke:#000000;stroke-width:4;stroke-linecap:butt;stroke-linejoin:miter;stroke-miterlimit:4;stroke-dasharray:none;stroke-opacity:1"/>
      <path id="path3205" d="M 620,768 C 620,878.4 530.4,968 420,968 C 309.6,968 220,878.4 220,768 C 220,657.6 309.6,568 420,568 C 530.4,568 620,657.6 620,768 z" style="fill:none;fill-opacity:1;stroke:#000000;stroke-width:2;stroke-miterlimit:4;stroke-opacity:1"/>
      <path id="path3207" d="M 420,770 C 420,880.4 330.4,970 220,970 C 109.6,970 20,880.4 20,770 C 20,659.6 109.6,570 220,570 C 330.4,570 420,659.6 420,770 z" style="fill:none;fill-opacity:1;stroke:#000000;stroke-width:2;stroke-miterlimit:4;stroke-opacity:1"/>
      <path id="text3209" d="M 192.95771,736.74059 L 188.49371,736.74059 L 180.23771,757.90859 C 177.02171,766.11658 176.2537,767.22059 173.03771,767.84459 L 172.50971,767.94059 L 172.50971,769.42859 L 185.37371,769.42859 L 185.37371,767.94059 C 183.64571,767.70059 182.82971,767.50859 182.30171,767.17259 C 181.58171,766.69259 181.10171,765.82859 181.10171,764.96459 C 181.10171,764.24459 181.43771,762.90059 182.01371,761.41259 L 183.54971,757.28459 L 195.93371,757.28459 L 198.33371,763.47659 C 198.62171,764.29259 198.86171,765.15659 198.86171,765.54059 C 198.86171,766.21259 198.4777,766.83659 197.85371,767.22059 C 197.42171,767.55659 196.7497,767.70059 195.06971,767.94059 L 195.06971,769.42859 L 208.55771,769.42859 L 208.55771,767.94059 C 205.43771,767.46059 204.8617,766.93258 203.13371,762.46859 L 192.95771,736.74059 M 184.26971,755.22059 L 189.59771,740.82059 L 195.06971,755.22059 L 184.26971,755.22059" style="font-size:48px;font-style:normal;font-variant:normal;font-weight:normal;font-stretch:normal;text-align:start;line-height:100%;writing-mode:lr-tb;text-anchor:start;fill:#000000;fill-opacity:1;stroke:none;stroke-width:1px;stroke-linecap:butt;stroke-linejoin:miter;stroke-opacity:1;font-family:URW Bookman L;-inkscape-font-specification:URW Bookman L"/>
      <path id="text3213" d="M 430.05944,738.16918 L 430.05944,739.65718 L 431.25944,739.80118 C 433.75544,740.13718 434.37944,741.14518 434.37944,745.08118 L 434.37944,763.94518 C 434.37944,767.88117 433.75544,768.88918 431.25944,769.22518 L 430.05944,769.36918 L 430.05944,770.85718 L 447.57944,770.85718 C 452.90744,770.85718 456.21944,770.08918 458.66744,768.31318 C 460.87544,766.72918 462.26744,763.99317 462.26744,761.20918 C 462.26744,758.47318 460.92344,756.07318 458.61944,754.63318 C 457.17944,753.72118 456.07544,753.28918 453.48344,752.66518 C 455.93144,752.08918 456.93944,751.60918 458.13944,750.64918 C 459.62744,749.54518 460.44344,747.81718 460.44344,745.94518 C 460.44344,743.54518 459.09944,741.24118 456.93944,739.99318 C 454.73144,738.69718 451.89944,738.16918 446.95544,738.16918 L 430.05944,738.16918 M 439.17944,751.99318 L 439.17944,744.12118 C 439.17944,740.66518 440.13945,740.04118 445.65944,740.04118 C 452.28344,740.04118 455.54744,742.00918 455.54744,746.08918 C 455.54744,750.31317 452.42743,751.99318 444.74744,751.99318 L 439.17944,751.99318 M 439.17944,754.05718 L 444.84344,754.05718 C 449.35544,754.05718 451.89944,754.29718 453.24344,754.87318 C 455.54744,755.88118 456.84344,758.08918 456.84344,760.96918 C 456.84344,763.36918 455.83544,765.62518 454.15544,766.87318 C 452.33144,768.26518 449.54744,768.88918 445.41944,768.88918 C 442.44344,768.88918 440.42744,768.36118 439.75544,767.35318 C 439.32344,766.72918 439.17944,765.81718 439.17944,763.46518 L 439.17944,754.05718" style="font-size:48px;font-style:normal;font-variant:normal;font-weight:normal;font-stretch:normal;text-align:start;line-height:100%;writing-mode:lr-tb;text-anchor:start;fill:#000000;fill-opacity:1;stroke:none;stroke-width:1px;stroke-linecap:butt;stroke-linejoin:miter;stroke-opacity:1;font-family:URW Bookman L;-inkscape-font-specification:URW Bookman L"/>
      <path id="text3217" d="M 330.95544,550.88682 L 329.37144,550.88682 L 328.36344,552.90282 C 325.53144,550.74282 322.60344,549.83082 318.47544,549.83082 C 314.63545,549.83082 310.12344,551.94283 307.19544,555.11082 C 304.26744,558.23082 302.68344,562.45483 302.68344,566.96682 C 302.68344,576.56681 309.93145,583.76682 319.62744,583.76682 C 325.81944,583.76682 330.71545,581.03082 334.26744,575.51082 L 332.20344,574.35882 C 330.81144,576.42282 329.85144,577.47882 328.26744,578.63082 C 325.96344,580.35882 322.84344,581.46282 320.34744,581.46282 C 317.37144,581.46282 313.91544,579.87882 311.85144,577.57482 C 309.59544,575.12682 308.34744,571.23882 308.34744,566.91882 C 308.34744,558.42283 313.05145,552.13482 319.38744,552.13482 C 322.93944,552.13482 326.49144,554.15083 328.74744,557.41482 C 329.65944,558.75882 330.23544,559.76682 331.72344,562.45482 L 333.25944,562.45482 L 330.95544,550.88682" style="font-size:48px;font-style:normal;font-variant:normal;font-weight:normal;font-stretch:normal;text-align:start;line-height:100%;writing-mode:lr-tb;text-anchor:start;fill:#000000;fill-opacity:1;stroke:none;stroke-width:1px;stroke-linecap:butt;stroke-linejoin:miter;stroke-opacity:1;font-family:URW Bookman L;-inkscape-font-specification:URW Bookman L"/>
      <path id="text3221" d="M 35.808,634.23082 C 35.808,638.16682 35.183998,639.17482 32.688,639.51082 L 31.488,639.65482 L 31.488,641.14282 L 46.128,641.14282 C 53.567993,641.14282 57.552003,640.08682 60.912,637.15882 C 64.127997,634.37483 66.096,629.76682 66.096,625.06282 C 66.096,620.50283 64.223997,615.75082 61.296,612.96682 C 57.984003,609.84683 53.375993,608.45482 46.128,608.45482 L 31.488,608.45482 L 31.488,609.94282 L 32.688,610.08682 C 35.183998,610.42282 35.808,611.43083 35.808,615.36682 L 35.808,634.23082 M 40.608,614.83882 C 40.608,612.96682 40.752,612.10282 41.184,611.62282 C 41.759999,610.90282 43.872002,610.42282 46.32,610.42282 C 51.551995,610.42282 55.392002,612.10283 57.792,615.51082 C 59.471998,617.91082 60.432,621.17483 60.432,624.72682 C 60.432,628.56682 59.327998,632.21482 57.36,634.66282 C 55.008002,637.59082 51.119995,639.17482 46.272,639.17482 C 43.920002,639.17482 41.951999,638.74282 41.28,638.11882 C 40.752001,637.63882 40.608,636.87082 40.608,634.95082 L 40.608,614.83882" style="font-size:48px;font-style:normal;font-variant:normal;font-weight:normal;font-stretch:normal;text-align:start;line-height:100%;writing-mode:lr-tb;text-anchor:start;fill:#000000;fill-opacity:1;stroke:none;stroke-width:1px;stroke-linecap:butt;stroke-linejoin:miter;stroke-opacity:1;font-family:URW Bookman L;-inkscape-font-specification:URW Bookman L"/>
      <path id="text3225" d="M 610.61029,604.16918 L 583.20229,604.16918 L 583.20229,605.65718 L 584.40229,605.80118 C 586.89829,606.13718 587.52229,607.14518 587.52229,611.08118 L 587.52229,629.94518 C 587.52229,633.88117 586.89829,634.88918 584.40229,635.22518 L 583.20229,635.36918 L 583.20229,636.85718 L 611.18629,636.85718 L 615.55429,626.63318 L 614.06629,625.96118 C 608.8343,632.68117 604.89829,634.79318 597.74629,634.79318 C 595.3463,634.79318 593.71429,634.36118 592.94629,633.44918 C 592.51429,632.87318 592.32229,632.10518 592.32229,630.56918 L 592.32229,620.44118 L 595.87429,620.44118 C 599.66629,620.44118 601.29829,622.12118 601.77829,626.63318 L 603.41029,626.63318 L 603.41029,612.28118 L 601.77829,612.28118 C 601.1063,617.27317 600.05029,618.37718 595.97029,618.37718 L 592.32229,618.37718 L 592.32229,610.21718 C 592.32229,607.14518 593.5703,606.23318 597.79429,606.23318 C 604.32229,606.23318 607.9703,608.05718 612.38629,613.43318 L 613.92229,612.80918 L 610.61029,604.16918" style="font-size:48px;font-style:normal;font-variant:normal;font-weight:normal;font-stretch:normal;text-align:start;line-height:100%;writing-mode:lr-tb;text-anchor:start;fill:#000000;fill-opacity:1;stroke:none;stroke-width:1px;stroke-linecap:butt;stroke-linejoin:miter;stroke-opacity:1;font-family:URW Bookman L;-inkscape-font-specification:URW Bookman L"/>
      <path sodipodi:nodetypes="ccc" id="path3264" d="M 221.22341,768.77659 L 318.70313,598.06081 L 418.70823,768.27151" style="fill:none;fill-opacity:1;fill-rule:evenodd;stroke:#000000;stroke-width:4;stroke-linecap:round;stroke-linejoin:miter;marker:none;marker-start:none;marker-mid:none;marker-end:none;stroke-miterlimit:4;stroke-dasharray:none;stroke-dashoffset:0;stroke-opacity:1;visibility:visible;display:inline;overflow:visible;enable-background:accumulate"/>
    </g>
  </g>
</svg>