<?xml version="1.0" encoding="UTF-8" standalone="no"?>
<!DOCTYPE svg PUBLIC "-//W3C//DTD SVG 1.1//EN" "http://www.w3.org/Graphics/SVG/1.1/DTD/svg11.dtd">
<!-- Creator: fig2dev Version 3.2 Patchlevel 5 -->
<!-- CreationDate: Fri Mar  6 21:29:16 2009 -->
<!-- Magnification: 1.000 -->
<svg xmlns="http://www.w3.org/2000/svg" width="6.8in" height="4.1in" viewBox="2830 4030 8127 4910">
<g style="stroke-width:.025in; stroke:black; fill:none">
<!-- Arc -->
<path style="stroke:#000000;stroke-width:30;stroke-linecap:butt;" d="M 3600,8400 A 3600 3600  0  0  1  10800  8400 "/>
<!-- Arc -->
<path style="stroke:#000000;stroke-width:30;stroke-linecap:butt;" d="M 3600,8400 A 2545 2545  0  0  1  7200  4800 "/>
<!-- Circle -->
<circle cx="7200" cy="4800" r="75" style="fill:#000000;stroke:#000000;stroke-width:30;"/>
<!-- Circle -->
<circle cx="7200" cy="8400" r="75" style="fill:#000000;stroke:#000000;stroke-width:30;"/>
<!-- Circle -->
<circle cx="3600" cy="8400" r="75" style="fill:#000000;stroke:#000000;stroke-width:30;"/>
<!-- Circle -->
<circle cx="10800" cy="8400" r="75" style="fill:#000000;stroke:#000000;stroke-width:30;"/>
<!-- Circle -->
<circle cx="5400" cy="6600" r="75" style="fill:#000000;stroke:#000000;stroke-width:30;"/>
<!-- Line -->
<polyline points="3600,8400 10800,8400 " style="stroke:#000000;stroke-width:30; stroke-linejoin:miter; stroke-linecap:butt; "/>
<!-- Line -->
<polyline points="3600,8400 7200,4800 7200,8400 " style="stroke:#000000;stroke-width:30; stroke-linejoin:miter; stroke-linecap:butt; "/>
<!-- Line -->
<polyline points="4950,4125 5925,4125 " style="stroke:#000000;stroke-width:7; stroke-linejoin:miter; stroke-linecap:butt; "/>
<!-- Line -->
<polyline points="4650,4200 6150,4200 " style="stroke:#000000;stroke-width:7; stroke-linejoin:miter; stroke-linecap:butt; "/>
<!-- Line -->
<polyline points="4425,4275 6375,4275 " style="stroke:#000000;stroke-width:7; stroke-linejoin:miter; stroke-linecap:butt; "/>
<!-- Line -->
<polyline points="4200,4350 6525,4350 " style="stroke:#000000;stroke-width:7; stroke-linejoin:miter; stroke-linecap:butt; "/>
<!-- Line -->
<polyline points="4050,4425 6750,4425 " style="stroke:#000000;stroke-width:7; stroke-linejoin:miter; stroke-linecap:butt; "/>
<!-- Line -->
<polyline points="3975,4500 6825,4500 " style="stroke:#000000;stroke-width:7; stroke-linejoin:miter; stroke-linecap:butt; "/>
<!-- Line -->
<polyline points="6900,4575 3825,4575 " style="stroke:#000000;stroke-width:7; stroke-linejoin:miter; stroke-linecap:butt; "/>
<!-- Line -->
<polyline points="3750,4650 7050,4650 " style="stroke:#000000;stroke-width:7; stroke-linejoin:miter; stroke-linecap:butt; "/>
<!-- Line -->
<polyline points="7125,4725 3675,4725 " style="stroke:#000000;stroke-width:7; stroke-linejoin:miter; stroke-linecap:butt; "/>
<!-- Line -->
<polyline points="3600,4800 6750,4800 " style="stroke:#000000;stroke-width:7; stroke-linejoin:miter; stroke-linecap:butt; "/>
<!-- Line -->
<polyline points="6450,4875 3525,4875 " style="stroke:#000000;stroke-width:7; stroke-linejoin:miter; stroke-linecap:butt; "/>
<!-- Line -->
<polyline points="6150,4950 3450,4950 " style="stroke:#000000;stroke-width:7; stroke-linejoin:miter; stroke-linecap:butt; "/>
<!-- Line -->
<polyline points="3375,5025 5925,5025 " style="stroke:#000000;stroke-width:7; stroke-linejoin:miter; stroke-linecap:butt; "/>
<!-- Line -->
<polyline points="5775,5100 3300,5100 " style="stroke:#000000;stroke-width:7; stroke-linejoin:miter; stroke-linecap:butt; "/>
<!-- Line -->
<polyline points="3300,5175 5550,5175 " style="stroke:#000000;stroke-width:7; stroke-linejoin:miter; stroke-linecap:butt; "/>
<!-- Line -->
<polyline points="5475,5250 5400,5250 5325,5250 5250,5250 5175,5250 5100,5250 5025,5250 4950,5250 4875,5250 4800,5250 4725,5250 4650,5250 4575,5250 4500,5250 4425,5250 4350,5250 4275,5250 4200,5250 4125,5250 4050,5250 3975,5250 3900,5250 3825,5250 3750,5250 3675,5250 3600,5250 3525,5250 3450,5250 3375,5250 3300,5250 3225,5250 " style="stroke:#000000;stroke-width:7; stroke-linejoin:miter; stroke-linecap:butt; "/>
<!-- Line -->
<polyline points="3225,5325 5325,5325 " style="stroke:#000000;stroke-width:7; stroke-linejoin:miter; stroke-linecap:butt; "/>
<!-- Line -->
<polyline points="5175,5400 5100,5400 5025,5400 4950,5400 4875,5400 4800,5400 4725,5400 4650,5400 4575,5400 4500,5400 4425,5400 4350,5400 4275,5400 4200,5400 4125,5400 4050,5400 3975,5400 3900,5400 3825,5400 3750,5400 3675,5400 3600,5400 3525,5400 3450,5400 3375,5400 3300,5400 3225,5400 3150,5400 " style="stroke:#000000;stroke-width:7; stroke-linejoin:miter; stroke-linecap:butt; "/>
<!-- Line -->
<polyline points="3150,5475 5100,5475 " style="stroke:#000000;stroke-width:7; stroke-linejoin:miter; stroke-linecap:butt; "/>
<!-- Line -->
<polyline points="4950,5550 3075,5550 " style="stroke:#000000;stroke-width:7; stroke-linejoin:miter; stroke-linecap:butt; "/>
<!-- Line -->
<polyline points="3075,5625 4875,5625 " style="stroke:#000000;stroke-width:7; stroke-linejoin:miter; stroke-linecap:butt; "/>
<!-- Line -->
<polyline points="4800,5700 3000,5700 " style="stroke:#000000;stroke-width:7; stroke-linejoin:miter; stroke-linecap:butt; "/>
<!-- Line -->
<polyline points="4650,5850 3000,5850 " style="stroke:#000000;stroke-width:7; stroke-linejoin:miter; stroke-linecap:butt; "/>
<!-- Line -->
<polyline points="2925,5925 4575,5925 " style="stroke:#000000;stroke-width:7; stroke-linejoin:miter; stroke-linecap:butt; "/>
<!-- Line -->
<polyline points="3000,5775 4725,5775 " style="stroke:#000000;stroke-width:7; stroke-linejoin:miter; stroke-linecap:butt; "/>
<!-- Line -->
<polyline points="2925,6000 4500,6000 " style="stroke:#000000;stroke-width:7; stroke-linejoin:miter; stroke-linecap:butt; "/>
<!-- Line -->
<polyline points="4425,6075 2925,6075 " style="stroke:#000000;stroke-width:7; stroke-linejoin:miter; stroke-linecap:butt; "/>
<!-- Line -->
<polyline points="2925,6150 4350,6150 " style="stroke:#000000;stroke-width:7; stroke-linejoin:miter; stroke-linecap:butt; "/>
<!-- Line -->
<polyline points="4350,6225 2925,6225 " style="stroke:#000000;stroke-width:7; stroke-linejoin:miter; stroke-linecap:butt; "/>
<!-- Line -->
<polyline points="2850,6300 4275,6300 " style="stroke:#000000;stroke-width:7; stroke-linejoin:miter; stroke-linecap:butt; "/>
<!-- Line -->
<polyline points="2850,6375 4200,6375 " style="stroke:#000000;stroke-width:7; stroke-linejoin:miter; stroke-linecap:butt; "/>
<!-- Line -->
<polyline points="2850,6450 4200,6450 " style="stroke:#000000;stroke-width:7; stroke-linejoin:miter; stroke-linecap:butt; "/>
<!-- Line -->
<polyline points="4125,6525 2850,6525 " style="stroke:#000000;stroke-width:7; stroke-linejoin:miter; stroke-linecap:butt; "/>
<!-- Line -->
<polyline points="2850,6600 4050,6600 " style="stroke:#000000;stroke-width:7; stroke-linejoin:miter; stroke-linecap:butt; "/>
<!-- Line -->
<polyline points="4050,6675 2850,6675 " style="stroke:#000000;stroke-width:7; stroke-linejoin:miter; stroke-linecap:butt; "/>
<!-- Line -->
<polyline points="2850,6825 3975,6825 " style="stroke:#000000;stroke-width:7; stroke-linejoin:miter; stroke-linecap:butt; "/>
<!-- Line -->
<polyline points="3975,6750 2850,6750 " style="stroke:#000000;stroke-width:7; stroke-linejoin:miter; stroke-linecap:butt; "/>
<!-- Line -->
<polyline points="2925,6900 3900,6900 " style="stroke:#000000;stroke-width:7; stroke-linejoin:miter; stroke-linecap:butt; "/>
<!-- Line -->
<polyline points="2925,6975 3900,6975 " style="stroke:#000000;stroke-width:7; stroke-linejoin:miter; stroke-linecap:butt; "/>
<!-- Line -->
<polyline points="3825,7050 2925,7050 " style="stroke:#000000;stroke-width:7; stroke-linejoin:miter; stroke-linecap:butt; "/>
<!-- Line -->
<polyline points="2925,7125 3825,7125 " style="stroke:#000000;stroke-width:7; stroke-linejoin:miter; stroke-linecap:butt; "/>
<!-- Line -->
<polyline points="3825,7200 2925,7200 " style="stroke:#000000;stroke-width:7; stroke-linejoin:miter; stroke-linecap:butt; "/>
<!-- Line -->
<polyline points="3000,7275 3750,7275 " style="stroke:#000000;stroke-width:7; stroke-linejoin:miter; stroke-linecap:butt; "/>
<!-- Line -->
<polyline points="3750,7350 3000,7350 " style="stroke:#000000;stroke-width:7; stroke-linejoin:miter; stroke-linecap:butt; "/>
<!-- Line -->
<polyline points="3000,7425 3750,7425 " style="stroke:#000000;stroke-width:7; stroke-linejoin:miter; stroke-linecap:butt; "/>
<!-- Line -->
<polyline points="3075,7575 3675,7575 " style="stroke:#000000;stroke-width:7; stroke-linejoin:miter; stroke-linecap:butt; "/>
<!-- Line -->
<polyline points="3750,7500 3000,7500 " style="stroke:#000000;stroke-width:7; stroke-linejoin:miter; stroke-linecap:butt; "/>
<!-- Line -->
<polyline points="3075,7650 3675,7650 " style="stroke:#000000;stroke-width:7; stroke-linejoin:miter; stroke-linecap:butt; "/>
<!-- Line -->
<polyline points="3675,7800 3150,7800 " style="stroke:#000000;stroke-width:7; stroke-linejoin:miter; stroke-linecap:butt; "/>
<!-- Line -->
<polyline points="3150,7725 3675,7725 " style="stroke:#000000;stroke-width:7; stroke-linejoin:miter; stroke-linecap:butt; "/>
<!-- Line -->
<polyline points="3600,7875 3225,7875 " style="stroke:#000000;stroke-width:7; stroke-linejoin:miter; stroke-linecap:butt; "/>
<!-- Line -->
<polyline points="3225,7950 3600,7950 " style="stroke:#000000;stroke-width:7; stroke-linejoin:miter; stroke-linecap:butt; "/>
<!-- Line -->
<polyline points="3600,8025 3300,8025 " style="stroke:#000000;stroke-width:7; stroke-linejoin:miter; stroke-linecap:butt; "/>
<!-- Line -->
<polyline points="3375,8100 3600,8100 " style="stroke:#000000;stroke-width:7; stroke-linejoin:miter; stroke-linecap:butt; "/>
<!-- Line -->
<polyline points="3600,8175 3375,8175 " style="stroke:#000000;stroke-width:7; stroke-linejoin:miter; stroke-linecap:butt; "/>
<!-- Line -->
<polyline points="3375,8175 3450,8250 3600,8250 " style="stroke:#000000;stroke-width:7; stroke-linejoin:miter; stroke-linecap:butt; "/>
<!-- Line -->
<polyline points="7200,4950 7050,4950 " style="stroke:#000000;stroke-width:7; stroke-linejoin:miter; stroke-linecap:butt; fill:#ffffff; "/>
<g style="stroke:#000000; stroke-width:7">
<defs>
<pattern id="tile1" x="0" y="0" width="200" height="200" patternUnits="userSpaceOnUse">
<path d="M 0 50 200 50"/>
<path d="M 0 150 200 150"/>
</pattern>
</defs>
</g>
<polyline points="7200,4950 7050,4950 " style="stroke:#000000;stroke-width:7; stroke-linejoin:miter; stroke-linecap:butt; fill:url(#tile1); "/>
<!-- Line -->
<polyline points="6975,5025 7200,5025 " style="stroke:#000000;stroke-width:7; stroke-linejoin:miter; stroke-linecap:butt; fill:#ffffff; "/>
<g style="stroke:#000000; stroke-width:7">
<defs>
<pattern id="tile2" x="0" y="0" width="200" height="200" patternUnits="userSpaceOnUse">
<path d="M 0 50 200 50"/>
<path d="M 0 150 200 150"/>
</pattern>
</defs>
</g>
<polyline points="6975,5025 7200,5025 " style="stroke:#000000;stroke-width:7; stroke-linejoin:miter; stroke-linecap:butt; fill:url(#tile2); "/>
<!-- Line -->
<polyline points="7200,5100 6900,5100 " style="stroke:#000000;stroke-width:7; stroke-linejoin:miter; stroke-linecap:butt; fill:#ffffff; "/>
<g style="stroke:#000000; stroke-width:7">
<defs>
<pattern id="tile3" x="0" y="0" width="200" height="200" patternUnits="userSpaceOnUse">
<path d="M 0 50 200 50"/>
<path d="M 0 150 200 150"/>
</pattern>
</defs>
</g>
<polyline points="7200,5100 6900,5100 " style="stroke:#000000;stroke-width:7; stroke-linejoin:miter; stroke-linecap:butt; fill:url(#tile3); "/>
<!-- Line -->
<polyline points="6825,5175 7200,5175 " style="stroke:#000000;stroke-width:7; stroke-linejoin:miter; stroke-linecap:butt; fill:#ffffff; "/>
<g style="stroke:#000000; stroke-width:7">
<defs>
<pattern id="tile4" x="0" y="0" width="200" height="200" patternUnits="userSpaceOnUse">
<path d="M 0 50 200 50"/>
<path d="M 0 150 200 150"/>
</pattern>
</defs>
</g>
<polyline points="6825,5175 7200,5175 " style="stroke:#000000;stroke-width:7; stroke-linejoin:miter; stroke-linecap:butt; fill:url(#tile4); "/>
<!-- Line -->
<polyline points="6750,5250 7200,5250 " style="stroke:#000000;stroke-width:7; stroke-linejoin:miter; stroke-linecap:butt; fill:#ffffff; "/>
<g style="stroke:#000000; stroke-width:7">
<defs>
<pattern id="tile5" x="0" y="0" width="200" height="200" patternUnits="userSpaceOnUse">
<path d="M 0 50 200 50"/>
<path d="M 0 150 200 150"/>
</pattern>
</defs>
</g>
<polyline points="6750,5250 7200,5250 " style="stroke:#000000;stroke-width:7; stroke-linejoin:miter; stroke-linecap:butt; fill:url(#tile5); "/>
<!-- Line -->
<polyline points="7200,5325 6675,5325 " style="stroke:#000000;stroke-width:7; stroke-linejoin:miter; stroke-linecap:butt; fill:#ffffff; "/>
<g style="stroke:#000000; stroke-width:7">
<defs>
<pattern id="tile6" x="0" y="0" width="200" height="200" patternUnits="userSpaceOnUse">
<path d="M 0 50 200 50"/>
<path d="M 0 150 200 150"/>
</pattern>
</defs>
</g>
<polyline points="7200,5325 6675,5325 " style="stroke:#000000;stroke-width:7; stroke-linejoin:miter; stroke-linecap:butt; fill:url(#tile6); "/>
<!-- Line -->
<polyline points="3750,8250 7200,8250 " style="stroke:#000000;stroke-width:7; stroke-linejoin:miter; stroke-linecap:butt; fill:#ffffff; "/>
<g style="stroke:#000000; stroke-width:7">
<defs>
<pattern id="tile7" x="0" y="0" width="200" height="200" patternUnits="userSpaceOnUse">
<path d="M 0 50 200 50"/>
<path d="M 0 150 200 150"/>
</pattern>
</defs>
</g>
<polyline points="3750,8250 7200,8250 " style="stroke:#000000;stroke-width:7; stroke-linejoin:miter; stroke-linecap:butt; fill:url(#tile7); "/>
<!-- Line -->
<polyline points="3675,8325 7200,8325 " style="stroke:#000000;stroke-width:7; stroke-linejoin:miter; stroke-linecap:butt; fill:#ffffff; "/>
<g style="stroke:#000000; stroke-width:7">
<defs>
<pattern id="tile8" x="0" y="0" width="200" height="200" patternUnits="userSpaceOnUse">
<path d="M 0 50 200 50"/>
<path d="M 0 150 200 150"/>
</pattern>
</defs>
</g>
<polyline points="3675,8325 7200,8325 " style="stroke:#000000;stroke-width:7; stroke-linejoin:miter; stroke-linecap:butt; fill:url(#tile8); "/>
<!-- Line -->
<polyline points="3825,8175 7200,8175 " style="stroke:#000000;stroke-width:7; stroke-linejoin:miter; stroke-linecap:butt; fill:#ffffff; "/>
<g style="stroke:#000000; stroke-width:7">
<defs>
<pattern id="tile9" x="0" y="0" width="200" height="200" patternUnits="userSpaceOnUse">
<path d="M 0 50 200 50"/>
<path d="M 0 150 200 150"/>
</pattern>
</defs>
</g>
<polyline points="3825,8175 7200,8175 " style="stroke:#000000;stroke-width:7; stroke-linejoin:miter; stroke-linecap:butt; fill:url(#tile9); "/>
<!-- Line -->
<polyline points="7200,8100 3900,8100 " style="stroke:#000000;stroke-width:7; stroke-linejoin:miter; stroke-linecap:butt; fill:#ffffff; "/>
<g style="stroke:#000000; stroke-width:7">
<defs>
<pattern id="tile10" x="0" y="0" width="200" height="200" patternUnits="userSpaceOnUse">
<path d="M 0 50 200 50"/>
<path d="M 0 150 200 150"/>
</pattern>
</defs>
</g>
<polyline points="7200,8100 3900,8100 " style="stroke:#000000;stroke-width:7; stroke-linejoin:miter; stroke-linecap:butt; fill:url(#tile10); "/>
<!-- Line -->
<polyline points="3975,8025 7200,8025 " style="stroke:#000000;stroke-width:7; stroke-linejoin:miter; stroke-linecap:butt; fill:#ffffff; "/>
<g style="stroke:#000000; stroke-width:7">
<defs>
<pattern id="tile11" x="0" y="0" width="200" height="200" patternUnits="userSpaceOnUse">
<path d="M 0 50 200 50"/>
<path d="M 0 150 200 150"/>
</pattern>
</defs>
</g>
<polyline points="3975,8025 7200,8025 " style="stroke:#000000;stroke-width:7; stroke-linejoin:miter; stroke-linecap:butt; fill:url(#tile11); "/>
<!-- Line -->
<polyline points="4050,7950 7200,7950 " style="stroke:#000000;stroke-width:7; stroke-linejoin:miter; stroke-linecap:butt; fill:#ffffff; "/>
<g style="stroke:#000000; stroke-width:7">
<defs>
<pattern id="tile12" x="0" y="0" width="200" height="200" patternUnits="userSpaceOnUse">
<path d="M 0 50 200 50"/>
<path d="M 0 150 200 150"/>
</pattern>
</defs>
</g>
<polyline points="4050,7950 7200,7950 " style="stroke:#000000;stroke-width:7; stroke-linejoin:miter; stroke-linecap:butt; fill:url(#tile12); "/>
<!-- Line -->
<polyline points="7200,7875 4125,7875 " style="stroke:#000000;stroke-width:7; stroke-linejoin:miter; stroke-linecap:butt; fill:#ffffff; "/>
<g style="stroke:#000000; stroke-width:7">
<defs>
<pattern id="tile13" x="0" y="0" width="200" height="200" patternUnits="userSpaceOnUse">
<path d="M 0 50 200 50"/>
<path d="M 0 150 200 150"/>
</pattern>
</defs>
</g>
<polyline points="7200,7875 4125,7875 " style="stroke:#000000;stroke-width:7; stroke-linejoin:miter; stroke-linecap:butt; fill:url(#tile13); "/>
<!-- Line -->
<polyline points="4200,7800 7200,7800 " style="stroke:#000000;stroke-width:7; stroke-linejoin:miter; stroke-linecap:butt; fill:#ffffff; "/>
<g style="stroke:#000000; stroke-width:7">
<defs>
<pattern id="tile14" x="0" y="0" width="200" height="200" patternUnits="userSpaceOnUse">
<path d="M 0 50 200 50"/>
<path d="M 0 150 200 150"/>
</pattern>
</defs>
</g>
<polyline points="4200,7800 7200,7800 " style="stroke:#000000;stroke-width:7; stroke-linejoin:miter; stroke-linecap:butt; fill:url(#tile14); "/>
<!-- Line -->
<polyline points="7200,7725 4275,7725 " style="stroke:#000000;stroke-width:7; stroke-linejoin:miter; stroke-linecap:butt; fill:#ffffff; "/>
<g style="stroke:#000000; stroke-width:7">
<defs>
<pattern id="tile15" x="0" y="0" width="200" height="200" patternUnits="userSpaceOnUse">
<path d="M 0 50 200 50"/>
<path d="M 0 150 200 150"/>
</pattern>
</defs>
</g>
<polyline points="7200,7725 4275,7725 " style="stroke:#000000;stroke-width:7; stroke-linejoin:miter; stroke-linecap:butt; fill:url(#tile15); "/>
<!-- Line -->
<polyline points="4350,7650 7200,7650 " style="stroke:#000000;stroke-width:7; stroke-linejoin:miter; stroke-linecap:butt; fill:#ffffff; "/>
<g style="stroke:#000000; stroke-width:7">
<defs>
<pattern id="tile16" x="0" y="0" width="200" height="200" patternUnits="userSpaceOnUse">
<path d="M 0 50 200 50"/>
<path d="M 0 150 200 150"/>
</pattern>
</defs>
</g>
<polyline points="4350,7650 7200,7650 " style="stroke:#000000;stroke-width:7; stroke-linejoin:miter; stroke-linecap:butt; fill:url(#tile16); "/>
<!-- Line -->
<polyline points="6600,5400 7200,5400 " style="stroke:#000000;stroke-width:7; stroke-linejoin:miter; stroke-linecap:butt; fill:#ffffff; "/>
<g style="stroke:#000000; stroke-width:7">
<defs>
<pattern id="tile17" x="0" y="0" width="200" height="200" patternUnits="userSpaceOnUse">
<path d="M 0 50 200 50"/>
<path d="M 0 150 200 150"/>
</pattern>
</defs>
</g>
<polyline points="6600,5400 7200,5400 " style="stroke:#000000;stroke-width:7; stroke-linejoin:miter; stroke-linecap:butt; fill:url(#tile17); "/>
<!-- Line -->
<polyline points="7200,5550 6450,5550 " style="stroke:#000000;stroke-width:7; stroke-linejoin:miter; stroke-linecap:butt; fill:#ffffff; "/>
<g style="stroke:#000000; stroke-width:7">
<defs>
<pattern id="tile18" x="0" y="0" width="200" height="200" patternUnits="userSpaceOnUse">
<path d="M 0 50 200 50"/>
<path d="M 0 150 200 150"/>
</pattern>
</defs>
</g>
<polyline points="7200,5550 6450,5550 " style="stroke:#000000;stroke-width:7; stroke-linejoin:miter; stroke-linecap:butt; fill:url(#tile18); "/>
<!-- Line -->
<polyline points="6525,5475 7200,5475 " style="stroke:#000000;stroke-width:7; stroke-linejoin:miter; stroke-linecap:butt; fill:#ffffff; "/>
<g style="stroke:#000000; stroke-width:7">
<defs>
<pattern id="tile19" x="0" y="0" width="200" height="200" patternUnits="userSpaceOnUse">
<path d="M 0 50 200 50"/>
<path d="M 0 150 200 150"/>
</pattern>
</defs>
</g>
<polyline points="6525,5475 7200,5475 " style="stroke:#000000;stroke-width:7; stroke-linejoin:miter; stroke-linecap:butt; fill:url(#tile19); "/>
<!-- Line -->
<polyline points="6375,5625 7200,5625 " style="stroke:#000000;stroke-width:7; stroke-linejoin:miter; stroke-linecap:butt; fill:#ffffff; "/>
<g style="stroke:#000000; stroke-width:7">
<defs>
<pattern id="tile20" x="0" y="0" width="200" height="200" patternUnits="userSpaceOnUse">
<path d="M 0 50 200 50"/>
<path d="M 0 150 200 150"/>
</pattern>
</defs>
</g>
<polyline points="6375,5625 7200,5625 " style="stroke:#000000;stroke-width:7; stroke-linejoin:miter; stroke-linecap:butt; fill:url(#tile20); "/>
<!-- Line -->
<polyline points="7200,5700 6300,5700 " style="stroke:#000000;stroke-width:7; stroke-linejoin:miter; stroke-linecap:butt; fill:#ffffff; "/>
<g style="stroke:#000000; stroke-width:7">
<defs>
<pattern id="tile21" x="0" y="0" width="200" height="200" patternUnits="userSpaceOnUse">
<path d="M 0 50 200 50"/>
<path d="M 0 150 200 150"/>
</pattern>
</defs>
</g>
<polyline points="7200,5700 6300,5700 " style="stroke:#000000;stroke-width:7; stroke-linejoin:miter; stroke-linecap:butt; fill:url(#tile21); "/>
<!-- Line -->
<polyline points="6225,5775 7200,5775 " style="stroke:#000000;stroke-width:7; stroke-linejoin:miter; stroke-linecap:butt; fill:#ffffff; "/>
<g style="stroke:#000000; stroke-width:7">
<defs>
<pattern id="tile22" x="0" y="0" width="200" height="200" patternUnits="userSpaceOnUse">
<path d="M 0 50 200 50"/>
<path d="M 0 150 200 150"/>
</pattern>
</defs>
</g>
<polyline points="6225,5775 7200,5775 " style="stroke:#000000;stroke-width:7; stroke-linejoin:miter; stroke-linecap:butt; fill:url(#tile22); "/>
<!-- Line -->
<polyline points="7200,5850 6150,5850 " style="stroke:#000000;stroke-width:7; stroke-linejoin:miter; stroke-linecap:butt; fill:#ffffff; "/>
<g style="stroke:#000000; stroke-width:7">
<defs>
<pattern id="tile23" x="0" y="0" width="200" height="200" patternUnits="userSpaceOnUse">
<path d="M 0 50 200 50"/>
<path d="M 0 150 200 150"/>
</pattern>
</defs>
</g>
<polyline points="7200,5850 6150,5850 " style="stroke:#000000;stroke-width:7; stroke-linejoin:miter; stroke-linecap:butt; fill:url(#tile23); "/>
<!-- Line -->
<polyline points="6075,5925 7200,5925 " style="stroke:#000000;stroke-width:7; stroke-linejoin:miter; stroke-linecap:butt; fill:#ffffff; "/>
<g style="stroke:#000000; stroke-width:7">
<defs>
<pattern id="tile24" x="0" y="0" width="200" height="200" patternUnits="userSpaceOnUse">
<path d="M 0 50 200 50"/>
<path d="M 0 150 200 150"/>
</pattern>
</defs>
</g>
<polyline points="6075,5925 7200,5925 " style="stroke:#000000;stroke-width:7; stroke-linejoin:miter; stroke-linecap:butt; fill:url(#tile24); "/>
<!-- Line -->
<polyline points="7200,6000 6000,6000 " style="stroke:#000000;stroke-width:7; stroke-linejoin:miter; stroke-linecap:butt; fill:#ffffff; "/>
<g style="stroke:#000000; stroke-width:7">
<defs>
<pattern id="tile25" x="0" y="0" width="200" height="200" patternUnits="userSpaceOnUse">
<path d="M 0 50 200 50"/>
<path d="M 0 150 200 150"/>
</pattern>
</defs>
</g>
<polyline points="7200,6000 6000,6000 " style="stroke:#000000;stroke-width:7; stroke-linejoin:miter; stroke-linecap:butt; fill:url(#tile25); "/>
<!-- Line -->
<polyline points="5925,6075 7200,6075 " style="stroke:#000000;stroke-width:7; stroke-linejoin:miter; stroke-linecap:butt; fill:#ffffff; "/>
<g style="stroke:#000000; stroke-width:7">
<defs>
<pattern id="tile26" x="0" y="0" width="200" height="200" patternUnits="userSpaceOnUse">
<path d="M 0 50 200 50"/>
<path d="M 0 150 200 150"/>
</pattern>
</defs>
</g>
<polyline points="5925,6075 7200,6075 " style="stroke:#000000;stroke-width:7; stroke-linejoin:miter; stroke-linecap:butt; fill:url(#tile26); "/>
<!-- Line -->
<polyline points="5850,6150 7200,6150 " style="stroke:#000000;stroke-width:7; stroke-linejoin:miter; stroke-linecap:butt; fill:#ffffff; "/>
<g style="stroke:#000000; stroke-width:7">
<defs>
<pattern id="tile27" x="0" y="0" width="200" height="200" patternUnits="userSpaceOnUse">
<path d="M 0 50 200 50"/>
<path d="M 0 150 200 150"/>
</pattern>
</defs>
</g>
<polyline points="5850,6150 7200,6150 " style="stroke:#000000;stroke-width:7; stroke-linejoin:miter; stroke-linecap:butt; fill:url(#tile27); "/>
<!-- Line -->
<polyline points="7200,6225 5775,6225 " style="stroke:#000000;stroke-width:7; stroke-linejoin:miter; stroke-linecap:butt; fill:#ffffff; "/>
<g style="stroke:#000000; stroke-width:7">
<defs>
<pattern id="tile28" x="0" y="0" width="200" height="200" patternUnits="userSpaceOnUse">
<path d="M 0 50 200 50"/>
<path d="M 0 150 200 150"/>
</pattern>
</defs>
</g>
<polyline points="7200,6225 5775,6225 " style="stroke:#000000;stroke-width:7; stroke-linejoin:miter; stroke-linecap:butt; fill:url(#tile28); "/>
<!-- Line -->
<polyline points="5700,6300 7200,6300 " style="stroke:#000000;stroke-width:7; stroke-linejoin:miter; stroke-linecap:butt; fill:#ffffff; "/>
<g style="stroke:#000000; stroke-width:7">
<defs>
<pattern id="tile29" x="0" y="0" width="200" height="200" patternUnits="userSpaceOnUse">
<path d="M 0 50 200 50"/>
<path d="M 0 150 200 150"/>
</pattern>
</defs>
</g>
<polyline points="5700,6300 7200,6300 " style="stroke:#000000;stroke-width:7; stroke-linejoin:miter; stroke-linecap:butt; fill:url(#tile29); "/>
<!-- Line -->
<polyline points="7200,6375 5625,6375 " style="stroke:#000000;stroke-width:7; stroke-linejoin:miter; stroke-linecap:butt; fill:#ffffff; "/>
<g style="stroke:#000000; stroke-width:7">
<defs>
<pattern id="tile30" x="0" y="0" width="200" height="200" patternUnits="userSpaceOnUse">
<path d="M 0 50 200 50"/>
<path d="M 0 150 200 150"/>
</pattern>
</defs>
</g>
<polyline points="7200,6375 5625,6375 " style="stroke:#000000;stroke-width:7; stroke-linejoin:miter; stroke-linecap:butt; fill:url(#tile30); "/>
<!-- Line -->
<polyline points="5550,6450 7200,6450 " style="stroke:#000000;stroke-width:7; stroke-linejoin:miter; stroke-linecap:butt; fill:#ffffff; "/>
<g style="stroke:#000000; stroke-width:7">
<defs>
<pattern id="tile31" x="0" y="0" width="200" height="200" patternUnits="userSpaceOnUse">
<path d="M 0 50 200 50"/>
<path d="M 0 150 200 150"/>
</pattern>
</defs>
</g>
<polyline points="5550,6450 7200,6450 " style="stroke:#000000;stroke-width:7; stroke-linejoin:miter; stroke-linecap:butt; fill:url(#tile31); "/>
<!-- Line -->
<polyline points="5475,6525 7200,6525 " style="stroke:#000000;stroke-width:7; stroke-linejoin:miter; stroke-linecap:butt; fill:#ffffff; "/>
<g style="stroke:#000000; stroke-width:7">
<defs>
<pattern id="tile32" x="0" y="0" width="200" height="200" patternUnits="userSpaceOnUse">
<path d="M 0 50 200 50"/>
<path d="M 0 150 200 150"/>
</pattern>
</defs>
</g>
<polyline points="5475,6525 7200,6525 " style="stroke:#000000;stroke-width:7; stroke-linejoin:miter; stroke-linecap:butt; fill:url(#tile32); "/>
<!-- Line -->
<polyline points="5400,6600 7200,6600 " style="stroke:#000000;stroke-width:7; stroke-linejoin:miter; stroke-linecap:butt; fill:#ffffff; "/>
<g style="stroke:#000000; stroke-width:7">
<defs>
<pattern id="tile33" x="0" y="0" width="200" height="200" patternUnits="userSpaceOnUse">
<path d="M 0 50 200 50"/>
<path d="M 0 150 200 150"/>
</pattern>
</defs>
</g>
<polyline points="5400,6600 7200,6600 " style="stroke:#000000;stroke-width:7; stroke-linejoin:miter; stroke-linecap:butt; fill:url(#tile33); "/>
<!-- Line -->
<polyline points="7200,6675 5325,6675 " style="stroke:#000000;stroke-width:7; stroke-linejoin:miter; stroke-linecap:butt; fill:#ffffff; "/>
<g style="stroke:#000000; stroke-width:7">
<defs>
<pattern id="tile34" x="0" y="0" width="200" height="200" patternUnits="userSpaceOnUse">
<path d="M 0 50 200 50"/>
<path d="M 0 150 200 150"/>
</pattern>
</defs>
</g>
<polyline points="7200,6675 5325,6675 " style="stroke:#000000;stroke-width:7; stroke-linejoin:miter; stroke-linecap:butt; fill:url(#tile34); "/>
<!-- Line -->
<polyline points="5250,6750 7200,6750 " style="stroke:#000000;stroke-width:7; stroke-linejoin:miter; stroke-linecap:butt; fill:#ffffff; "/>
<g style="stroke:#000000; stroke-width:7">
<defs>
<pattern id="tile35" x="0" y="0" width="200" height="200" patternUnits="userSpaceOnUse">
<path d="M 0 50 200 50"/>
<path d="M 0 150 200 150"/>
</pattern>
</defs>
</g>
<polyline points="5250,6750 7200,6750 " style="stroke:#000000;stroke-width:7; stroke-linejoin:miter; stroke-linecap:butt; fill:url(#tile35); "/>
<!-- Line -->
<polyline points="7200,6825 5175,6825 " style="stroke:#000000;stroke-width:7; stroke-linejoin:miter; stroke-linecap:butt; fill:#ffffff; "/>
<g style="stroke:#000000; stroke-width:7">
<defs>
<pattern id="tile36" x="0" y="0" width="200" height="200" patternUnits="userSpaceOnUse">
<path d="M 0 50 200 50"/>
<path d="M 0 150 200 150"/>
</pattern>
</defs>
</g>
<polyline points="7200,6825 5175,6825 " style="stroke:#000000;stroke-width:7; stroke-linejoin:miter; stroke-linecap:butt; fill:url(#tile36); "/>
<!-- Line -->
<polyline points="5100,6900 7200,6900 " style="stroke:#000000;stroke-width:7; stroke-linejoin:miter; stroke-linecap:butt; fill:#ffffff; "/>
<g style="stroke:#000000; stroke-width:7">
<defs>
<pattern id="tile37" x="0" y="0" width="200" height="200" patternUnits="userSpaceOnUse">
<path d="M 0 50 200 50"/>
<path d="M 0 150 200 150"/>
</pattern>
</defs>
</g>
<polyline points="5100,6900 7200,6900 " style="stroke:#000000;stroke-width:7; stroke-linejoin:miter; stroke-linecap:butt; fill:url(#tile37); "/>
<!-- Line -->
<polyline points="7200,6975 5025,6975 " style="stroke:#000000;stroke-width:7; stroke-linejoin:miter; stroke-linecap:butt; fill:#ffffff; "/>
<g style="stroke:#000000; stroke-width:7">
<defs>
<pattern id="tile38" x="0" y="0" width="200" height="200" patternUnits="userSpaceOnUse">
<path d="M 0 50 200 50"/>
<path d="M 0 150 200 150"/>
</pattern>
</defs>
</g>
<polyline points="7200,6975 5025,6975 " style="stroke:#000000;stroke-width:7; stroke-linejoin:miter; stroke-linecap:butt; fill:url(#tile38); "/>
<!-- Line -->
<polyline points="4950,7050 7200,7050 " style="stroke:#000000;stroke-width:7; stroke-linejoin:miter; stroke-linecap:butt; fill:#ffffff; "/>
<g style="stroke:#000000; stroke-width:7">
<defs>
<pattern id="tile39" x="0" y="0" width="200" height="200" patternUnits="userSpaceOnUse">
<path d="M 0 50 200 50"/>
<path d="M 0 150 200 150"/>
</pattern>
</defs>
</g>
<polyline points="4950,7050 7200,7050 " style="stroke:#000000;stroke-width:7; stroke-linejoin:miter; stroke-linecap:butt; fill:url(#tile39); "/>
<!-- Line -->
<polyline points="4875,7125 7200,7125 " style="stroke:#000000;stroke-width:7; stroke-linejoin:miter; stroke-linecap:butt; fill:#ffffff; "/>
<g style="stroke:#000000; stroke-width:7">
<defs>
<pattern id="tile40" x="0" y="0" width="200" height="200" patternUnits="userSpaceOnUse">
<path d="M 0 50 200 50"/>
<path d="M 0 150 200 150"/>
</pattern>
</defs>
</g>
<polyline points="4875,7125 7200,7125 " style="stroke:#000000;stroke-width:7; stroke-linejoin:miter; stroke-linecap:butt; fill:url(#tile40); "/>
<!-- Line -->
<polyline points="7200,7200 4800,7200 " style="stroke:#000000;stroke-width:7; stroke-linejoin:miter; stroke-linecap:butt; fill:#ffffff; "/>
<g style="stroke:#000000; stroke-width:7">
<defs>
<pattern id="tile41" x="0" y="0" width="200" height="200" patternUnits="userSpaceOnUse">
<path d="M 0 50 200 50"/>
<path d="M 0 150 200 150"/>
</pattern>
</defs>
</g>
<polyline points="7200,7200 4800,7200 " style="stroke:#000000;stroke-width:7; stroke-linejoin:miter; stroke-linecap:butt; fill:url(#tile41); "/>
<!-- Line -->
<polyline points="4725,7275 7200,7275 " style="stroke:#000000;stroke-width:7; stroke-linejoin:miter; stroke-linecap:butt; fill:#ffffff; "/>
<g style="stroke:#000000; stroke-width:7">
<defs>
<pattern id="tile42" x="0" y="0" width="200" height="200" patternUnits="userSpaceOnUse">
<path d="M 0 50 200 50"/>
<path d="M 0 150 200 150"/>
</pattern>
</defs>
</g>
<polyline points="4725,7275 7200,7275 " style="stroke:#000000;stroke-width:7; stroke-linejoin:miter; stroke-linecap:butt; fill:url(#tile42); "/>
<!-- Line -->
<polyline points="7200,7350 4650,7350 " style="stroke:#000000;stroke-width:7; stroke-linejoin:miter; stroke-linecap:butt; fill:#ffffff; "/>
<g style="stroke:#000000; stroke-width:7">
<defs>
<pattern id="tile43" x="0" y="0" width="200" height="200" patternUnits="userSpaceOnUse">
<path d="M 0 50 200 50"/>
<path d="M 0 150 200 150"/>
</pattern>
</defs>
</g>
<polyline points="7200,7350 4650,7350 " style="stroke:#000000;stroke-width:7; stroke-linejoin:miter; stroke-linecap:butt; fill:url(#tile43); "/>
<!-- Line -->
<polyline points="4575,7425 7200,7425 " style="stroke:#000000;stroke-width:7; stroke-linejoin:miter; stroke-linecap:butt; fill:#ffffff; "/>
<g style="stroke:#000000; stroke-width:7">
<defs>
<pattern id="tile44" x="0" y="0" width="200" height="200" patternUnits="userSpaceOnUse">
<path d="M 0 50 200 50"/>
<path d="M 0 150 200 150"/>
</pattern>
</defs>
</g>
<polyline points="4575,7425 7200,7425 " style="stroke:#000000;stroke-width:7; stroke-linejoin:miter; stroke-linecap:butt; fill:url(#tile44); "/>
<!-- Line -->
<polyline points="7200,7500 4500,7500 " style="stroke:#000000;stroke-width:7; stroke-linejoin:miter; stroke-linecap:butt; fill:#ffffff; "/>
<g style="stroke:#000000; stroke-width:7">
<defs>
<pattern id="tile45" x="0" y="0" width="200" height="200" patternUnits="userSpaceOnUse">
<path d="M 0 50 200 50"/>
<path d="M 0 150 200 150"/>
</pattern>
</defs>
</g>
<polyline points="7200,7500 4500,7500 " style="stroke:#000000;stroke-width:7; stroke-linejoin:miter; stroke-linecap:butt; fill:url(#tile45); "/>
<!-- Line -->
<polyline points="4425,7575 7200,7575 " style="stroke:#000000;stroke-width:7; stroke-linejoin:miter; stroke-linecap:butt; fill:#ffffff; "/>
<g style="stroke:#000000; stroke-width:7">
<defs>
<pattern id="tile46" x="0" y="0" width="200" height="200" patternUnits="userSpaceOnUse">
<path d="M 0 50 200 50"/>
<path d="M 0 150 200 150"/>
</pattern>
</defs>
</g>
<polyline points="4425,7575 7200,7575 " style="stroke:#000000;stroke-width:7; stroke-linejoin:miter; stroke-linecap:butt; fill:url(#tile46); "/>
<!-- Text -->
<text xml:space="preserve" x="6975" y="8925" stroke="#000000" fill="#000000" font-family="Palatino" font-style="italic" font-weight="bold" font-size="288" text-anchor="start">O</text>
<!-- Text -->
<text xml:space="preserve" x="3375" y="8925" stroke="#000000" fill="#000000" font-family="Palatino" font-style="italic" font-weight="bold" font-size="288" text-anchor="start">A</text>
<!-- Text -->
<text xml:space="preserve" x="10650" y="8925" stroke="#000000" fill="#000000" font-family="Palatino" font-style="italic" font-weight="bold" font-size="288" text-anchor="start">C</text>
<!-- Text -->
<text xml:space="preserve" x="7125" y="4500" stroke="#000000" fill="#000000" font-family="Palatino" font-style="italic" font-weight="bold" font-size="288" text-anchor="start">B</text>
<!-- Text -->
<text xml:space="preserve" x="3150" y="4650" stroke="#000000" fill="#000000" font-family="Palatino" font-style="italic" font-weight="bold" font-size="288" text-anchor="start">E</text>
<!-- Text -->
<text xml:space="preserve" x="4650" y="6225" stroke="#000000" fill="#000000" font-family="Palatino" font-style="italic" font-weight="bold" font-size="288" text-anchor="start">F</text>
<!-- Text -->
<text xml:space="preserve" x="5025" y="6600" stroke="#000000" fill="#000000" font-family="Palatino" font-style="italic" font-weight="bold" font-size="288" text-anchor="start">D</text>
</g>
</svg>