<?xml version="1.0" encoding="UTF-8" standalone="no"?>
<!-- Created with Inkscape (http://www.inkscape.org/) -->
<svg xmlns:dc="http://purl.org/dc/elements/1.1/" xmlns:cc="http://creativecommons.org/ns#" xmlns:rdf="http://www.w3.org/1999/02/22-rdf-syntax-ns#" xmlns:svg="http://www.w3.org/2000/svg" xmlns="http://www.w3.org/2000/svg" xmlns:sodipodi="http://sodipodi.sourceforge.net/DTD/sodipodi-0.dtd" xmlns:inkscape="http://www.inkscape.org/namespaces/inkscape" width="474.14584" height="418.72745" id="svg2" sodipodi:version="0.32" inkscape:version="0.46" sodipodi:docname="Archimedes_Parabola.svg" inkscape:output_extension="org.inkscape.output.svg.inkscape" version="1.0">
  <defs id="defs4"/>
  <sodipodi:namedview id="base" pagecolor="#ffffff" bordercolor="#666666" borderopacity="1.0" gridtolerance="10000" guidetolerance="10" objecttolerance="10" inkscape:pageopacity="0.0" inkscape:pageshadow="2" inkscape:zoom="0.98994949" inkscape:cx="-11.587268" inkscape:cy="157.72287" inkscape:document-units="px" inkscape:current-layer="layer1" showgrid="false" inkscape:window-width="1657" inkscape:window-height="1000" inkscape:window-x="23" inkscape:window-y="0" showguides="true" inkscape:guide-bbox="true"/>
  <metadata id="metadata7">
    <rdf:RDF>
      <cc:Work rdf:about="">
        <dc:format>image/svg+xml</dc:format>
        <dc:type rdf:resource="http://purl.org/dc/dcmitype/StillImage"/>
      </cc:Work>
    </rdf:RDF>
  </metadata>
  <g inkscape:label="Layer 1" inkscape:groupmode="layer" id="layer1" transform="translate(428.34744,637.69559)">
    <path sodipodi:nodetypes="csssssssssccc" style="fill:#fe0000;fill-opacity:1;stroke:#000000;stroke-opacity:1" d="M 679.1841,-382.03753 C 679.7754,-383.55003 683.0982,-392.88753 686.5681,-402.78753 C 698.1884,-435.94144 707.8932,-462.71022 711.5836,-471.78753 C 733.2059,-524.97274 738.82448,-537.65293 757.2217,-574.78753 C 772.7914,-606.2148 786.63879,-633.78143 806.4694,-656.26768 C 822.71291,-674.68646 827.55436,-682.65427 841.05935,-695.11556 C 856.35484,-709.22898 873.35602,-719.00122 889.05935,-723.34781 C 900.97731,-726.64664 919.10173,-726.70159 930.45438,-723.46495 C 998.57603,-704.04348 1064.1705,-601.24333 1131.6369,-408.16999 C 1136.8193,-393.3393 1140.6576,-380.95222 1140.6576,-380.42489 C 1140.6576,-379.81593 1056.6454,-383.41982 909.62874,-380.53753 L 678.51069,-380.31432 L 679.1841,-382.03753 z" id="path3277"/>
    <g id="g3620">
      <g id="g3603">
        <path id="path3583" style="fill:#ff0000;fill-rule:evenodd;stroke:#000000;stroke-width:1px;stroke-linecap:butt;stroke-linejoin:miter;stroke-opacity:1" d="M 41.691224,-292.23662 C 36.316324,-305.78069 -66.808876,-645.00744 -190.41587,-637.05805 C -314.02288,-645.00744 -417.14808,-305.78069 -422.52298,-292.23662 L 41.691224,-292.23662 z" sodipodi:nodetypes="cccc"/>
        <path sodipodi:nodetypes="cccccccccc" style="fill:#e5fee5;fill-opacity:1;fill-rule:evenodd;stroke:#000000;stroke-width:1px;stroke-linecap:butt;stroke-linejoin:miter;stroke-opacity:1" d="M -421.4873,-292.48395 L 40.298406,-292.57324 L -16.844455,-444.00182 L -76.130157,-553.28753 L -133.27302,-616.14468 L -190.41588,-636.85896 L -248.27302,-616.14468 L -305.41588,-553.28753 L -363.27302,-444.00182 L -421.4873,-292.48395 z" id="path2854"/>
        <path style="fill:#fefe99;fill-opacity:1;fill-rule:evenodd;stroke:#000000;stroke-width:1px;stroke-linecap:butt;stroke-linejoin:miter;stroke-opacity:1" d="M -190.41588,-636.85896 L -305.41588,-553.28753 L -421.13016,-292.57325 L 40.298408,-292.57325 L -76.130159,-553.28753 L -190.41588,-636.85896" id="path2852" sodipodi:nodetypes="cccccc"/>
        <path style="fill:#cce5fe;fill-opacity:1;fill-rule:evenodd;stroke:#000000;stroke-width:1px;stroke-linecap:butt;stroke-linejoin:miter;stroke-opacity:1" d="M -421.13016,-292.57325 L -190.41589,-636.85896 L 40.298408,-292.57325 L -421.13016,-292.57325 z" id="path2842"/>
        <path id="path2461" style="fill:none;fill-rule:evenodd;stroke:#000000;stroke-width:3;stroke-linecap:butt;stroke-linejoin:miter;stroke-miterlimit:4;stroke-dasharray:none;stroke-opacity:1" d="M -421.13016,-265.621 L -392.29087,-265.621 L -363.45159,-265.621 L -334.6123,-265.621 L -305.77302,-265.621 L -276.93373,-265.621 L -248.09445,-265.621 L -219.25516,-265.621 L -190.41588,-265.621 L -161.57659,-265.621 L -132.7373,-265.621 L -103.89802,-265.621 L -75.058731,-265.621 L -46.219451,-265.621 L -17.380161,-265.621 L 11.45912,-265.621 L 40.298409,-265.621 M -421.13016,-284.5138 L -421.13016,-247.13816 L -421.13016,-247.13816 M -392.55873,-270.621 L -392.55873,-260.621 M -363.27302,-274.90671 L -363.27302,-256.33528 M -334.70159,-270.621 L -334.70159,-260.621 M -306.10254,-284.5138 L -306.10254,-247.13816 M -276.84445,-260.621 L -276.84445,-270.621 M -248.27302,-274.90671 L -248.27302,-256.33528 M -218.9873,-260.621 L -218.9873,-270.621 M -190.41588,-247.13816 L -190.41588,-284.5138 M -161.84445,-270.621 L -161.84445,-260.621 M -133.27302,-256.33528 L -133.27302,-274.90671 M -103.9873,-270.621 L -103.9873,-260.621 M -75.415871,-247.13816 L -75.415871,-284.5138 M -46.130161,-260.621 L -46.130161,-270.621 M -17.558731,-256.33528 L -17.558731,-274.90671 M 11.72698,-260.621 L 11.72698,-270.621 M 40.298409,-284.5138 L 40.298409,-247.13816"/>
        <text xml:space="preserve" style="font-size:30px;font-style:normal;font-weight:normal;fill:#000000;fill-opacity:1;stroke:none;stroke-width:1px;stroke-linecap:butt;stroke-linejoin:miter;stroke-opacity:1;font-family:Bitstream Vera Sans" x="-430.32498" y="-220.57216" id="text3437"><tspan sodipodi:role="line" id="tspan3439" x="-430.32498" y="-220.57216">0</tspan></text>
        <text xml:space="preserve" style="font-size:30px;font-style:normal;font-weight:normal;fill:#000000;fill-opacity:1;stroke:none;stroke-width:1px;stroke-linecap:butt;stroke-linejoin:miter;stroke-opacity:1;font-family:Bitstream Vera Sans" x="-100.7001" y="-221.94911" id="text3441"><tspan sodipodi:role="line" id="tspan3443" x="-100.7001" y="-221.94911">1/4</tspan></text>
        <text xml:space="preserve" style="font-size:30px;font-style:normal;font-weight:normal;fill:#000000;fill-opacity:1;stroke:none;stroke-width:1px;stroke-linecap:butt;stroke-linejoin:miter;stroke-opacity:1;font-family:Bitstream Vera Sans" x="-330.07892" y="-221.75136" id="text3445"><tspan sodipodi:role="line" id="tspan3447" x="-330.07892" y="-221.75136">1/2</tspan></text>
        <text xml:space="preserve" style="font-size:30px;font-style:normal;font-weight:normal;fill:#000000;fill-opacity:1;stroke:none;stroke-width:1px;stroke-linecap:butt;stroke-linejoin:miter;stroke-opacity:1;font-family:Bitstream Vera Sans" x="-215.21373" y="-221.75136" id="text3449"><tspan sodipodi:role="line" id="tspan3451" x="-215.21373" y="-221.75136">3/4</tspan></text>
        <text xml:space="preserve" style="font-size:30px;font-style:normal;font-weight:normal;fill:#000000;fill-opacity:1;stroke:none;stroke-width:1px;stroke-linecap:butt;stroke-linejoin:miter;stroke-opacity:1;font-family:Bitstream Vera Sans" x="29.480042" y="-220.55751" id="text3453"><tspan sodipodi:role="line" id="tspan3455" x="29.480042" y="-220.55751">1</tspan></text>
      </g>
    </g>
  </g>
</svg>