<?xml version="1.0" encoding="UTF-8" standalone="no"?>
<!-- Created with Inkscape (http://www.inkscape.org/) -->
<svg xmlns:dc="http://purl.org/dc/elements/1.1/" xmlns:cc="http://creativecommons.org/ns#" xmlns:rdf="http://www.w3.org/1999/02/22-rdf-syntax-ns#" xmlns:svg="http://www.w3.org/2000/svg" xmlns="http://www.w3.org/2000/svg" version="1.1" width="576.69501" height="349.76401" id="svg2">
  <metadata id="metadata40">
    <rdf:RDF>
      <cc:Work rdf:about="">
        <dc:format>image/svg+xml</dc:format>
        <dc:type rdf:resource="http://purl.org/dc/dcmitype/StillImage"/>
        <dc:title/>
      </cc:Work>
    </rdf:RDF>
  </metadata>
  <defs id="defs4">
    <marker markerUnits="strokeWidth" refX="0" refY="5" markerWidth="4" markerHeight="3" orient="auto" viewBox="0 0 10 10" id="ArrowEnd">
      <path d="M 0,0 10,5 0,10 z" id="path7"/>
    </marker>
    <marker markerUnits="strokeWidth" refX="10" refY="5" markerWidth="4" markerHeight="3" orient="auto" viewBox="0 0 10 10" id="ArrowStart">
      <path d="M 10,0 0,5 10,10 z" id="path10"/>
    </marker>
  </defs>
  <g id="g12">
    <path d="m 33.403,33.337 510.237,283.464 -510.237,0 0,-283.464 z" id="path14" style="fill:none;stroke:#000000;stroke-width:2;stroke-linejoin:round"/>
    <path d="m 33.403,316.801 120.34,-216.61" id="path16" style="fill:none;stroke:#000000;stroke-width:0.5;stroke-linecap:round;stroke-linejoin:round"/>
    <path d="M 12.7605,0.699005 C 12.5861,0.246002 12.5164,0 11.9585,0 11.4006,0 11.2959,0.209015 11.1216,0.699005 L 3.9037,21.551 C 3.27632,23.329 1.88214,23.852 0,23.887 l 0,1.08 c 0.80162,-0.034 2.3003,-0.105 3.55501,-0.105 1.08196,0 2.89688,0.07 4.01375,0.105 l 0,-1.08 c -1.74599,0 -2.61518,-0.872 -2.61518,-1.778 0,-0.105 0.03296,-0.453 0.06593,-0.523 l 1.60398,-4.569 8.61271,0 1.848,5.336 c 0.0349,0.139 0.1063,0.349 0.1063,0.488 0,1.046 -1.9527,1.046 -2.8942,1.046 l 0,1.081 c 1.2549,-0.104 3.6949,-0.106 5.0195,-0.106 1.5007,0 3.106,0.034 4.5717,0.105 l 0,-1.08 -0.6315,0 c -2.0921,0 -2.5803,-0.244 -2.9638,-1.395 L 12.7605,0.699005 z M 10.9124,4.60501 14.8526,15.937 7.00705,15.937 10.9124,4.60501 z M 25.0344,24.968" id="path18" style="fill:#000000;fill-rule:evenodd;stroke:none"/>
    <path d="m 559.747,336.24 0,-8.583 c 0,-1.151 0.071,-1.393 1.711,-1.393 l 4.323,0 c 3.383,0 4.602,2.963 4.602,4.81 0,2.232 -1.709,5.166 -5.578,5.166 l -5.058,0 z m 8.23,0.309 c 3.382,-0.663 5.789,-2.894 5.789,-5.475 0,-3.033 -3.209,-5.889 -7.74,-5.889 l -12.763,0 0,1.079 0.836,0 c 2.685,0 2.753,0.384 2.753,1.637 l 0,18.376 c 0,1.255 -0.069,1.64 -2.753,1.64 l -0.836,0 0,1.08 13.669,0 c 4.638,0 7.779,-3.103 7.779,-6.381 0,-3.034 -2.862,-5.649 -6.734,-6.067 z m -2.162,11.368 -4.357,0 c -1.64,0 -1.711,-0.244 -1.711,-1.396 l 0,-9.516 6.558,0 c 3.45,0 4.918,3.241 4.918,5.576 0,2.476 -1.814,5.336 -5.408,5.336 z m 10.88,1.08" id="path20" style="fill:#000000;fill-rule:evenodd;stroke:none"/>
    <path d="m 23.04,325.251 c 0,-0.593 -10e-4,-0.834 -0.3846,-0.834 -0.1394,0 -0.2789,-0.003 -0.5579,0.416 l -1.7434,2.58 c -1.2902,-1.255 -3.0685,-2.996 -6.4159,-2.996 -6.52056,0 -12.1382,5.543 -12.1382,12.655 0,7.218 5.65052,12.692 12.1382,12.692 5.6836,0 9.1018,-4.847 9.1018,-8.892 0,-0.348 -10e-4,-0.592 -0.4543,-0.592 -0.3794,0 -0.3794,0.209 -0.4139,0.558 -0.2791,4.986 -4.0122,7.846 -7.8152,7.846 -2.127,0 -8.9641,-1.186 -8.9641,-11.577 0,-10.426 6.8016,-11.61 8.9292,-11.61 3.8008,0 6.9041,3.173 7.6015,8.262 0.0697,0.488 0.0697,0.593 0.5579,0.593 0.5579,0 0.5589,-0.105 0.5589,-0.837 l 0,-8.264 z m 1.9865,23.746" id="path22" style="fill:#000000;fill-rule:evenodd;stroke:none"/>
    <path d="m 162.046,67.14 c 0,-1.255 0.069,-1.643 2.75,-1.643 l 0.837,0 0,-1.077 c -1.22,0.105 -3.801,0.102 -5.126,0.102 -1.325,0 -3.94,0.003 -5.16,-0.102 l 0,1.077 0.837,0 c 2.684,0 2.757,0.385 2.757,1.643 l 0,8.159 -10.425,0 0,-8.159 c 0,-1.255 0.069,-1.643 2.751,-1.643 l 0.837,0 0,-1.077 c -1.221,0.105 -3.801,0.102 -5.126,0.102 -1.325,0 -3.94,0.003 -5.161,-0.102 l 0,1.077 0.837,0 c 2.685,0 2.757,0.385 2.757,1.643 l 0,18.376 c 0,1.256 -0.071,1.641 -2.757,1.641 l -0.837,0 0,1.079 c 1.221,-0.105 3.801,-0.104 5.126,-0.104 1.325,0 3.94,-0.001 5.161,0.104 l 0,-1.079 -0.837,0 c -2.685,0 -2.751,-0.384 -2.751,-1.641 l 0,-9.137 10.425,0 0,9.137 c 0,1.256 -0.07,1.641 -2.757,1.641 l -0.837,0 0,1.079 c 1.22,-0.105 3.8,-0.104 5.125,-0.104 1.325,0 3.941,-0.001 5.161,0.104 l 0,-1.079 -0.837,0 c -2.685,0 -2.75,-0.384 -2.75,-1.641 l 0,-18.376 z m 4.773,21.096" id="path24" style="fill:#000000;fill-rule:evenodd;stroke:none"/>
    <path d="m 291.415,337.134 c 0.14,1.395 1.081,2.862 2.72,2.862 0.732,0 2.857,-0.488 2.857,-3.315 l 0,-1.953 -0.87,0 0,1.953 c 0,2.023 -0.871,2.235 -1.255,2.235 -1.15,0 -1.286,-1.572 -1.286,-1.747 l 0,-6.974 c 0,-1.464 -0.004,-2.824 -1.259,-4.114 -1.36,-1.36 -3.103,-1.917 -4.778,-1.917 -2.858,0 -5.267,1.639 -5.267,3.939 0,1.046 0.698,1.634 1.607,1.634 0.975,0 1.604,-0.695 1.604,-1.599 0,-0.418 -0.174,-1.569 -1.78,-1.604 0.943,-1.22 2.651,-1.605 3.767,-1.605 1.709,0 3.698,1.36 3.698,4.464 l 0,1.289 c -1.78,0.105 -4.22,0.21 -6.418,1.257 -2.616,1.186 -3.489,2.999 -3.489,4.533 0,2.824 3.384,3.699 5.582,3.699 2.3,0 3.905,-1.396 4.567,-3.037 z m -0.242,-5.717 0,3.486 c 0,3.312 -2.512,4.503 -4.081,4.503 -1.709,0 -3.141,-1.223 -3.141,-2.969 0,-1.918 1.464,-4.812 7.22,-5.021 l 0.002,10e-4 z m 6.065,8.367" id="path26" style="fill:#000000;fill-rule:evenodd;stroke:none"/>
    <path d="m 12.06,174.031 0,-11.054 -5.02262,0.384 0,1.075 c 2.44082,0 2.72012,0.245 2.72012,1.958 l 0,20.783 0.8714,0 c 0.0349,-0.035 0.3138,-0.523 1.2553,-2.163 0.523,0.802 1.9875,2.546 4.5678,2.546 4.1495,0 7.773,-3.417 7.773,-7.915 0,-4.429 -3.4159,-7.882 -7.3894,-7.882 -2.7198,0 -4.2192,1.64 -4.7771,2.268 l 0.0015,0 z m 0.1031,9.17 0,-7.183 c 0,-0.662 0,-0.697 0.3836,-1.255 1.3599,-1.953 3.2777,-2.235 4.1146,-2.235 1.5691,0 2.8243,0.908 3.6612,2.235 0.9066,1.43 1.0075,3.417 1.0075,4.847 0,1.29 -0.0695,3.382 -1.0772,4.951 -0.7323,1.081 -2.0573,2.232 -3.9402,2.232 -1.5691,0 -2.8244,-0.837 -3.6613,-2.127 -0.4882,-0.732 -0.4882,-0.837 -0.4882,-1.465 z m 13.2852,3.975" id="path28" style="fill:#000000;fill-rule:evenodd;stroke:none"/>
    <path d="m 306.618,156.03 c -1.429,0.105 -1.638,1.151 -1.638,1.604 0,0.907 0.628,1.605 1.603,1.605 0.907,0 1.608,-0.593 1.608,-1.639 0,-2.372 -2.652,-3.731 -5.338,-3.731 -4.36,0 -7.57,3.766 -7.57,8.089 0,4.463 3.453,7.918 7.5,7.918 4.671,0 5.787,-4.187 5.787,-4.535 0,-0.349 -0.347,-0.349 -0.453,-0.349 -0.314,0 -0.383,0.139 -0.452,0.349 -1.013,3.242 -3.278,3.665 -4.569,3.665 -1.847,0 -4.918,-1.501 -4.918,-7.118 0,-5.683 2.861,-7.149 4.71,-7.149 0.313,0 2.51,0.035 3.73,1.291 z m 2.964,13.46" id="path30" style="fill:#000000;fill-rule:evenodd;stroke:none"/>
    <path d="m 118.478,211.817 c 0,-2.999 -0.003,-4.08 -1.084,-5.335 -0.488,-0.593 -1.639,-1.291 -3.663,-1.291 -2.929,0 -4.462,2.092 -5.02,3.348 l -0.036,0 0,-12.135 -5.02,0.384 0,1.075 c 2.44,0 2.717,0.245 2.717,1.959 l 0,18.131 c 0,1.57 -0.382,1.571 -2.717,1.571 l 0,1.08 c 1.22,-0.035 2.999,-0.104 3.939,-0.104 0.908,0 2.72,0.07 3.906,0.104 l 0,-1.08 c -2.336,0 -2.72,-0.001 -2.72,-1.571 l 0,-6.415 c 0,-3.627 2.476,-5.582 4.708,-5.582 2.197,0 2.583,1.884 2.583,3.873 l 0,8.124 c 0,1.57 -0.384,1.571 -2.722,1.571 l 0,1.08 c 1.219,-0.035 2.998,-0.104 3.939,-0.104 0.908,0 2.72,0.07 3.905,0.104 l 0,-1.08 c -1.812,0 -2.685,-0.001 -2.718,-1.047 l 0.003,-6.66 z m 3.448,8.787" id="path32" style="fill:#000000;fill-rule:evenodd;stroke:none"/>
    <path d="m 58.9146,316.801 0,-25.511 -25.5116,0" id="path34" style="fill:none;stroke:#000000;stroke-width:0.5;stroke-linecap:round;stroke-linejoin:round"/>
    <path d="m 141.353,122.492 -22.302,-12.389 12.39,-22.301" id="path36" style="fill:none;stroke:#000000;stroke-width:0.5;stroke-linecap:round;stroke-linejoin:round"/>
  </g>
</svg>